<svg enable-background="new 0 0 254.1 253.4" viewBox="0 0 254.1 253.4" xmlns="http://www.w3.org/2000/svg" xmlns:xlink="http://www.w3.org/1999/xlink"><linearGradient id="a" gradientTransform="matrix(1 0 0 -1 0 216.66)" gradientUnits="userSpaceOnUse" x1="177.5595" x2="177.5595" y1="86.1247" y2="142.5942"><stop offset=".0931" stop-color="#fa7b05"/><stop offset=".293" stop-color="#fa942f"/><stop offset=".6779" stop-color="#fac37b"/><stop offset=".8557" stop-color="#fad599"/></linearGradient><path d="m62.2 158.2c-2.7.5-5.6.4-5.6 2.4 0 4.4 21.7 5.8 25.1 5.8 2.2 0 4.3-.3 4.3-1.8 0-3.4-19.6-6.5-22.5-6.5-.5 0-1 0-1.3.1z" fill="#eae9e8"/><path d="m86.7 174.9c-2.7.5-5.6.4-5.6 2.4 0 4.4 21.7 5.8 25.1 5.8 2.2 0 4.3-.3 4.3-1.8 0-3.4-19.6-6.5-22.5-6.5-.5 0-1 0-1.3.1z" fill="#eae9e8"/><path d="m113.3 184.9c-2.7.5-5.6.4-5.6 2.4 0 4.4 21.7 5.8 25.1 5.8 2.2 0 4.3-.3 4.3-1.8 0-3.4-19.6-6.5-22.5-6.5-.5 0-1 0-1.3.1z" fill="#eae9e8"/><path d="m253.9 57.7-51 29.2-93.9-54.2 50.1-28.6zm-31.5 5.3 9.7-5.6-58.5-33.8c.5-.6.8-1.3.8-2.1 0-1.7-1.4-3.1-3.1-3.1-1.4 0-2.6.9-3 2.2l-8.6-5-29 16.7 7.8 4.5 64.8 37.3zm-38.3-37.9c.4-.4.6-.9.6-1.5 0-1.2-1-2.2-2.2-2.2s-2.2 1-2.2 2.2c0 .4.1.8.3 1.2.4.6 1.1 1.1 1.9 1.1.7 0 1.2-.3 1.6-.8z" fill="#fff"/><path d="m253 159.8c.5.3.8.8.8 1.3s-.3 1-.8 1.3l-92.9 53.7v-3.5l69.6-40.2-17.7-10.2c-.2-.1-.3-.2-.4-.4-.4-.5-.5-1.1-.1-1.7.4-.7 1.3-1 2-.5l1 .6 18.3 10.5 16.6-9.6-18.2-10.5-.9-.5c-.7-.4-1-1.3-.5-2 .4-.7 1.3-1 2-.5l2.4 1.4z" fill="#fff"/><path d="m249.7 119.9c.5.3.8 1 .8 1.9 0 1.9-1.3 4.1-3 5.1-.8.5-1.6.5-2.1.2l-.2-.1c-.4-.3-.7-1-.7-1.8 0-1.9 1.3-4.2 2.9-5.1.8-.4 1.5-.5 2-.2z" fill="#fff"/><path d="m243.6 76.5v24.5l-12.7 7.3v-24.5z" fill="#fff"/><path d="m223.1 89v24.5l-12.8 7.3v-24.5z" fill="#fff"/><path d="m220.5 22.1c0 .6-.2 1.1-.6 1.5s-1 .7-1.6.7c-.8 0-1.5-.4-1.9-1.1-.2-.3-.3-.7-.3-1.2 0-1.2 1-2.2 2.2-2.2s2.2 1.1 2.2 2.3z" fill="#fff"/><path d="m202.8 86.9v79.9l-71.7-41.1v-3.9l62.1 35.9 2.8-1.6v-65.1l-77.7-45-3 1.7v41c-.5.9-.8 1.8-1.3 2.5-1.1 1.6-1.4 5.3-1.5 6.4-.3 3.5.9 5.1 2.5 5.8v.1c-1.2.7-2.1 1.9-2.6 3.7-.6 2-1.1 4.8-1.5 7.8l-.5-9.9c0-2.4-.5-4.4-1.4-6v-2.4-24-5.7-34.3z" fill="#fff"/><circle cx="197.1" cy="57.8" fill="#fff" r="3.1"/><path d="m193.3 92.5-.1 65.1-62.1-35.9v-3.6c.8-.3 1.8-.5 2.9-.5 3.7.1 18.3-3.4 23.2-8.1.4-.4.6-1 .6-1.6h.2s3.1-1.7 3.4-3.2c.1-.5-.2-1.3.2-2.5.3-1 .1-2.2-.1-2.5.7-1 1.3-2 .9-2.3-.1 0-.2-.1-.3-.1l.8-2.5 1.1-1 1.4.5v-6.3c0-.5-.2-.9-.6-1.1s-.9-.2-1.2 0l-15.6 8.9-6.9-4-3.9-15.7c-.1-.5-.6-.9-1.1-.9-.5-.1-1 .3-1.2.8l-5.2 11.9c-.5-.7-1.4-1.3-2.1-1.9-.9-.7-2.2-.8-3.3-.9-.9-.1-1.9-.2-2.8-.2-.7 0-1.3.3-1.9.7-.5.4-.8.8-1.4 1-.4.2-.9.3-1.3.5-.6.4-1 1-1.4 1.6v-41zm-5.2 39.6-8-8.8v4.9l-14.8-8.5v-15.4l-.5-1.7-.4-5.5-.4 6.6-1.1 1.1v15.7c0 .5.2.9.6 1.1l16.6 9.5v4.2zm-3.1-12.9v-22.9l-14.8-8.6v22.7z" fill="#fff"/><path d="m184.7 23.6c0 .6-.2 1.1-.6 1.5s-1 .7-1.6.7c-.8 0-1.5-.4-1.9-1.1-.2-.3-.3-.7-.3-1.2 0-1.2 1-2.2 2.2-2.2s2.2 1.1 2.2 2.3z" fill="#fff"/><path d="m183.1 171.1-4.9 2.8-5-2.8 5-2.9z" fill="#fff"/><path d="m174.4 44.2c0 .6-.2 1.1-.6 1.5s-1 .7-1.6.7c-.8 0-1.5-.4-1.9-1.1-.2-.3-.3-.7-.3-1.2 0-1.2 1-2.2 2.2-2.2s2.2 1.1 2.2 2.3z" fill="#fff"/><path d="m171.3 18.4c1.7 0 3.1 1.4 3.1 3.1 0 .8-.3 1.6-.8 2.1-.6.6-1.4 1-2.3 1-1.7 0-3.1-1.4-3.1-3.1 0-.3 0-.6.1-.9.4-1.3 1.6-2.2 3-2.2z" fill="#fff"/><path d="m162.8 90.1v4.6l-.8 2.5c-.7 0-1.9 1.2-2.8 2.3-2.3 0-4.3 3.4-4.3 3.4-.4-.1-.8-.1-1.2.1 0 0-13.8 9-25 2.6-.4-.2-1.1-.6-1.9-1l.6-3.9v-.1c1.5-.2 2.9-.5 3.2-2.5.1-1.1.1-1.3.1-2.5 0 0 .6 0 .6-.4s-.6-.6-.7-1.1c-.1-.7-.1-1.6-.2-2.3h.2l5.1-11.6 3.1 12.6c.1.3.3.6.6.8l8 4.6c.4.2.9.2 1.2 0z" fill="#fff"/><path d="m161.4 99.6c.2.4.5 1.6.2 2.6-.4 1.2-.1 1.9-.2 2.5-.2 1.5-3.4 3.2-3.4 3.2h-.2c0-1.9-1.5-4.4-3-4.9s2.1-3.4 4.3-3.4c.9-1 2-2.3 2.8-2.3.1 0 .2 0 .3.1.5.2-.1 1.2-.8 2.2z" fill="#fff"/><path d="m160.1 210.3-34.6 20-29.6-17.1 13.1-7.6 3-1.7 17.9-10.4.5-.3zm-31.5 8.9v-7.2l-12.4-7.1-6.2 3.6v7.2l12.4 7.2z" fill="#fff"/><path d="m131.1 118.1v3.6 3.9 11.1c-.4 3.2-17.6 1.4-21-1.5-.4-.4-.6-.7-.6-1.1 0 0 0-1.7.2-4.2.2-3.9.6-9.8 1.3-15 .4-3 .9-5.7 1.5-7.8.5-1.8 1.5-3 2.6-3.7v-.1c2.3 1 5.5 0 6.4 0 .6 0 1.1-.2 1.5-.4 1.1.4 2.6 1.1 3.9 1.8.8.4 1.5.8 1.9 1 11.2 6.5 25-2.6 25-2.6.4-.2.8-.3 1.2-.1 1.5.5 3 3 3 4.9 0 .6-.2 1.2-.6 1.6-4.9 4.7-19.4 8.1-23.2 8.1-1.3 0-2.3.2-3.1.5z" fill="#fff"/><path d="m153.1 227.6c.3.2.4.5.4 1 0 1-.7 2.2-1.6 2.7-.4.2-.8.3-1.1.1h-.1c-.2-.2-.4-.5-.4-1 0-1 .7-2.2 1.6-2.7.5-.2.9-.3 1.2-.1z" fill="#fff"/><circle cx="142.5" cy="4.1" fill="#fff" r="3.1"/><path d="m139 235.1c.3.2.4.5.4 1 0 1-.7 2.2-1.6 2.7-.4.3-.8.3-1.1.1h-.1c-.2-.2-.4-.5-.4-1 0-1 .7-2.2 1.6-2.7.4-.2.8-.2 1.2-.1z" fill="#fff"/><path d="m127.5 100.7v.1l-.6 3.9c-1.2-.6-2.7-1.3-3.9-1.8 2-1 2.8-3.8 3.2-4.8.4-.9.5-2 .5-3 0-.4 0-.9.1-1.4.1-.4.3-.7.7-.9.6-.3 1.1-.6 1.6-1.1.6-.6 1-1.1 1.1-1.7s.1.7.2 1.7c.1.7.2 1.6.2 2.3 0 .5.7.7.7 1.1s-.6.4-.6.4c.1 1.1 0 1.4-.1 2.5-.2 2.2-1.7 2.5-3.1 2.7zm2.3-6.6c0-.1 0-.1-.1-.1 0 0-.1 0-.1.1s0 .1.1.1c0 0 .1 0 .1-.1z" fill="#fff"/><path d="m129.7 94s.1 0 .1.1 0 .1-.1.1c0 0-.1 0-.1-.1s.1-.1.1-.1z" fill="#fff"/><path d="m128.6 212-6.2 3.6-12.4-7.2 6.2-3.5z" fill="#fff"/><path d="m125.5 230.3v22.8l-29.7-17.1v-22.8zm-7.4 7.1v-3.2-2.5l-12.4-7.1-2.5-1.4v5.7z" fill="#fff"/><path d="m122.4 215.6v7.2l-12.4-7.2v-7.2z" fill="#fff"/><path d="m118.1 231.7v2.6l-12.4-6.9v-2.8z" fill="#fff"/><path d="m117.5 188.5v.6 1.4c-3.2.9-6.1-1-6.4-1.2-.1-.1-.1-.9 0-1.9 0 0 2.4 1.5 5.3 1.4.2-.1.6-.2 1.1-.3z" fill="#fff"/><path d="m112 203.9-3 1.7-97.1-56.1c-.5-.3-.8-.8-.8-1.3s.3-1 .8-1.3l4.2-2.4v-17.5c0-.8.7-1.5 1.5-1.5s1.5.7 1.5 1.5v18.4c0 .3-.1.5-.2.8-.1.2-.3.4-.5.5l-2.7 1.6z" fill="#fff"/><path d="m99.2 86.5c-.6-.2-1-.7-1-1.4 0-.8.6-1.4 1.4-1.4 0 0 .1 1.1.6 1.1s.4-3.8.4-3.8c1.8.1 3.4-.4 4.5-1 .1.7.2 1.4.2 2.2.1.6.1 1.1.1 1.7 1.1.8 0 1.2 0 1.2 0 3.1-.6 5.9-3.7 6.7v1.7c-2.7-.8-5.7-1-8.5-.8v-2.4c1.4.9 3.2.7 4.5.4 2.5-.3 1.5-4 1.5-4.2zm5.6.6c0-.2-.1-.3-.3-.3s-.3.1-.3.3.1.3.3.3.3-.2.3-.3z" fill="#fff"/><path d="m104.5 86.7c.2 0 .3.1.3.3s-.1.3-.3.3-.3-.1-.3-.3.1-.3.3-.3z" fill="#fff"/><path d="m82.8 67.1c0 .1 0 .1-.1.1 0 0-.1-.1-.1-.1 0-.1 0-.1.1-.1 0-.1.1 0 .1.1z" fill="#fff"/><path d="m62 68.4 5.4-3.1c-.6 1.8-1 3.7-1.2 5.5z" fill="#fff"/><path d="m62 79.8 1.7 1c-1.9 4.7-3.2 12.3-4.1 20.4l-34.7 20-24.6-14.3 12.4-7.1v8.6l9.9 5.7 9.9-5.7v-11.5l-7.5-4.3 12.4-7.1v8.5l9.9 5.7 9.9-5.7v-11.4l-7.4-4.3 12.2-7.1z" fill="#fff"/><path d="m58.3 188-4.9 2.8-5-2.8 5-2.9z" fill="#fff"/><path d="m57.5 118.6v5.5l-24.8 14.3v-8.2-6.1l24.8-14.3zm-3 1.6c.1-.1.2-.2.1-.3s-.2-.2-.3-.1l-.8.4c-.1.1-.2.2-.1.3 0 .1.1.1.2.1h.1zm-2.5 1.4c.1-.1.2-.2.1-.3s-.2-.2-.3-.1l-.8.4c-.1.1-.2.2-.1.3 0 .1.1.1.2.1h.1zm-2.4 1.4c.1-.1.2-.2.1-.3s-.2-.2-.3-.1l-.8.4c-.1.1-.2.2-.1.3 0 .1.1.1.2.1h.1zm-2.5 1.4c.1-.1.2-.2.1-.3s-.2-.2-.3-.1l-.8.4c-.1.1-.2.2-.1.3 0 .1.1.1.2.1h.1zm-2.4 1.4c.1-.1.2-.2.1-.3s-.2-.2-.3-.1l-.8.4c-.1.1-.2.2-.1.3 0 .1.1.1.2.1h.1zm-2.5 1.5c.1-.1.2-.2.1-.3s-.2-.2-.3-.1l-.8.4c-.1.1-.2.2-.1.3 0 .1.1.1.2.1h.1zm-2.4 1.4c.1-.1.2-.2.1-.3s-.2-.2-.3-.1l-.8.4c-.1.1-.2.2-.1.3 0 .1.1.1.2.1h.1z" fill="#fff"/><path d="m57.1 82.6-9.9 5.7-9.9-5.7 9.9-5.7 2.5 1.5z" fill="#fff"/><path d="m47.2 88.3v11.5l-9.9-5.7v-8.6-2.9z" fill="#fff"/><path d="m32.4 96.9-9.9 5.7-9.9-5.7 9.9-5.7 2.5 1.4z" fill="#fff"/><path d="m25 121.2v28.5l-6.1-3.5c.1-.2.2-.5.2-.8v-18.4c0-.8-.7-1.5-1.5-1.5s-1.5.7-1.5 1.5v17.5l-15.8-9.1v-28.5zm-15.3 12.4v-4.4l-3.8-2.2-1.5.9v4.4l3.8 2.2zm0-10.6v-4.4l-3.8-2.2-1.5.9v4.4l3.8 2.2z" fill="#fff"/><path d="m22.5 102.6v11.4l-9.9-5.7v-8.5-2.9z" fill="#fff"/><path d="m8.2 130.1v4.4l-3.9-2.2v-4.4z" fill="#fff"/><path d="m8.2 119.5v4.4l-3.9-2.2v-4.4z" fill="#fff"/><path d="m108.8 130c-.1.4-.4 1.2-.7 3-.4 1.9-.9 4.7-1.4 4.6h-.2c.2-2.9.3-5.5.3-7.6.6.1 1.3.1 2 0z" fill="#fff"/><path d="m66.2 76.8h-.1c-.9.8-1.6 2.2-2.4 4l-1.7-1v-8.6-2.9l4.1 2.4c-.3 2.4-.3 4.4-.2 5.4 0 .3.1.5.3.7z" fill="#fff"/><path d="m109 66.9v5.7l-6.2 3.6c-9.9-.8-10.8 1.6-11.2 6.5l-5.8 3.3c-.1-.7-.3-1.3-.4-1.7-.9-2.8-2.8-4.4-4.7-5.4l.4-4.1v-.1c2.3-.8 3.1-3.3 3-5.9 0-.2.6-.2.6-.5 0-.4-.7-.8-.8-1-.1-1.7-.5-3.3-.6-4.1h-.1c.1-.5.1-1.1-.2-1.7s-.8-1.1-1.5-1.6l7.6-4.4z" fill="#fff"/><path d="m81.1 74.7-.4 4.2c-.8-.4-1.6-.7-2.3-1h-.1c0-.1.1-.2.1-.4l.4-9.8c0-.7.4-1.3 1.1-1.6 1.2-.5 2.9-1.5 3.3-3h.1c.2.8.5 2.4.6 4.1 0 .2.8.6.8 1 0 .3-.6.3-.6.5.1 2.7-.7 5.2-3 6zm1.6-7.5s.1-.1.1-.1c0-.1 0-.1-.1-.1 0 0-.1.1-.1.1s0 .1.1.1z" fill="#fff"/><path d="m59.6 101.1c.9-8.1 2.2-15.6 4.1-20.4.7-1.8 1.5-3.1 2.4-4h.1c.1.1.2.2.3.2 1.4.6 5.2 2.1 11.1 1.5.4 0 .7-.3.8-.6h.1c.7.2 1.5.5 2.3 1 1.8 1 3.8 2.7 4.7 5.4.1.4.3 1 .4 1.7.5 2.8 1 7.3 1.1 10.1-2 3.8-3.3 11-3.7 20.2-.1.9-.9 1.3-1.1 1.4l-.1 21.5c-.1 1.3-1.5 2.3-3.5 2.9-2.4.7-5.7 1-9 .8-2.6-.1-5.1-.5-7.2-1.1-2.8-.8-4.8-2.1-4.6-3.7 0 0 0-2.8.1-7.2.1-7.3.6-19 1.7-29.7z" fill="#fff"/><path d="m85.9 125.7.1 7.7h-.2c-.5 0-1-2.8-1.4-4.6-.4-1.9-.7-2.7-.7-3.1v-.1c.5.1 1.2.2 2.2.1z" fill="#fff"/><path d="m86 133.4.3 26.4h-1.9c0-.5 0-1-.1-1.1-.9-2.3-4.4-.1-7-1.3l1.3-15.2v-.1c2.1-.6 3.4-1.6 3.5-2.9l.1-21.5c.2-.1 1-.5 1.1-1.4-.1 2.8-.2 5.8-.2 8.9 0 0 .2.2.8.3v.1c0 .3.4 1.2.7 3.1.4 1.9.9 4.7 1.4 4.6z" fill="#fff"/><path d="m134 185.4c.1.7 0 1.8-.1 2.1-.4 1.1-2.9 2.4-5.5 3.4-1.5.6-3.1 1.1-4.2 1.5-3.3 1.1-6.4-1-6.7-1.2-.1 0-.1-.4-.1-.9 0-.4 0-.8 0-1.4s2.4 1.8 5.3 1.7c3.3.1 11.1-2.5 11.3-5.2z" fill="#fff"/><path d="m117.5 188.5c-.5.1-.9.1-1.2.1-2.9.1-5.3-1.4-5.3-1.4.1-1.7.4-4 .4-4v.2c-.2 1.8 6.3 2.7 6.5.9 0 2.1 8.9 1.7 8.9-1 0 0 0-.1 0-.4 3 1.8 5.9-.8 7 1.9 0 .1.1.3.1.5-.3 2.6-8.1 5.2-11.2 5.3-2.9.1-5.3-1.7-5.3-1.7.1 0 .1-.2.1-.4z" fill="#fff"/><path d="m84.2 158.7c.1.2.1.7.1 1.1 0 .5 0 1-.1 1.2-.5 1.6-6.2 3.6-8.8 4.4-3 1-5.8-.9-6.1-1.1-.1-.1-.1-.6-.1-1.4 0-.2 0-.3 0-.5h.4s1.9 1.5 4.5 1.4c2.9.1 10-2.7 10.1-5.1z" fill="#fff"/><path d="m77.2 157.4c2.7 1.2 6.1-1 7 1.3-.1 2.4-7.2 5.2-10.1 5.3-2.7.1-4.5-1.4-4.5-1.4h-.4c0-1.6.2-3.6.2-3.6l.2-.2c1.2 1.8 7.5 1.6 7.5-.6z" fill="#fff"/><path d="m69.6 158.7-.2.2s-.1 2-.2 3.6v.5c-.4.1-.7.2-1 .3-3 1-5.8-.9-6.1-1.1s.1-5.5.1-5.5c.5 1.8 5.5 2 7.1.7v.6c.1.3.2.5.3.7z" fill="#fff"/><path d="m92.9 178.7v1.2c-.2 0-.3.1-.5.1-3 1-5.8-.9-6.1-1.1-.1-.1-.1-.6-.1-1.3h.2s1.8 1.4 4.4 1.3c.5 0 1.3-.1 2.1-.2z" fill="#fff"/><path d="m93.3 176.3-.2.1s-.1 1.1-.1 2.3c-.8.2-1.6.3-2.1.3-2.7.1-4.4-1.3-4.4-1.3h-.2c0-1.6.2-4.2.2-4.2.4 1.4 4.7 1.8 6.6 1v1.4c0 .1 0 .2.2.4z" fill="#fff"/><path d="m108.2 176.2c.2.3.2.6.2.9 0 .6-.2 1.2-.3 1.4-.6 1.7-6.3 3.7-9 4.5-3.1 1-5.9-.9-6.2-1.1-.1 0-.1-.6-.1-1.3h.2s1.8 1.5 4.5 1.4c3-.1 11.4-2.3 10.7-5.8z" fill="#fff"/><path d="m108.2 176.1s0 .1 0 0c.7 3.6-7.7 5.8-10.6 5.9-2.7.1-4.5-1.4-4.5-1.4h-.2c0-.3 0-.5 0-.8 0-.4 0-.8 0-1.2.1-1.2.1-2.3.1-2.3l.2-.1c1.3 1.3 8.2 1.9 8.7-1.4 2.1.8 4.7-.8 6.3 1.3z" fill="#fff"/><path d="m111.2 177-2.7.1c0-.3-.1-.7-.2-.9 0 0 0 0 0-.1-1.6-2.2-4.2-.5-6.2-1.3 0-.1 0-.1 0-.2 0 0 3.5-21.9 4.5-37h.2c.5 0 1-2.8 1.4-4.6s.7-2.7.7-3c.2 0 .4-.1.6-.1h.2c-.1 2.6-.2 4.2-.2 4.2 0 .4.2.8.6 1.1-.1 5.8.6 12.4.6 19.1-.1 6.2.2 16.2.5 22.7z" fill="#fff"/><path d="m85.9 125.7c-1 .1-1.7 0-2.2-.1s-.8-.3-.8-.3c0-3.1.1-6.1.2-8.9.5-9.2 1.7-16.5 3.7-20.2.9-1.6 1.8-2.6 3-2.9 1.1-.2 2.2-.4 3.4-.5 2.8-.2 5.8 0 8.5.8 3 .9 5.7 2.6 7.2 5.4.9 1.6 1.4 3.6 1.4 6l.5 9.9c-.7 5.2-1.1 11.1-1.3 15h-.2c-.2 0-.4.1-.6.1-.7.1-1.4.1-2 0s-1.1-.1-1.1-.1 0-.5 0-1.4c-3.9 3.3-19.7 1.8-19.7-2.8z" fill="#fff"/><path d="m196 91-2.7 1.5-78-44.9 3-1.6z" fill="#fff"/><path d="m162.3 97.4c-.4.4-.9.8-1.4 1.1-.1.3-.3.5-.5.8-1.1 1.9-2.6 3.4-4.5 4.4 1 1 1.9 2.7 1.9 4.2h.2s3.1-1.7 3.4-3.2c.1-.5-.2-1.3.2-2.5.3-1 .1-2.2-.1-2.5.5-1 1-1.9.8-2.3z" fill="#eae9e8"/><path d="m131.6 118.2c-.2 0-.4 0-.5 0" fill="none"/><path d="m147.6 106.1c1.7-.8 3.4-1.7 5.1-2.8.6-.4 1.5-.6 2-1" fill="none"/><path d="m131.1 118.2h.5.4" fill="none"/><path d="m123.2 138.4s-9.7-.7-13.2-3.1c-.4-.4-.6-.7-.6-1.1 0 0 0-1.7.2-4.2.2-3.9.6-9.8 1.3-15 .4-3 .9-5.7 1.5-7.8.5-1.8 1.5-3 2.6-3.7v-.1c2.3 1 5.5 0 6.4 0 .6 0 1.1-.2 1.5-.4 1.1.4 2.6 1.1 3.9 1.8.8.4 1.5.8 1.9 1 6.5 3.7 13.8 2.3 18.9.4-4.7 1.8-9.5 2.7-14.4 3.8-3.9.9-8.2 3.9-7.2 8.6.4 2 2 3.6 2.5 5.7.6 2.6.2 5.3.8 7.9.4 1.6 1.1 3.1 1.7 4.6.5 1.2-4.2 1.9-5.7 1.7-1-.1-1.8.2-2.5-.1z" fill="#eae9e8"/><path d="m54.6 119.8c.1.1 0 .3-.1.3l-.8.4h-.1c-.1 0-.2 0-.2-.1-.1-.1 0-.3.1-.3l.8-.4c.1 0 .2 0 .3.1z" fill="#3d3d3d"/><path d="m52.1 121.2c.1.1 0 .3-.1.3l-.8.4h-.1c-.1 0-.2 0-.2-.1-.1-.1 0-.3.1-.3l.8-.4c.1 0 .3 0 .3.1z" fill="#3d3d3d"/><path d="m49.7 122.7c.1.1 0 .3-.1.3l-.8.4h-.1c-.1 0-.2 0-.2-.1-.1-.1 0-.3.1-.3l.8-.4c.1-.1.2-.1.3.1z" fill="#3d3d3d"/><path d="m47.2 124.1c.1.1 0 .3-.1.3l-.8.4h-.1c-.1 0-.2 0-.2-.1-.1-.1 0-.3.1-.3l.8-.4c.1-.1.3 0 .3.1z" fill="#3d3d3d"/><path d="m44.8 125.5c.1.1 0 .3-.1.3l-.8.4h-.1c-.1 0-.2 0-.2-.1-.1-.1 0-.3.1-.3l.8-.4c0-.1.2 0 .3.1z" fill="#3d3d3d"/><path d="m42.3 126.9c.1.1 0 .3-.1.3l-.8.4h-.1c-.1 0-.2 0-.2-.1-.1-.1 0-.3.1-.3l.8-.4c.1 0 .2 0 .3.1z" fill="#3d3d3d"/><path d="m39.9 128.3c.1.1 0 .3-.1.3l-.8.4h-.1c-.1 0-.2 0-.2-.1-.1-.1 0-.3.1-.3l.8-.4s.2 0 .3.1z" fill="#3d3d3d"/><path d="m77.2 157.4-.1.7c0 2.2-6.3 2.4-7.5.6-.1-.2-.2-.4-.2-.6v-.6-14.5-.1c3.3.2 6.6-.1 9-.8v.1z" fill="#424242"/><path d="m69.4 142.9v.1 14.5c-1.7 1.3-6.6 1.1-7.1-.7 0-.1 0-.2 0-.3v-14.7c2 .5 4.6.9 7.1 1.1z" fill="#424242"/><path d="m85.9 125.7c-1 .1-1.7 0-2.2-.1s-.8-.3-.8-.3c0-3.1.1-6.1.2-8.9.5-9.2 1.7-16.5 3.7-20.2.9-1.6 1.8-2.6 3-2.9 1.1-.2 2.2-.4 3.4-.5 2.8-.2 5.8 0 8.5.8 3 .9 5.7 2.6 7.2 5.4.9 1.6 1.4 3.6 1.4 6l.5 9.9c-.7 5.2-1.1 11.1-1.3 15h-.2c-.2 0-.4.1-.6.1-.7.1-1.4.1-2 0s-1.1-.1-1.1-.1 0-.5 0-1.4c-3.9 3.3-19.7 1.8-19.7-2.8z" fill="#eae9e8"/><path d="m93.1 174.4c-1.9.8-6.2.3-6.6-1 0-.1 0-.1 0-.2l-.1-13.4-.4-26.4-.1-7.7c0 4.5 15.8 6 19.8 2.8v1.4s.4.1 1.1.1c0 2.2-.1 4.8-.3 7.6-1 15-4.5 37-4.5 37v.2c-.5 3.3-7.4 2.8-8.7 1.4-.1-.1-.2-.3-.2-.4 0 0 0-.5 0-1.4z" fill="#424242"/><path d="m117.9 184.4c-.2 1.8-6.8.8-6.5-.9 0 0 0-.1 0-.2 0-.7-.1-3.1-.2-6.3-.2-6.6-.5-16.6-.5-22.6 0-6.7-.7-13.3-.6-19.1 3.5 2.9 20.7 4.7 21 1.5-.7 10.2-3.9 42.5-4.2 46.3v.4c-.1 2.7-9 3-9 .9z" fill="#424242"/><circle cx="237.2" cy="195" fill="#3d3d3d" r="1"/><circle cx="165.3" cy="192.8" fill="#3d3d3d" r="1"/><circle cx="232.1" cy="159.2" fill="#3d3d3d" r="1"/><circle cx="174.4" cy="1" fill="#3d3d3d" r="1"/><circle cx="86.2" cy="30.3" fill="#3d3d3d" r="1"/><circle cx="74.6" cy="216.1" fill="#3d3d3d" r="1"/><circle cx="19.7" cy="171.1" fill="#3d3d3d" r="1"/><circle cx="19.7" cy="71.2" fill="#3d3d3d" r="1"/><path d="m109 96.6v2.4c-1.5-2.8-4.2-4.5-7.2-5.4v-1.7c3.1-.9 3.8-3.6 3.7-6.7 0 0 1.1-.5 0-1.2 0-.6 0-1.1-.1-1.7 1.3-1.6 1.2-3 1.1-3.3.8-1.1.1-2.4-3.2-2.7-.2 0-.3 0-.5 0l6.2-3.6z" fill="#cacaca"/><path d="m93.3 92.8c-1.2.1-2.4.3-3.4.5-1.1.2-2.1 1.2-3 2.9-.1-2.8-.5-7.3-1.1-10.1l5.8-3.3c0 .7-.1 1.5-.2 2.3-.2 3.1.6 4.6 1.8 5.4v2.3z" fill="#cacaca"/><path d="m25 121.2 34.7-20c-1.2 10.7-1.7 22.3-1.9 29.6l-32.8 18.9zm32.5 2.9v-5.5-8.8l-.7-.4-24.9 14.3v14.3l.8.5z" fill="#cacaca"/><path d="m160.1 216.1v17.1l-34.6 20v-22.8l34.6-20v2.2zm-6.5 12.5c0-.5-.2-.8-.4-1h-.1l-3.5-2c-.3-.2-.7-.2-1.2.1-.9.5-1.6 1.7-1.6 2.7 0 .5.2.9.5 1l3.5 2h.1c.3.2.7.1 1.1-.1.9-.5 1.6-1.7 1.6-2.7zm-14.2 7.5c0-.5-.2-.8-.4-1h-.1l-3.5-2c-.3-.2-.7-.2-1.2.1-.9.5-1.6 1.7-1.6 2.7 0 .5.2.9.5 1l3.5 2h.1c.3.2.7.1 1.1-.1.9-.5 1.6-1.7 1.6-2.7z" fill="#cacaca"/><path d="m106.4 78.9c.1.4.2 1.7-1.1 3.3-.1-.8-.2-1.5-.2-2.2.6-.3 1.1-.7 1.3-1.1z" fill="#3d3d3d"/><circle cx="140.4" cy="141.7" fill="#3d3d3d" r="1"/><path d="m135.4 233.1 3.5 2c-.3-.1-.7-.1-1.1.1-.9.5-1.6 1.7-1.6 2.7 0 .4.1.8.4 1l-3.5-2c-.3-.2-.5-.5-.5-1 0-1 .7-2.2 1.6-2.7.5-.3.9-.3 1.2-.1z" fill="#969696"/><path d="m149.6 225.5 3.5 2c-.3-.1-.7-.1-1.1.1-.9.5-1.6 1.7-1.6 2.7 0 .4.1.8.4 1l-3.5-2c-.3-.2-.5-.5-.5-1 0-1 .7-2.2 1.6-2.7.5-.2.9-.3 1.2-.1z" fill="#969696"/><path d="m159.7 15.6v10.6c-2.5.2-4.6 2.1-7.8 3.6-2.8 1.3-6 2.1-8.2 3.5-2.5 1.6-3.9 2.8-5.3 3.6l-7.8-4.5z" fill="#cacaca"/><path d="m232.1 57.4-9.7 5.6c-5.2-1.9-12.6-6-14.9-8.3-3.2-3.3-10.1-7.1-19.4-11.9-5.2-2.7-12.4-8.6-16.7-10.7-5.8-2.8-11.1-5.9-11.4-5.9-.1 0-.2 0-.3 0v-10.6l8.6 5c-.1.3-.1.6-.1.9 0 1.7 1.4 3.1 3.1 3.1.9 0 1.7-.4 2.3-1z" fill="#cacaca"/><path d="m159.7 26.2h.3c.2 0 5.5 3.1 11.4 5.9 4.4 2.1 11.5 8 16.7 10.7 9.3 4.9 16.2 8.6 19.4 11.9 2.3 2.4 9.7 6.4 14.9 8.3l-19.1 11.1-64.8-37.3c1.4-.7 2.8-2 5.3-3.6 2.1-1.4 5.4-2.2 8.2-3.5 3.1-1.4 5.2-3.3 7.7-3.5zm40.5 31.6c0-1.7-1.4-3.1-3.1-3.1s-3.1 1.4-3.1 3.1 1.4 3.1 3.1 3.1 3.1-1.4 3.1-3.1zm-26.3-12.1c.4-.4.6-.9.6-1.5 0-1.2-1-2.2-2.2-2.2s-2.2 1-2.2 2.2c0 .4.1.8.3 1.2.4.6 1.1 1.1 1.9 1.1.6-.1 1.2-.4 1.6-.8z" fill="#3d3d3d"/><path d="m253.9 57.7v79.7l-19.8 11.4-2.4-1.4c-.7-.4-1.6-.2-2 .5s-.2 1.6.5 2l.9.5-16.7 9.6-1-.6c-.7-.4-1.6-.2-2 .5-.3.6-.2 1.2.1 1.7l-8.6 5v-79.7zm-3.4 64.1c0-.9-.3-1.6-.8-1.9l-.2-.1-6.5-3.8c-.6-.4-1.3-.3-2.2.2-1.6.9-2.9 3.2-2.9 5.1 0 1 .3 1.6.9 1.9l6.5 3.8.2.1c.5.3 1.3.3 2.1-.2 1.6-1 2.9-3.3 2.9-5.1zm-2.7-18.4v-29.3l-4.2 2.4-12.7 7.3v24.5 4.9zm-20.5 12.5v-29.4l-4.2 2.4-12.7 7.4v24.5 4.9z" fill="#cacaca"/><path d="m243 116 6.5 3.8c-.5-.2-1.2-.2-2 .2-1.6 1-2.9 3.2-2.9 5.1 0 .8.2 1.5.7 1.8l-6.5-3.8c-.6-.3-.9-1-.9-1.9 0-1.9 1.3-4.2 2.9-5.1.9-.4 1.6-.5 2.2-.1z" fill="#969696"/><path d="m247.8 74.1v29.3l-4.2-2.4v-24.5z" fill="#969696"/><path d="m247.8 103.4-16.9 9.8v-4.9l12.7-7.3z" fill="#969696"/><path d="m227.3 86.5v29.4l-4.2-2.4v-24.5z" fill="#969696"/><path d="m227.3 115.9-17 9.8v-4.9l12.8-7.3z" fill="#969696"/><path d="m196 91v65l-2.8 1.6.1-65.1z" fill="#cacaca"/><path d="m180.1 123.3 8 8.8-8 3.1v-4.2l-16.6-9.5c-.4-.2-.6-.6-.6-1.1v-15.7l1.1-1.1.4-6.6.4 5.5.5 1.7v15.4l14.8 8.5z" fill="#3d3d3d"/><path d="m185 96.3v22.8l-14.8-8.7v-22.6zm-6.6 0-1.6-1v11.4.1l1.5.9zm-.9 14.7c.4.2.8 0 .8-.5s-.4-1.1-.8-1.4c-.5-.3-.8 0-.8.5s.4 1.1.8 1.4z" fill="url(#a)"/><path d="m183.1 171.1v1.4l-4.9 2.9v-1.5z" fill="#3d3d3d"/><path d="m178.4 96.2v.1l-.1 11.4-1.5-.9h-.1l.1-11.4v-.1l1.5.9z" fill="#3d3d3d"/><path d="m178.2 173.9v1.5l-5-2.9v-1.4z" fill="#3d3d3d"/><path d="m178.3 110.5c0 .5-.4.7-.8.5-.4-.3-.8-.9-.8-1.4s.4-.7.8-.5c.5.3.8.9.8 1.4z" fill="#3d3d3d"/><path d="m165.3 88v6.3l-1.4-.5-1.1 1v-4.6l-14.2 8.2c-.4.2-.9.2-1.2 0l-8-4.6c-.3-.2-.5-.5-.6-.8l-3.1-12.6-5.1 11.6h-.2c-.1-.9-.2-1.7-.2-1.7.1-.6 0-1.2-.4-2-.1-.1-.1-.2-.2-.4l5.2-11.9c.2-.5.7-.8 1.2-.8s1 .4 1.1.9l3.9 15.7 6.9 4 15.4-8.9c.4-.2.9-.2 1.2 0 .5.2.8.6.8 1.1z" fill="#3d3d3d"/><path d="m129.6 87.8c.1.1.2.2.2.4.4.8.5 1.4.4 2s-.5 1.1-1.1 1.7c-.5.5-1 .8-1.6 1.1-.4.2-.6.5-.7.9-.1.5-.1 1-.1 1.4 0 1-.2 2-.5 3-.4 1-1.2 3.7-3.2 4.8-.4.2-.9.4-1.5.4-.9 0-4.1 1-6.4 0-1.6-.7-2.8-2.3-2.5-5.8.1-1.1.3-4.8 1.5-6.4.5-.7.9-1.7 1.3-2.5.4-.7.8-1.3 1.4-1.6.4-.2.9-.3 1.3-.5.6-.2.9-.7 1.4-1 .6-.4 1.2-.7 1.9-.7.9 0 1.9.1 2.8.2 1.1.1 2.4.2 3.3.9.7.4 1.5 1 2.1 1.7z" fill="#3d3d3d"/><path d="m128.6 212v7.2l-6.2 3.6v-7.2z" fill="#cacaca"/><path d="m118.1 234.3v3.1l-14.8-8.5 2.4-1.5z" fill="#969696"/><path d="m100.6 81s0 3.8-.4 3.8-.6-1.1-.6-1.1c-.8 0-1.4.6-1.4 1.4 0 .6.4 1.2 1 1.4.1.2 1 3.9-1.4 4.3-1.3.2-3.1.4-4.5-.4-1.2-.8-2-2.3-1.8-5.4.1-.8.1-1.6.2-2.3.4-4.9 1.3-7.3 11.2-6.5h.5c3.3.3 4 1.5 3.2 2.7-.3.4-.7.8-1.3 1.1-1.3.6-2.9 1.1-4.7 1z" fill="#3d3d3d"/><path d="m105.7 224.6v2.8l-2.4 1.5v-5.7z" fill="#969696"/><path d="m67.4 65.3c.5-1.3 1.1-2.5 1.9-3.5 2.8-3.6 9.2-3.7 12.3-1.8.7.4 1.2.9 1.5 1.6.3.6.3 1.2.2 1.7-.4 1.5-2.2 2.5-3.3 3-.6.3-1 .9-1.1 1.6l-.4 9.8c0 .1 0 .2-.1.4-.1.3-.4.6-.8.6-5.9.6-9.7-.8-11.1-1.5-.1-.1-.2-.1-.3-.2-.1-.2-.2-.4-.2-.6 0-1-.1-3 .2-5.4.2-2 .5-3.9 1.2-5.7z" fill="#3d3d3d"/><path d="m58.3 188v1.4l-4.9 2.8v-1.4z" fill="#616161"/><path d="m57.5 109.8-24.8 14.3-.8-.4 24.9-14.3z" fill="#3d3d3d"/><path d="m57.1 82.6v11.5l-9.9 5.7v-11.5z" fill="#cacaca"/><path d="m53.4 190.8v1.4l-5-2.8v-1.4z" fill="#616161"/><path d="m32.7 130.2v8.2l-.8-.4v-14.3l.8.4z" fill="#3d3d3d"/><path d="m32.4 96.9v11.4l-9.9 5.7v-11.4z" fill="#cacaca"/><path d="m9.7 129.2v4.4l-1.5.9v-4.4z" fill="#3d3d3d"/><path d="m9.7 118.7v4.3l-1.5.9v-4.4z" fill="#3d3d3d"/><path d="m9.7 118.7-1.5.8-3.9-2.2 1.6-.8z" fill="#3d3d3d"/><path d="m9.7 129.2-1.5.9-3.9-2.2 1.6-.9z" fill="#3d3d3d"/><path d="m86.8 94c.1 1.2-.1 2.4-.5 3.5-1.6 4-2.7 10.7-3.1 18.9 0 .2-.1.4-.1.5-.5 1.1-1 2.2-1 3.4l-.1 18.9c-.1 1.3-1.5 2.3-3.5 2.9-2.4.7-5.7 1-9 .8-2.6-.1-5.1-.5-7.2-1.1-2.8-.8-4.8-2.1-4.6-3.7 0 0 0 0 0-.2 0 1.3 3.7.3 4.1.1 3.2-1.8 4.6-6.3 5.6-9.6 1.6-5.4 2-11.1 3.8-16.5 1.8-5.5 7-10.2 7-16.3 0-4.6.5-10.2-4.4-12.6s-7.1-1.9-7.4-6.1c.1.1.1.1.2.1 1.4.6 5.2 2 11.1 1.5.4 0 .7-.3.8-.6h.1c.7.2 1.5.5 2.3 1 1.8 1 3.8 2.7 4.7 5.4.1.4.3 1 .4 1.7.3 2.2.6 5.4.8 8z" fill="#eae9e8"/><path d="m82.7 66.9s-.1.1-.1.1c0 .1 0 .1.1.1 0 0 .1-.1.1-.1s-.1-.1-.1-.1zm.5-3.6c.1 0 .1-.1 0 0 0-.2 0-.4 0-.5v-.3zm-.5 3.6s-.1.1-.1.1c0 .1 0 .1.1.1 0 0 .1-.1.1-.1s-.1-.1-.1-.1zm.5-3.6c-.4 1.4-2.1 2.4-3.3 2.9-.6.3-1 .9-1.1 1.6l-.4 9.8c0 .1 0 .2-.1.4h.1c.7.2 1.5.5 2.3 1l.4-4c-.5-.3 2.5-1.4 2.1-2-3.6 1.6-4-1.1-4-2 0-3.8 3.5-4.2 4-7.4zm-.5 3.6s-.1.1-.1.1c0 .1 0 .1.1.1 0 0 .1-.1.1-.1s-.1-.1-.1-.1z" fill="#eae9e8"/><path d="m68 161.9s-.1 0-.1-.1c-.5-3-5-1.3-5.9-4.3.1-.6.1-.9.1-.9v.2c-.3 1.8 6.1 1.9 7 .9 0 .9 1.6 2.2 3.5 2.2 2.7 0 4.5-.9 4.5-2.5l1.5.5c0 1.9-3 3-5.1 3-2 0-3.1 0-4-.8 0 0-.4 1.5-.4 1.5z" fill="#eae9e8"/><path d="m102.1 176.2c0 1.7-4.7 2.8-6.5 2.8-.9 0-1.8-.2-2.6-.9v.2c0 .5 0 1-.2 1.4-.7-.2-.8-2.1-2-3.3-.8-.8-4.5-.4-4.5-2.6 1.5 1 5.5 1.4 6.7.5v1.4c0 .1.1.3.2.4 1.2 1.2 7.3 1.8 8.5-.8.5.6.4.6.4.9z" fill="#eae9e8"/><path d="m100.1 85.3c.1-.2.2-.4.3-.5 0 0 0 0 0-.1 0 .1-.1.1-.1.1-.5 0-.6-1.1-.6-1.1-.8 0-1.4.6-1.4 1.4 0 .6.4 1.2 1 1.4.1.2 1 3.9-1.4 4.3-1.3.2-3.1.4-4.5-.4v2.4c2.8-.2 5.8 0 8.5.8v-1.7c1-.3 1.8-.8 2.4-1.4-.3.1-.6.2-1 .2-2.8 0-3.2-2.8-3.2-5.4z" fill="#eae9e8"/><path d="m128.9 100.3c-.2-.1-.4-.2-.6-.3-.8-.3-1.5-.7-2.1-1.3 0 0-.1-.1-.1-.2-.5 1.2-1.3 3.5-3 4.4 1.1.4 2.6 1.1 3.9 1.8l.6-3.9v-.1c.4-.1.9-.2 1.3-.4z" fill="#eae9e8"/><path d="m127.2 184.5c0 1.9-3.2 2.5-5.1 2.5-1.8 0-3.6-.5-4.5-1.3v.8c0 .7 0 1.3-.1 2 0 0 0 0-.1 0-.2 0-.4.1-.6.1s-.1 0-.1-.1c-.4-3-4.6-1.3-5.5-4.3.1-.6.1-.9.1-.9v.2c-.2 1.8 6.3 2.7 6.5.9 0 2.1 8.9 1.7 8.9-1 0 0 0-.1 0-.3.4.5.5.9.5 1.4z" fill="#eae9e8"/><path d="m111.1 182.7v.4.2c0 .4.1.7.1 1" fill="none"/><path d="m116.9 188.6c.2.1.3.1.5.1v-.1h.1" fill="none"/><path d="m111.1 183.2c1.2-1.4 4.4-2.6 6.6-2.6 3 0 7.9.3 9.1 2.6" fill="none"/><g fill="#3d3d3d"><path d="m171.3 24.9c-1.9 0-3.4-1.5-3.4-3.4 0-.4 0-.7.2-1 .5-1.4 1.7-2.4 3.2-2.4 1.9 0 3.4 1.5 3.4 3.4 0 .9-.3 1.7-.9 2.3-.6.7-1.5 1.1-2.5 1.1zm0-6.3c-1.3 0-2.4.8-2.8 2-.1.3-.1.6-.1.9 0 1.6 1.3 2.9 2.9 2.9.8 0 1.6-.3 2.1-.9.5-.5.8-1.2.8-1.9 0-1.7-1.3-3-2.9-3z"/><path d="m142.5 7.5c-1.9 0-3.4-1.5-3.4-3.4s1.5-3.4 3.4-3.4 3.4 1.5 3.4 3.4-1.5 3.4-3.4 3.4zm0-6.3c-1.6 0-2.9 1.3-2.9 2.9s1.3 2.9 2.9 2.9 2.9-1.3 2.9-2.9-1.3-2.9-2.9-2.9z"/><path d="m197.1 61.2c-1.9 0-3.4-1.5-3.4-3.4s1.5-3.4 3.4-3.4 3.4 1.5 3.4 3.4-1.5 3.4-3.4 3.4zm0-6.3c-1.6 0-2.9 1.3-2.9 2.9s1.3 2.9 2.9 2.9 2.9-1.3 2.9-2.9-1.3-2.9-2.9-2.9z"/><path d="m182.5 26.1c-.9 0-1.6-.4-2.1-1.2-.2-.4-.4-.8-.4-1.3 0-1.4 1.1-2.5 2.5-2.5s2.5 1.1 2.5 2.5c0 .6-.2 1.2-.6 1.6-.5.6-1.2.9-1.9.9zm0-4.4c-1.1 0-2 .9-2 2 0 .4.1.7.3 1 .4.6 1 .9 1.7.9.6 0 1.1-.2 1.5-.7.3-.4.5-.8.5-1.3 0-1-.9-1.9-2-1.9z"/><path d="m218.3 24.6c-.9 0-1.6-.4-2.1-1.2-.2-.4-.4-.8-.4-1.3 0-1.4 1.1-2.5 2.5-2.5s2.5 1.1 2.5 2.5c0 .6-.2 1.2-.6 1.6-.5.5-1.2.9-1.9.9zm0-4.5c-1.1 0-2 .9-2 2 0 .4.1.7.3 1 .4.6 1 .9 1.7.9.6 0 1.1-.2 1.5-.7.3-.4.5-.8.5-1.3 0-1-.9-1.9-2-1.9z"/><path d="m172.2 46.7c-.9 0-1.6-.4-2.1-1.2-.2-.4-.4-.8-.4-1.3 0-1.4 1.1-2.5 2.5-2.5s2.5 1.1 2.5 2.5c0 .6-.2 1.2-.6 1.6-.5.6-1.2.9-1.9.9zm0-4.5c-1.1 0-2 .9-2 2 0 .4.1.7.3 1 .4.6 1 .9 1.7.9.6 0 1.1-.2 1.5-.7.3-.4.5-.8.5-1.3 0-1-.9-1.9-2-1.9z"/><path d="m.3 107.1c-.1 0-.2 0-.2-.1-.1-.1 0-.3.1-.3l12.4-7.1c.1-.1.3 0 .3.1s0 .3-.1.3l-12.4 7.1c-.1 0-.1 0-.1 0z"/><path d="m25 92.9c-.1 0-.2 0-.2-.1-.1-.1 0-.3.1-.3l12.4-7.1c.1-.1.3 0 .3.1s0 .3-.1.3l-12.4 7.1c0-.1-.1 0-.1 0z"/><path d="m49.7 78.6c-.1 0-.2 0-.2-.1-.1-.1 0-.3.1-.3l12.3-7.2c.1-.1.3 0 .3.1s0 .3-.1.3l-12.4 7.1c.1.1 0 .1 0 .1z"/><path d="m109 67.2h-.1l-19.7-11.4-7.5 4.3c-.1.1-.3 0-.3-.1s0-.3.1-.3l7.6-4.4h.2l19.8 11.4c.1.1.2.2.1.3-.1.2-.1.2-.2.2z"/><path d="m168.3 141.4c-.1 0-.2-.1-.2-.2v-10.9c0-.1.1-.2.2-.2s.2.1.2.2v10.9c0 .1-.1.2-.2.2z"/><path d="m173.2 143.9c-.1 0-.2-.1-.2-.2v-8.3c0-.1.1-.2.2-.2s.2.1.2.2v8.3c.1.1-.1.2-.2.2z"/><path d="m178.1 146.5c-.1 0-.2-.1-.2-.2v-5.2c0-.1.1-.2.2-.2s.2.1.2.2v5.2c.1.1 0 .2-.2.2z"/><path d="m109 205.9h-.1l-97.1-56.1c-.5-.3-.9-.9-.9-1.5s.3-1.2.9-1.5l4.1-2.3v-17.5c0-1 .8-1.8 1.7-1.8s1.8.8 1.8 1.8v18.4c0 .3-.1.6-.2.9-.2.3-.4.5-.6.6l-2.3 1.3 96 55.4c.1.1.2.2.1.3s-.2.2-.3.1l-96.4-55.6c-.1 0-.1-.1-.1-.2s0-.2.1-.2l2.7-1.6c.2-.1.4-.3.5-.5s.2-.4.2-.6v-18.3c0-.7-.6-1.2-1.2-1.2s-1.2.6-1.2 1.2v17.5c0 .1 0 .2-.1.2l-4.2 2.4c-.4.2-.6.6-.6 1.1s.2.9.6 1.1l97.1 56.1c.1.1.2.2.1.3-.5.1-.5.2-.6.2z"/><path d="m178.3 108s-.1 0-.2 0l-1.5-.9s-.1-.1-.1-.1v-.1s0 0 0-.1v-11.4-.1c.1-.1.3-.2.4-.1l1.5.9h.1s.1.1.1.2v.1 11.4.1c-.1 0-.2.1-.3.1zm-1.3-1.3 1.1.6v-10.9l-1.1-.6z"/><path d="m177.9 111.3c-.1 0-.3 0-.5-.1-.5-.3-.9-1-.9-1.6 0-.3.1-.6.4-.7.2-.1.5-.1.8.1.5.3.9 1 .9 1.6 0 .3-.1.6-.4.7-.1 0-.2 0-.3 0zm-.9-1.7c0 .4.3 1 .7 1.2.1.1.2.1.3 0s.1-.1.1-.3c0-.4-.3-1-.7-1.2-.1-.1-.2-.1-.3-.1-.1.1-.1.2-.1.4z"/><path d="m178.2 174.2h-.1l-5-2.9c-.1 0-.1-.1-.1-.2s0-.2.1-.2l5-2.9h.2l4.9 2.9c.1 0 .1.1.1.2s0 .2-.1.2l-4.9 2.9c-.1 0-.1 0-.1 0zm-4.5-3.1 4.5 2.6 4.4-2.6-4.4-2.6z"/><path d="m178.2 175.6c-.1 0-.2-.1-.2-.2v-1.4c0-.1.1-.2.2-.2s.2.1.2.2v1.4c0 .1-.1.2-.2.2z"/><path d="m178.2 175.6h-.1l-5-2.9c-.1 0-.1-.1-.1-.2v-1.4c0-.1.1-.2.2-.2s.2.1.2.2v1.3l4.7 2.7 4.7-2.7v-1.3c0-.1.1-.2.2-.2s.2.1.2.2v1.4c0 .1 0 .2-.1.2z"/><path d="m53.4 191.1h-.1l-4.9-2.9c-.1 0-.1-.1-.1-.2s0-.2.1-.2l4.9-2.9h.2l5 2.9c.1 0 .1.1.1.2s0 .2-.1.2l-5 2.9c-.1 0-.1 0-.1 0zm-4.5-3.1 4.4 2.6 4.5-2.6-4.5-2.6z"/><path d="m53.4 192.5c-.1 0-.2-.1-.2-.2v-1.4c0-.1.1-.2.2-.2s.2.1.2.2v1.4c0 .1-.1.2-.2.2z"/><path d="m53.4 192.5h-.1l-4.9-2.8c-.1 0-.1-.1-.1-.2v-1.5c0-.1.1-.2.2-.2s.2.1.2.2v1.3l4.7 2.7 4.7-2.7v-1.3c0-.1.1-.2.2-.2s.2.1.2.2v1.4c0 .1 0 .2-.1.2l-5 2.8z"/><path d="m122.4 223h-.1c-.1 0-.1-.1-.1-.2v-7.2c0-.1 0-.2.1-.2l6.2-3.6h.2s.1.1.1.2v7.1c0 .1 0 .2-.1.2l-6.2 3.6c0 .1-.1.1-.1.1zm.2-7.2v6.6l5.7-3.3v-6.6z"/><path d="m122.4 223h-.1l-12.4-7.2c-.1 0-.1-.1-.1-.2v-7.2c0-.1 0-.2.1-.2s.2 0 .2 0l12.4 7.2c.1.1.2.2.1.3s-.2.2-.3.1l-12-6.9v6.6l12.3 7.1c.1.1.2.2.1.3s-.2.1-.3.1z"/><path d="m128.6 212.3h-.1l-12.3-7.1-6.1 3.5c-.1.1-.3 0-.3-.1s0-.3.1-.3l6.2-3.6h.2l12.4 7.1c.1.1.2.2.1.3 0 .1-.1.2-.2.2z"/><path d="m160.1 216.3c-.1 0-.2 0-.2-.1-.1-.1 0-.3.1-.3l92.9-53.7c.4-.2.6-.6.6-1.1s-.2-.9-.6-1.1l-21.4-12.4c-.6-.3-1.4-.1-1.7.5s-.1 1.4.5 1.7l.9.5 18.2 10.5c.1 0 .1.1.1.2s0 .2-.1.2l-16.6 9.6c-.1 0-.2 0-.2 0l-19.2-11.1c-.6-.4-1.4-.1-1.7.5-.3.5-.2 1 .1 1.4l.3.3 17.7 10.2c.1 0 .1.1.1.2s0 .2-.1.2l-69.6 40.2c-.1.1-.3 0-.3-.1s0-.3.1-.3l69.2-39.9-17.4-10c-.2-.1-.4-.2-.5-.4-.5-.5-.5-1.4-.2-2 .5-.8 1.6-1.1 2.4-.6l19.1 11 16.1-9.3-18.7-10.8c-.4-.2-.7-.6-.8-1.1s-.1-.9.2-1.3c.5-.8 1.6-1.1 2.4-.6l21.4 12.4c.5.3.9.9.9 1.5s-.3 1.2-.9 1.5z"/><path d="m196 156.3c-.1 0-.3-.1-.3-.2v-.1-64.6l-2.4 1.4c-.1.1-.3 0-.3-.1-.1-.1 0-.3.1-.3l2.8-1.6h.2s.1.1.1.2v65c.1.1 0 .3-.2.3z"/><path d="m193.2 157.9c-.1 0-.2 0-.2-.1-.1-.1 0-.3.1-.3l2.8-1.6c.1-.1.3 0 .3.1s0 .3-.1.3l-2.8 1.6c0-.1-.1 0-.1 0z"/><path d="m193.2 157.9h-.1l-62.1-35.9c-.1-.1-.2-.2-.1-.3s.2-.2.3-.1l61.7 35.6.1-64.5-77.4-44.6v40.6c0 .1-.1.2-.2.2-.1 0-.2-.1-.2-.2v-41c0-.1 0-.2.1-.2h.2l77.9 44.9c.1 0 .1.1.1.2l-.1 65.1c0 .1 0 .2-.1.2 0-.1-.1 0-.1 0z"/><path d="m196 91.2h-.1l-77.7-45c-.1-.1-.2-.2-.1-.3s.2-.2.3-.1l77.7 45c.1.1.2.2.1.3 0 .1-.1.1-.2.1z"/><path d="m115.3 47.9c-.1 0-.2-.1-.2-.1-.1-.1 0-.3.1-.3l3-1.7c.1-.1.3 0 .3.1.1.1 0 .3-.1.3l-3 1.7s0 0-.1 0z"/><path d="m130.7 66h-.1l-7.2-4.2c-.1-.1-.2-.2-.1-.3s.2-.2.3-.1l7.2 4.2c.1.1.2.2.1.3 0 0-.1.1-.2.1z"/><path d="m130.7 70.9h-.1l-7.2-4.2c-.1-.1-.2-.2-.1-.3s.2-.2.3-.1l7.2 4.2c.1.1.2.2.1.3 0 0-.1.1-.2.1z"/><path d="m130.7 75.8h-.1l-7.2-4.2c-.1-.1-.2-.2-.1-.3s.2-.2.3-.1l7.2 4.2c.1.1.2.2.1.3 0 0-.1.1-.2.1z"/><path d="m210.3 121.1c-.1 0-.2-.1-.2-.2v-24.6c0-.1 0-.2.1-.2l12.7-7.4c.1-.1.3 0 .3.1s0 .3-.1.3l-12.6 7.3v24.3c.1.2 0 .4-.2.4z"/><path d="m227.3 116.2c-.1 0-.2-.1-.2-.2v-29l-3.9 2.2c-.1.1-.3 0-.3-.1s0-.3.1-.3l4.2-2.4h.2s.1.1.1.2v29.4s-.1.2-.2.2z"/><path d="m210.3 125.9h-.1c-.1 0-.1-.1-.1-.2v-4.9c0-.1.1-.2.2-.2s.2.1.2.2v4.5l16.6-9.6c.1-.1.3 0 .3.1s0 .3-.1.3l-17 9.8c.1 0 .1 0 0 0z"/><path d="m210.3 121.1c-.1 0-.2 0-.2-.1-.1-.1 0-.3.1-.3l12.6-7.3v-24.4c0-.1.1-.2.2-.2s.2.1.2.2v24.5c0 .1 0 .2-.1.2l-12.7 7.4s0 0-.1 0z"/><path d="m227.3 116.2h-.1l-4.2-2.5c-.1-.1-.2-.2-.1-.3s.2-.2.3-.1l4.2 2.5c.1.1.2.2.1.3 0 0-.1.1-.2.1z"/><path d="m230.9 108.6h-.1c-.1 0-.1-.1-.1-.2v-24.6c0-.1 0-.2.1-.2l12.7-7.4c.1-.1.3 0 .3.1s0 .3-.1.3l-12.6 7.4v23.9l12.4-7.1c.1-.1.3 0 .3.1s0 .3-.1.3l-12.7 7.4z"/><path d="m247.8 103.7c-.1 0-.2-.1-.2-.2v-29l-3.7 2.2v24.3c0 .1-.1.2-.2.2s-.2-.1-.2-.2v-24.5c0-.1 0-.2.1-.2l4.2-2.4h.2s.1.1.1.2v29.4c0 .1-.1.2-.3.2z"/><path d="m230.9 113.4h-.1c-.1 0-.1-.1-.1-.2v-4.9c0-.1.1-.2.2-.2s.2.1.2.2v4.5l16.6-9.6c.1-.1.3 0 .3.1s0 .3-.1.3z"/><path d="m247.8 103.7h-.1l-4.2-2.5c-.1-.1-.2-.2-.1-.3s.2-.2.3-.1l4.2 2.5c.1.1.2.2.1.3 0 0-.1.1-.2.1z"/><path d="m246.2 127.5c-.3 0-.6-.1-.9-.2l-.2-.1c-.1-.1-.1-.2-.1-.3.1-.1.2-.1.3-.1l.2.1c.5.3 1.1.2 1.9-.2 1.6-.9 2.8-3.1 2.8-4.9 0-.8-.2-1.4-.7-1.7l-.1-.1c-.1-.1-.2-.2-.1-.3s.2-.2.3-.1l.2.1c.6.4.9 1.1.9 2.1 0 2-1.4 4.3-3.1 5.3-.4.2-.9.4-1.4.4z"/><path d="m245.3 127.2h-.1l-6.5-3.8c-.7-.3-1-1.1-1-2.1 0-2 1.4-4.3 3.1-5.3.9-.5 1.8-.6 2.5-.1l6.5 3.8c.1.1.2.2.1.3s-.2.2-.3.1l-6.5-3.8c-.5-.3-1.2-.3-1.9.2-1.5.9-2.8 3.1-2.8 4.9 0 .8.3 1.4.8 1.7l6.5 3.8c.1.1.2.2.1.3-.3 0-.4 0-.5 0z"/><path d="m245.3 127.2c-.1 0-.1 0-.2-.1-.5-.4-.8-1.1-.8-2 0-2 1.4-4.3 3.1-5.3.8-.5 1.6-.5 2.2-.3.1.1.2.2.1.3s-.2.2-.3.1c-.5-.2-1.1-.1-1.8.2-1.5.9-2.8 3.1-2.8 4.9 0 .7.2 1.3.6 1.6.1.1.1.2 0 .4 0 .2 0 .2-.1.2z"/><path d="m203.2 74.3h-.1l-72.5-41.8c-.1 0-.1-.1-.1-.2s0-.2.1-.2l29-16.7h.2l8.6 5c.1.1.2.2.1.3s-.2.2-.3.1l-8.5-4.9-28.5 16.4 72 41.5 28.4-16.4-58.1-33.6c-.1-.1-.2-.2-.1-.3s.2-.2.3-.1l58.5 33.8c.1 0 .1.1.1.2s0 .2-.1.2l-28.9 16.7s0 0-.1 0z"/><path d="m159.7 26.5c-.1 0-.2-.1-.2-.2v-10.7c0-.1.1-.2.2-.2s.2.1.2.2v10.7c0 .1-.1.2-.2.2z"/><path d="m125.5 253.4h-.1l-29.6-17.1c-.1 0-.1-.1-.1-.2v-22.8c0-.1 0-.2.1-.2s.2 0 .2 0l29.6 17.1c.1 0 .1.1.1.2v22.8c0 .1 0 .2-.1.2 0-.1-.1 0-.1 0zm-29.4-17.6 29.1 16.8v-22.2l-29.1-16.8z"/><path d="m136.6 239.2h-.1c-.3-.2-.5-.6-.5-1.1 0-1.1.7-2.4 1.7-2.9.5-.3.9-.3 1.3-.1.1.1.2.2.1.3s-.2.2-.3.1c-.2-.1-.5 0-.8.1-.8.5-1.4 1.6-1.4 2.5 0 .4.1.6.3.8.1.1.1.2 0 .4-.1-.2-.2-.1-.3-.1z"/><path d="m137.1 239.3c-.2 0-.4 0-.5-.1s-.1-.2-.1-.4c.1-.1.2-.1.4-.1.2.1.5.1.9-.1.8-.5 1.5-1.6 1.5-2.5 0-.4-.1-.7-.3-.8-.1-.1-.1-.2-.1-.3.1-.1.2-.1.4-.1.4.2.5.6.5 1.2 0 1.1-.8 2.4-1.7 2.9-.4.2-.7.3-1 .3z"/><path d="m136.7 239.2h-.1-.1l-3.5-2c-.3-.1-.6-.5-.6-1.3 0-1.1.7-2.4 1.7-2.9.5-.3 1-.3 1.4-.1l3.6 2.1c.1.1.2.2.1.3s-.2.2-.3.1h-.1l-3.5-2c-.2-.1-.6-.1-.9.1-.8.5-1.4 1.6-1.4 2.5 0 .4.1.7.4.8l3.6 2c.1.1.1.2.1.3-.2.1-.3.1-.4.1z"/><path d="m150.8 231.6c-.1 0-.1 0-.2-.1-.3-.2-.4-.6-.4-1.1 0-1.1.7-2.4 1.7-2.9.5-.3.9-.3 1.3-.2.1 0 .2.2.1.3s-.2.2-.3.1c-.2-.1-.5 0-.8.1-.8.5-1.4 1.6-1.4 2.5 0 .4.1.6.3.8.1.1.1.2 0 .4-.2.1-.2.1-.3.1z"/><path d="m151.3 231.8c-.2 0-.4 0-.5-.1s-.2-.2-.1-.3.2-.2.3-.1c.2.1.5.1.9-.1.8-.5 1.5-1.6 1.5-2.5 0-.4-.1-.7-.3-.8-.1-.1-.1-.2-.1-.4.1-.1.2-.1.4-.1.3.2.5.7.5 1.2 0 1.1-.8 2.4-1.7 2.9-.4.2-.7.3-.9.3z"/><path d="m150.9 231.7h-.1-.1l-3.5-2c-.4-.2-.6-.6-.6-1.2 0-1.1.7-2.4 1.7-2.9.5-.3 1-.3 1.4-.1l3.6 2c.1.1.2.2.1.3s-.2.2-.3.1h-.1l-3.5-2c-.2-.2-.6-.1-.9.1-.8.5-1.4 1.6-1.4 2.5 0 .4.1.7.4.8l3.6 2c.1.1.2.2.1.3-.3 0-.3.1-.4.1z"/><path d="m125.5 253.4c-.1 0-.2 0-.2-.1-.1-.1 0-.3.1-.3l34.5-19.9v-22.2l-34.2 19.8c-.1.1-.3 0-.3-.1s0-.3.1-.3l34.6-20h.2s.1.1.1.2v22.8c0 .1 0 .2-.1.2l-34.6 19.9c-.1-.1-.2 0-.2 0z"/><path d="m95.8 213.4c-.1 0-.2 0-.2-.1-.1-.1 0-.3.1-.3l34.6-20h.2l29.6 17.1c.1.1.2.2.1.3s-.2.2-.3.1l-29.5-17-34.4 19.9c-.1 0-.1 0-.2 0z"/><path d="m118.1 237.7h-.1l-14.8-8.6c-.1 0-.1-.1-.1-.2v-5.7c0-.1 0-.2.1-.2h.2l2.5 1.4 12.3 7.1c.1 0 .1.1.1.2v5.7c0 .1 0 .2-.1.2 0 .1-.1.1-.1.1zm-14.6-9 14.3 8.3v-5.1l-12.2-7-2-1.2v5z"/><path d="m103.3 229.1c-.1 0-.2 0-.2-.1-.1-.1 0-.3.1-.3l2.4-1.4v-2.7c0-.1.1-.3.2-.3s.2.1.2.2v2.9c0 .1 0 .2-.1.2l-2.5 1.4c0 .1-.1.1-.1.1z"/><path d="m118.1 234.5h-.1l-12.4-6.8c-.1-.1-.2-.2-.1-.3s.2-.2.3-.1l12.4 6.8c.1.1.2.2.1.3 0 0-.1.1-.2.1z"/><path d="m185 119.4h-.1l-14.8-8.7c-.1 0-.1-.1-.1-.2v-22.7c0-.1 0-.2.1-.2s.2 0 .2 0l14.8 8.6c.1 0 .1.1.1.2v22.8c0 .1 0 .2-.1.2zm-14.6-9.1 14.3 8.4v-22.2l-14.3-8.3z"/><path d="m25 149.9h-.1c-.1 0-.1-.1-.1-.2v-28.5c0-.1 0-.2.1-.2l34.7-20c.1-.1.2 0 .3 0 .1.1.1.2 0 .4 0 0 0 0-.1 0l-34.6 20v28l32.4-18.7c.2-.1.4 0 .4.2 0 .1-.1.2-.2.2l-32.7 18.9c0-.1-.1-.1-.1-.1z"/><path d="m85.8 86.3c-.1 0-.2 0-.2-.1-.1-.1 0-.3.1-.3l5.8-3.3c.1-.1.3 0 .3.1s0 .3-.1.3l-5.7 3.2c-.1 0-.1.1-.2.1z"/><path d="m202.8 167.1h-.1l-71.7-41.2c-.1-.1-.2-.2-.1-.3s.2-.2.3-.1l71.4 40.9v-79.3l-93.4-53.9v65.8c0 .1-.1.2-.2.2s-.2-.1-.2-.2v-66.3c0-.1 0-.2.1-.2s.2 0 .2 0l93.9 54.2c.1 0 .1.1.1.2v79.9c0 .1 0 .2-.1.2s-.1.1-.2.1z"/><path d="m102.8 76.5c-.1 0-.2 0-.2-.1-.1-.1 0-.3.1-.3l6.2-3.6c.1-.1.3 0 .3.1s0 .3-.1.3l-6.2 3.6c0-.1-.1 0-.1 0z"/><path d="m31.9 123.9c-.1 0-.2 0-.2-.1-.1-.1 0-.3.1-.3l24.9-14.3c.1-.1.3 0 .3.1s0 .3-.1.3l-24.9 14.3s0 0-.1 0z"/><path d="m32.7 124.4c-.1 0-.2 0-.2-.1-.1-.1 0-.3.1-.3l24.8-14.3c.1-.1.3 0 .3.1s0 .3-.1.3l-24.8 14.3c0-.1 0 0-.1 0z"/><path d="m32.7 130.5c-.1 0-.2-.1-.2-.2v-6.1c0-.1.1-.2.2-.2s.2.1.2.2v6.1c.1 0 0 .2-.2.2z"/><path d="m32.7 138.7h-.1l-.8-.5c-.1 0-.1-.1-.1-.2v-14.3c0-.1.1-.2.2-.2s.2.1.2.2v14.2l.7.4c.1.1.2.2.1.3 0 0-.1.1-.2.1z"/><path d="m57.5 110.1h-.1l-.7-.4c-.1-.1-.2-.2-.1-.3s.2-.2.3-.1l.7.4c.1.1.2.2.1.3 0 0-.1.1-.2.1z"/><path d="m32.7 138.7h-.1c-.1 0-.1-.1-.1-.2v-8.2c0-.1.1-.2.2-.2.1 0 .2.1.2.2v7.8l24.3-14v-14.2c0-.1.1-.2.2-.2s.2.1.2.2v14.3c0 .1 0 .2-.1.2l-24.8 14.3c.1 0 .1 0 0 0z"/><path d="m32.7 124.4h-.1l-.8-.5c-.1-.1-.2-.2-.1-.3s.2-.2.3-.1l.8.5c.1.1.2.2.1.3 0 0-.1.1-.2.1z"/><path d="m25 149.9h-.1l-6.1-3.5c-.1-.1-.2-.2-.1-.3s.2-.2.3-.1l6.1 3.5c.1.1.2.2.1.3s-.1.1-.2.1z"/><path d="m16.1 144.8h-.1l-15.8-9.1c-.1 0-.1-.1-.1-.2v-28.5c0-.1.1-.2.1-.2s.2 0 .2 0l24.7 14.3c.1.1.2.2.1.3s-.2.2-.3.1l-24.3-14v28l15.7 9c.1.1.2.2.1.3-.2-.1-.3 0-.3 0z"/><path d="m8.2 124.2h-.1l-3.8-2.2c-.1 0-.1-.1-.1-.2v-4.4c0-.1.1-.2.1-.2h.2l3.8 2.2c.1 0 .1.1.1.2v4.4c0 .1-.1.2-.1.2-.1 0-.1 0-.1 0zm-3.6-2.6 3.3 1.9v-3.8l-3.3-1.9z"/><path d="m8.2 124.2c-.1 0-.2 0-.2-.1-.1-.1 0-.3.1-.3l1.4-.8v-4.1l-3.6-2-1.4.8c-.1.1-.3 0-.3-.1-.1-.1 0-.3.1-.3l1.5-.9h.2l3.8 2.2c.1 0 .1.1.1.2v4.4c0 .1-.1.2-.1.2l-1.5.9c-.1-.1-.1-.1-.1-.1z"/><path d="m8.2 134.7h-.1l-3.8-2.2c-.1 0-.1-.1-.1-.2v-4.4c0-.1.1-.2.1-.2h.2l3.8 2.2c.1 0 .1.1.1.2v4.4c0 .1-.1.2-.1.2-.1 0-.1 0-.1 0zm-3.6-2.6 3.3 1.9v-3.8l-3.3-1.9z"/><path d="m8.2 134.7c-.1 0-.2 0-.2-.1-.1-.1 0-.3.1-.3l1.4-.8v-4.1l-3.6-2-1.4.8c-.1.1-.3 0-.3-.1-.1-.1 0-.3.1-.3l1.5-.9h.2l3.8 2.2c.1 0 .1.1.1.2v4.4c0 .1-.1.2-.1.2l-1.5.9c-.1-.1-.1-.1-.1-.1z"/><path d="m8.2 119.8c-.1 0-.2 0-.2-.1-.1-.1 0-.3.1-.3l1.5-.9c.1-.1.3 0 .3.1.1.1 0 .3-.1.3l-1.5.9c-.1 0-.1 0-.1 0z"/><path d="m22.5 114.3c-.1 0-.1 0 0 0-.1 0-.1 0-.1 0l-9.9-5.7c-.1 0-.1-.1-.1-.2v-11.5c0-.1 0-.2.1-.2s.2 0 .2 0l9.8 5.6 9.8-5.6h.2s.1.1.1.2v11.4c0 .1 0 .2-.1.2l-9.9 5.7c0 .1-.1.1-.1.1zm.2-11.5v10.8l9.4-5.4v-10.9zm-9.8 5.4 9.4 5.4v-10.8l-9.4-5.4z"/><path d="m32.4 97.2h-.1l-9.8-5.6-9.8 5.6c-.1.1-.3 0-.3-.1s0-.3.1-.3l9.9-5.7h.2l9.9 5.7c.1.1.2.2.1.3-.1 0-.1.1-.2.1z"/><path d="m47.2 100c-.1 0-.1 0 0 0-.1 0-.1 0-.1 0l-9.9-5.7c-.1 0-.1-.1-.1-.2v-11.5c0-.1 0-.2.1-.2s.2 0 .2 0l9.8 5.6 9.8-5.6h.2s.1.1.1.2v11.4c0 .1 0 .2-.1.2l-9.9 5.7c0 .1-.1.1-.1.1zm.2-11.5v10.8l9.4-5.4v-10.8zm-9.8 5.4 9.4 5.4v-10.8l-9.4-5.4z"/><path d="m37.3 82.9c-.1 0-.2 0-.2-.1-.1-.1 0-.3.1-.3l9.9-5.7h.2l9.9 5.7c.1.1.2.2.1.3s-.2.2-.3.1l-9.8-5.6-9.8 5.6s0 0-.1 0z"/><path d="m63.7 81h-.1l-1.7-1c-.1 0-.1-.1-.1-.2v-11.4c0-.1 0-.2.1-.2h.2l4.1 2.4c.1.1.2.2.1.3s-.2.1-.3.1l-3.8-2.2v10.8l1.6.9c.1.1.2.2.1.3 0 .2-.1.2-.2.2z"/><path d="m62 68.6c-.1 0-.2 0-.2-.1-.1-.1 0-.3.1-.3l5.5-3.1c.1-.1.3 0 .3.1.1.1 0 .3-.1.3h-.1l-5.4 3.1s0 0-.1 0z"/><path d="m8.2 130.3c-.1 0-.2 0-.2-.1-.1-.1 0-.3.1-.3l1.5-.9c.1-.1.3 0 .3.1.1.1 0 .3-.1.3l-1.5.9c-.1 0-.1 0-.1 0z"/><path d="m148 98.7c-.3 0-.5-.1-.7-.2l-8-4.6c-.4-.2-.6-.5-.7-.9l-3-11.9-4.8 10.9c0 .1-.2.2-.3.1-.1 0-.2-.2-.1-.3l5.1-11.6c0-.1.1-.2.2-.1.1 0 .2.1.2.2l3.1 12.6c.1.3.2.5.5.6l8 4.6c.3.2.7.2 1 0l14.2-8.2h.2s.1.1.1.2v4.1l.7-.6c.1-.1.2-.1.3 0l1.1.4v-6c0-.4-.2-.7-.5-.9s-.7-.2-1 0l-15.5 8.9c-.1 0-.2 0-.2 0l-6.9-4c-.1 0-.1-.1-.1-.2l-3.9-15.7c-.1-.4-.5-.7-.9-.8-.4 0-.8.2-1 .6l-5.2 11.9-.2-.1-.2-.1 5.2-11.9c.3-.6.9-1 1.5-.9s1.2.5 1.3 1.1l3.9 15.6 6.7 3.9 15.3-8.8c.5-.3 1-.3 1.5 0 .5.2.7.7.7 1.3v6.3c0 .1 0 .2-.1.2s-.1.1-.2 0l-1.3-.5-1 .9c-.1.1-.2.1-.3 0-.1 0-.1-.1-.1-.2v-4.2l-13.8 8c-.3.2-.5.3-.8.3z"/><path d="m180.1 135.5h-.1c-.1 0-.1-.1-.1-.2v-4.1l-16.5-9.4c-.5-.3-.8-.8-.8-1.3v-15.7c0-.1 0-.1.1-.2l1.1-1 .4-6.5c0-.1.1-.2.2-.2.1 0 .2.1.2.2l.4 5.5.5 1.7v.1 15.2l14.3 8.2v-4.4c0-.1.1-.2.2-.2s.2 0 .3.1l8 8.8c.1.1.1.1.1.2s-.1.1-.1.2zm-17.1-30.7v15.6c0 .4.2.7.5.9l16.6 9.5c.1 0 .1.1.1.2v3.9l7.3-2.9-7.3-8v4.2c0 .1 0 .2-.1.2s-.2 0-.2 0l-14.8-8.5c-.1 0-.1-.1-.1-.2v-15.3l-.5-1.7-.2-2.1-.2 3.1c0 .1 0 .1-.1.2z"/><path d="m74.8 78.9c-4.4 0-7.3-1.1-8.4-1.6-.2-.1-.3-.2-.4-.3-.2-.2-.3-.5-.3-.8 0-.8-.1-2.9.2-5.4.2-2 .6-3.9 1.2-5.5.5-1.4 1.1-2.6 1.9-3.6 2.9-3.8 9.6-3.8 12.7-1.9.8.5 1.3 1 1.6 1.7.3.6.4 1.2.2 1.8-.4 1.5-2.1 2.6-3.5 3.2-.5.2-.9.8-.9 1.4l-.4 9.8c0 .1 0 .3-.1.4-.2.4-.6.7-1 .8-1-.1-1.9 0-2.8 0zm1.7-20c-2.6 0-5.4.9-7 2.9-.7 1-1.3 2.1-1.8 3.5-.6 1.6-1 3.4-1.2 5.4-.3 2.5-.3 4.6-.2 5.3 0 .2.1.3.2.5l.2.2c1.4.6 5.1 2 11 1.4.3 0 .5-.2.6-.4 0-.1.1-.2.1-.2l.4-9.8c0-.8.5-1.5 1.2-1.8 1-.5 2.8-1.4 3.2-2.8.1-.5.1-1-.2-1.5-.2-.5-.7-1-1.4-1.4-1.4-.8-3.2-1.3-5.1-1.3z"/><path d="m79.9 75.2c-.1 0-.2-.1-.2-.2s.1-.2.2-.3c.4 0 .8-.1 1.2-.2 2.7-.9 2.9-4.3 2.8-5.7 0-.3.2-.4.4-.4.1 0 .2-.1.2-.1 0-.1-.3-.3-.4-.4-.2-.2-.3-.3-.4-.5-.1-1.7-.5-3.3-.6-4.1 0-.1.1-.3.2-.3s.3.1.3.2c.2.8.5 2.4.6 4.1 0 0 .1.1.2.1.2.2.6.5.6.9 0 .3-.3.5-.5.6 0 0-.1 0-.1.1.1 3.2-1.1 5.4-3.1 6.1-.5 0-1 0-1.4.1z"/><path d="m80.7 79.1c-.2 0-.3-.1-.2-.3l.4-4.1c0-.1.1-.2.3-.2.1 0 .2.1.2.3l-.4 4.1c0 .1-.1.2-.3.2z"/><path d="m86.9 96.2h-.2c-.1-2.8-.5-7.3-1.1-10.1-.1-.7-.3-1.3-.4-1.7-.8-2.3-2.3-4-4.6-5.3-.7-.4-1.5-.7-2.2-.9-.1 0-.2-.2-.2-.3s.2-.2.3-.2c.8.2 1.6.6 2.3 1 2.4 1.3 4 3.2 4.8 5.5.1.4.3 1 .4 1.8.5 2.8 1 7.3 1.1 10.1z"/><path d="m71.4 143.2c-.6 0-1.3 0-2 0-2.7-.1-5.2-.5-7.2-1.1-3.3-1-4.9-2.3-4.8-4 0 0 0-2.9.1-7.2.2-7.8.8-19.3 1.9-29.6 1-9.4 2.4-16.2 4.1-20.4.7-1.9 1.5-3.2 2.4-4.1.1-.1.3-.1.4 0s.1.3 0 .4c-.8.8-1.6 2.1-2.3 3.9-1.6 4.2-3 11-4.1 20.3-1.1 10.3-1.7 21.8-1.9 29.6-.1 4.4-.1 7.2-.1 7.2-.1 1.4 1.5 2.6 4.5 3.5 2 .6 4.5 1 7.1 1.1 3.4.2 6.6-.1 8.9-.8 1.5-.4 3.3-1.3 3.4-2.7l.2-52.3c0-.1.1-.2.2-.2.1 0 .2.1.2.2l-.2 52.4c-.1 1.4-1.4 2.4-3.7 3.1-1.9.4-4.4.7-7.1.7z"/><path d="m73.3 160.2c-1.6 0-3.3-.4-3.9-1.3-.1-.2-.2-.5-.2-.8v-15.1c0-.1.1-.2.2-.2s.2.1.2.2v15.1c0 .2 0 .3.1.5.7 1.1 3.7 1.4 5.6.8.6-.2 1.5-.6 1.5-1.3l.1-.7 1.3-15.2c0-.1.1-.2.3-.2.1 0 .2.1.2.3l-1.3 15.9c0 .8-.7 1.4-1.9 1.8-.6.1-1.4.2-2.2.2z"/><path d="m66.1 158.5c-.8 0-1.6-.1-2.3-.3-1-.3-1.6-.8-1.8-1.4 0-.1-.1-.3-.1-.4v-14.7c0-.1.1-.2.2-.2s.2.1.2.2v14.7.2c.1.4.6.8 1.4 1 1.8.5 4.3.3 5.3-.5.1-.1.3-.1.4 0s.1.3 0 .4c-.6.8-2 1-3.3 1z"/><path d="m100 92.4c-.1 0-.2-.1-.2-.2s.1-.2.2-.3c.6 0 1.2-.1 1.7-.2 2.5-.7 3.6-2.6 3.5-6.5 0-.1.1-.2.1-.2s.3-.2.3-.3-.1-.3-.4-.5c-.1 0-.1-.1-.1-.2 0-.5 0-1-.1-1.7 0-.4-.1-.8-.1-1.2s-.1-.7-.1-1c0-.1.1-.3.2-.3s.3.1.3.2c0 .3.1.7.1 1 0 .4.1.8.1 1.2.1.6.1 1.1.1 1.6.4.3.5.6.5.9s-.3.5-.5.6c0 2.7-.4 5.9-3.9 6.8-.4.2-1.1.3-1.7.3z"/><path d="m99.6 86.8c-.2 0-.4 0-.5-.1-.7-.2-1.1-.9-1.1-1.6 0-.9.8-1.7 1.7-1.7.1 0 .2.1.2.2 0 .4.1.8.3.9.2-.4.3-2.1.2-3.5 0-.1.1-.2.2-.2.2 0 .2.1.2.2 0 1 0 3.5-.4 3.9-.1.1-.2.1-.3.1-.5 0-.7-.7-.8-1.1-.5.1-1 .6-1 1.2 0 .5.3 1 .8 1.1.1 0 .3.1.4.1s.2.1.2.2.1.3-.1.3z"/><path d="m95.8 91.2c-.9 0-1.9-.2-2.7-.7-1.5-.9-2.1-2.8-1.9-5.6 0-.5.1-1.1.1-1.6v-.8c.2-2.2.4-4.1 1.9-5.4 1.6-1.4 4.5-1.8 9.6-1.3h.2.2c2 .2 3.2.7 3.6 1.5.2.5.1 1-.2 1.5-.3.4-.8.8-1.4 1.1-1.3.7-3 1-4.6 1-.4 0-.9 0-1.4-.1-.1 0-.2-.1-.2-.3s.1-.2.3-.2c.5.1 1 .1 1.4.1 1.5 0 3.1-.3 4.3-.9.6-.3 1-.6 1.2-1 .2-.3.4-.6.2-1s-.8-1-3.2-1.2c-.1 0-.2 0-.2 0-.1 0-.1 0-.2 0-4.9-.4-7.8 0-9.2 1.2-1.2 1-1.5 2.5-1.7 5v.8c0 .5-.1 1-.1 1.6-.2 2.6.4 4.3 1.7 5.1s3 .6 4.3.4c.5-.1.8-.3 1-.7.7-1.1.1-3.3.1-3.4 0 0 0 0 0-.1s.1-.2.2-.2.2.1.2.2c.1.3.6 2.5-.2 3.7-.3.5-.8.8-1.4.9-.5.3-1.2.4-1.9.4z"/><path d="m101.7 93.8c-.1 0-.2-.1-.2-.2v-1.7c0-.1.1-.3.2-.3s.2.1.2.2v1.7c.1.2 0 .3-.2.3z"/><path d="m93.3 93c-.1 0-.2-.1-.2-.2v-2.4c0-.1.1-.2.2-.2s.2.1.2.2v2.4c0 .1-.1.2-.2.2z"/><path d="m90.6 175.1c-1.3 0-2.6-.2-3.5-.6-.5-.3-.8-.6-.9-1 0-.1 0-.2 0-.2l-.5-47.5c0-.1.1-.2.2-.2.1 0 .2.1.2.2l.5 47.5v.1c.1.2.3.4.7.6 1.4.7 4.2.8 5.6.2.2-.1.4.1.4.2s-.1.2-.2.2c-.6.3-1.6.5-2.5.5z"/><path d="m85.1 126c-.5 0-1-.1-1.4-.2-.5-.1-.8-.3-.9-.3s-.1-.1-.1-.2c0-3.2.1-6.2.2-8.9.5-9.6 1.8-16.6 3.8-20.4.9-1.7 2-2.7 3.1-3 1.1-.2 2.3-.4 3.5-.5 3-.3 6 0 8.6.8 3.4 1 5.9 2.9 7.4 5.5 1 1.7 1.5 3.8 1.4 6.1l.5 9.9c0 .1-.1.3-.2.3s-.3-.1-.3-.2l-.5-9.9c0-2.3-.5-4.2-1.4-5.9-1.4-2.5-3.8-4.3-7.1-5.3-2.5-.8-5.4-1-8.4-.8-1.2.1-2.3.2-3.4.5-1 .2-2 1.1-2.8 2.7-1.9 3.7-3.2 10.6-3.7 20.1-.1 2.7-.2 5.6-.2 8.7.1 0 .3.1.6.2.4.1 1.1.2 2.1.1.1 0 .3.1.3.2s-.1.3-.2.3c-.4.1-.7.2-.9.2z"/><path d="m98 130.5c-3.6 0-7.4-.6-9.7-1.8-1.7-.8-2.6-1.9-2.6-3 0-.2-.6-15.1 1.8-25.4 0-.1.2-.2.3-.2s.2.2.2.3c-2.4 10.2-1.8 25.1-1.8 25.2v.1c0 1.2 1.3 2 2.3 2.5 4.7 2.3 14.3 2.3 17.1.1.1-.1.3-.1.4 0s.1.3 0 .4c-1.6 1.2-4.7 1.8-8 1.8z"/><path d="m97.4 177.6c-1.8 0-3.6-.5-4.3-1.1-.2-.2-.3-.4-.3-.6 0 0 0-.5 0-1.4-.1-10.7-.4-29.4-1.1-31.8-.5-1.7-.9-4.2-1.2-6 0-.1.1-.3.2-.3s.3.1.3.2c.3 1.8.7 4.3 1.1 6 .8 3.1 1.1 29 1.1 31.9v1.4c0 .1.1.2.1.2.8.8 4 1.4 6.3.6 1.2-.4 1.8-1 1.9-1.9 0-.1 0-.1 0-.1 0-.3 3.5-22.1 4.5-37 .2-2.9.3-5.5.3-7.6 0-.1.1-.2.2-.2.1 0 .2.1.2.2 0 2.1-.1 4.7-.3 7.6-1 14.9-4.5 36.8-4.5 37v.2c-.1 1-.9 1.8-2.3 2.3-.4.2-1.3.4-2.2.4z"/><path d="m97.4 183.7c-2 0-3.7-.9-4.5-1.4-.2-.1-.3-.3-.3-1.6 0-.2 0-.5 0-.8v-.1c0-.4 0-.8 0-1.2.1-1.2.1-2.3.1-2.3 0-.1.1-.2.3-.2.1 0 .2.1.2.3 0 0-.1 1.1-.1 2.3v1.2.1.7 1.2c1 .6 3.4 1.9 6 1 2-.7 8.3-2.8 8.8-4.4.1-.2.3-.8.3-1.4 0-.3-.1-.6-.2-.8l.2-.1-.2.1c-.9-1.2-2.1-1.1-3.5-1-.9.1-1.8.1-2.6-.2-.1 0-.2-.2-.1-.3s.2-.2.3-.1c.7.3 1.6.2 2.4.2 1.4-.1 2.8-.2 3.9 1.2 0 0 0 .1.1.1.2.3.3.6.3 1 0 .6-.2 1.3-.3 1.5-.5 1.6-5.2 3.4-9.2 4.7-.7.2-1.3.3-1.9.3z"/><path d="m97.3 182.3c-2.6 0-4.4-1.4-4.5-1.4-.1-.1-.1-.2 0-.4.1-.1.2-.1.4 0 0 0 1.8 1.4 4.4 1.3 2.5-.1 8.1-1.6 9.9-3.8.5-.6.6-1.1.5-1.7 0-.1.1-.3.2-.3s.3.1.3.2c.1.7-.1 1.4-.6 2.1-1.9 2.4-7.8 3.9-10.3 4-.1 0-.2 0-.3 0z"/><path d="m90.6 180.5c-1.8 0-3.4-.8-4.4-1.4h-.1c-.1-.1-.2-.2-.2-1.5 0-1.6.2-4.2.2-4.2 0-.1.1-.2.3-.2.1 0 .2.1.2.3 0 0-.2 2.6-.2 4.2 0 .8 0 1 .1 1.1 1.2.7 3.5 1.8 5.8 1 .2 0 .3-.1.5-.1.1 0 .3 0 .3.2s0 .3-.2.3c-.1 0-.3.1-.4.1-.7.1-1.3.2-1.9.2z"/><path d="m90.6 179.2c-2.6 0-4.3-1.3-4.4-1.4s-.1-.2 0-.4.2-.1.4 0c0 0 1.7 1.4 4.3 1.3.6 0 1.3-.1 2.1-.3.1 0 .3.1.3.2s-.1.3-.2.3c-.8.2-1.6.3-2.2.3-.2 0-.3 0-.3 0z"/><path d="m73.6 166.1c-2 0-3.6-.9-4.4-1.4-.2-.1-.3-.3-.3-1.6 0-.2 0-.3 0-.5 0-1.6.2-3.6.2-3.6 0-.1.1-.3.3-.2.1 0 .2.1.2.3 0 0-.1 2-.2 3.6v.5 1.2c1 .6 3.4 1.8 5.8 1 2-.7 8.1-2.7 8.6-4.3 0-.1.1-.6.1-1.2 0-.5 0-.9-.1-1.1-.4-1-1.5-1-3.1-.8-1.2.1-2.6.2-3.8-.3-.1 0-.2-.1-.2-.2 0-.2.2-.3.4-.2 1.1.5 2.4.4 3.5.3 1.5-.1 3-.3 3.6 1.1.1.2.1.8.1 1.2s0 1.1-.1 1.3c-.5 1.6-5.1 3.3-9 4.6-.3.2-1 .3-1.6.3z"/><path d="m73.9 164.3c-2.6 0-4.4-1.4-4.5-1.5s-.1-.2 0-.4c.1-.1.2-.1.4 0 0 0 1.8 1.5 4.4 1.4 2.8-.1 9.7-2.9 9.9-5.1 0-.1.1-.2.3-.2.1 0 .2.1.2.3-.1 2.7-7.6 5.4-10.3 5.5-.2 0-.3 0-.4 0z"/><path d="m66.4 163.9c-1.8 0-3.4-.8-4.4-1.4-.2-.1-.5-.3-.1-5.8 0-.1.1-.2.3-.2.1 0 .2.1.2.3-.2 2.3-.3 4.9-.2 5.4 1.1.7 3.4 1.8 5.8 1l1-.3c.1 0 .3 0 .3.2 0 .1 0 .3-.2.3l-1 .3c-.4.1-1.1.2-1.7.2z"/><path d="m66.7 162.1c-2.6 0-4.4-1.4-4.4-1.5-.1-.1-.1-.2 0-.4.1-.1.2-.1.4 0 0 0 1.8 1.5 4.4 1.4.6 0 1.4-.2 2.3-.4.1 0 .3 0 .3.2s0 .3-.2.3c-1 .3-1.8.4-2.4.4-.2 0-.3 0-.4 0z"/><path d="m134 185.7c-.1 0-.2-.1-.2-.2 0-.3-.1-.4-.1-.4-.5-1.2-1.5-1.2-2.8-1.1-1.2.1-2.6.2-4.1-.7-.1-.1-.2-.2-.1-.3s.2-.1.3-.1c1.3.8 2.7.7 3.8.6 1.4-.1 2.7-.2 3.3 1.4 0 .1.1.3.1.6.1.1 0 .2-.2.2z"/><path d="m122.3 193c-2.1 0-4-1-4.8-1.5-.2-.1-.3-.2-.3-1.1 0-.3 0-.8 0-1.4 0-.2 0-.4 0-.5.1-1.6.2-3.3.2-3.4s.1-.3.3-.2c.1 0 .2.1.2.3 0 0-.1 1.7-.2 3.3v.5 1.3c0 .4 0 .6.1.7 1 .6 3.7 2 6.4 1.1 1-.3 2.5-.9 4.1-1.5 4.1-1.6 5.2-2.6 5.4-3.2.1-.3.1-1.3.1-2 0-.1.1-.3.2-.3s.3.1.3.2c.1.7 0 1.8-.1 2.2-.3 1-2.2 2.2-5.7 3.5-1.6.6-3.2 1.2-4.2 1.5-.6.4-1.3.5-2 .5z"/><path d="m122.6 191c-2.9 0-5.1-1.6-5.2-1.7s-.1-.2 0-.4c.1-.1.2-.1.4 0 0 0 2.4 1.7 5.2 1.6 3.3-.1 10.7-2.7 11-5.1 0 0 0 0 0-.1s.1-.2.2-.2c.1 0 .2.1.2.2v.1c-.4 2.9-8.4 5.4-11.4 5.5-.2.1-.3.1-.4.1z"/><path d="m115.7 190.9c-1.5 0-3.2-.5-4.8-1.5h-.1c-.2-.1-.3-.3-.2-2.1.1-1.7.4-4 .4-4 0-.1.1-.2.3-.2.1 0 .2.1.2.3 0 0-.3 2.3-.4 4-.1 1.2 0 1.6 0 1.7 2.1 1.3 4.3 1.7 6.2 1.2.1 0 .3 0 .3.2s0 .3-.2.3c-.5 0-1.1.1-1.7.1z"/><path d="m116 188.9c-2.8 0-5-1.3-5.1-1.4s-.1-.2-.1-.3c.1-.1.2-.1.3-.1 0 0 2.4 1.4 5.1 1.3.3 0 .7 0 1.2-.1.1 0 .3.1.3.2s-.1.3-.2.3c-.5.1-.9.1-1.2.1-.1 0-.2 0-.3 0z"/><path d="m128.2 120.2c-.1 0-.1 0-.2-.1s-.1-.2 0-.4c0 0 1.1-1.2 3-1.9.9-.4 1.9-.5 3-.5h.1c4.1 0 18.2-3.6 22.9-8 .3-.4.5-.9.5-1.5 0-1.8-1.4-4.2-2.8-4.7-.4-.1-.7-.1-1 .1-.1.1-14 9.1-25.2 2.6-.2-.1-.8-.5-1.8-1-1.4-.7-2.9-1.4-3.8-1.8-.1 0-.2-.2-.1-.3s.2-.2.3-.1c1 .4 2.5 1 3.9 1.8 1 .5 1.7.9 1.9 1 10.9 6.3 24.5-2.5 24.7-2.6.4-.3.9-.3 1.4-.1 1.6.5 3.2 3.1 3.1 5.1 0 .7-.2 1.4-.7 1.8-4.8 4.6-19.3 8.2-23.3 8.2-1 0-2 .1-2.8.5-1.8.6-2.8 1.7-2.8 1.7-.2.2-.2.2-.3.2z"/><path d="m125.1 138.7c-5.5 0-13-1.4-15.2-3.3-.5-.4-.8-.9-.7-1.4 0 0 0-1.7.2-4.2.3-5.9.7-10.9 1.3-15 .4-3.3.9-6 1.5-7.8.5-1.7 1.4-3 2.7-3.8.1-.1.3 0 .3.1s0 .3-.1.3c-1.2.7-2 1.9-2.5 3.5-.6 1.9-1.1 4.5-1.5 7.8-.5 4.1-1 9.1-1.3 15-.1 2.6-.2 4.2-.2 4.2 0 .3.1.6.5.9 2.9 2.4 15.7 4.1 19.7 2.5.6-.2.9-.5 1-.9v-18.6c0-.1.1-.2.2-.2s.2.1.2.2v18.6c-.1.6-.5 1-1.3 1.3-1 .6-2.7.8-4.8.8z"/><path d="m121.5 186c-.1 0-.1 0 0 0-1.9 0-3.8-.4-3.8-1.6.3-10.2.6-30.1 0-31.8-.8-2.2-2.5-10.5-2.6-10.8 0-.1.1-.3.2-.3s.3.1.3.2 1.8 8.6 2.6 10.8 0 30.8 0 32c0 .6 1.3 1.1 3.2 1.1 2.5 0 5.2-.8 5.2-2.1 0 0 0-.1 0-.4l.3-2.7c.8-8.6 3.3-34.7 4-43.6 0-.1.1-.2.3-.2.1 0 .2.1.2.3-.6 8.9-3.1 35-4 43.6l-.3 2.7v.4c0 1.5-2.9 2.4-5.6 2.4z"/><path d="m115.7 185.6c-.4 0-.8 0-1.2-.1-.9-.1-1.7-.4-2.3-.7-.9-.5-1-1-1-1.4s0-.1 0-.2c0-.8-.1-3.1-.2-6.3-.2-5.8-.5-16.4-.5-22.6 0-3.2-.2-6.3-.3-9.4-.2-3.5-.3-6.7-.3-9.8 0-.1.1-.2.2-.2.1 0 .2.1.2.2-.1 3.1.1 6.3.3 9.8.1 3 .3 6.2.3 9.4 0 6.3.3 16.9.5 22.6.1 3.2.2 5.5.2 6.3v.3c-.1.6 1.2 1.3 2.8 1.5.8.1 1.6.1 2.2 0 .3-.1.9-.2 1-.6 0-.1.1-.2.3-.2.1 0 .2.1.2.3 0 .8-1.1 1.1-2.4 1.1z"/><path d="m154.9 103.2h-.1c-.1-.1-.2-.2-.1-.3s2.1-3.5 4.5-3.5c.1 0 .2.1.2.2s-.1.2-.2.2c-2.1 0-4.1 3.3-4.1 3.3-.1.1-.2.1-.2.1z"/><path d="m160 102h-.1c-.1-.1-.2-.2-.1-.3.1-.3.5-.8.9-1.3.2-.2.4-.5.5-.8.7-1 1-1.6 1-1.9-.1-.1-.1-.1-.2-.1-.7 0-2.1 1.7-2.6 2.2l-.3.3c-.3.4-.6.7-.8.9-.1.1-.2.1-.4 0-.1-.1-.1-.2 0-.4.2-.2.4-.5.8-.9l.3-.3c1.8-2 2.7-2.7 3.4-2.3.1.1.2.2.2.4.1.4-.2 1.1-1 2.3-.2.3-.4.5-.5.8-.4.5-.7 1-.8 1.3-.1 0-.2.1-.3.1z"/><path d="m158 108.2c-.1 0-.2 0-.2-.1-.1-.1 0-.3.1-.3.8-.5 3-1.9 3.2-3 0-.1 0-.3 0-.6 0-.5-.1-1.1.2-1.9.3-.9.1-2-.1-2.3-.1-.1 0-.3.1-.3s.3 0 .3.1c.2.4.5 1.7.1 2.8-.3.7-.2 1.3-.2 1.7v.7c-.3 1.7-3.4 3.3-3.5 3.4.1-.2 0-.2 0-.2z"/><path d="m126.9 105c-.2 0-.3-.1-.2-.3l.6-3.9c0-.1.1-.2.3-.2.1 0 .2.1.2.3l-.6 3.9c-.1.1-.2.2-.3.2z"/><path d="m126.8 101c-.1 0-.2-.1-.2-.2s.1-.3.2-.3c.2 0 .5 0 .7-.1 1.5-.2 2.7-.5 2.9-2.3.1-1.1.1-1.3.1-2.4 0-.1 0-.1.1-.2 0 0 .1-.1.2-.1s.3 0 .3-.1-.1-.2-.2-.3c-.2-.2-.4-.4-.4-.7v-.1c-.1-.7-.1-1.5-.2-2.2-.1-.9-.2-1.7-.2-1.7 0-.1.1-.3.2-.3s.3.1.3.2c0 0 .1.7.2 1.7.1.7.2 1.6.2 2.3v.1c0 .1.2.2.3.4.2.2.4.4.4.7s-.3.5-.6.6c0 1 0 1.2-.1 2.3-.3 2.4-2.1 2.6-3.4 2.8-.3-.2-.6-.2-.8-.1z"/><path d="m117.6 104.1c-.9 0-1.8-.1-2.6-.5-2-.9-2.9-2.9-2.6-6.1v-.3c.1-1.4.4-4.7 1.5-6.2.3-.4.6-1 .8-1.5.1-.3.3-.7.5-1 .3-.6.8-1.3 1.5-1.7.3-.2.6-.3.9-.4.1 0 .3-.1.4-.1.4-.1.6-.4.9-.6.2-.1.3-.3.5-.4.7-.5 1.4-.7 2-.7.7 0 1.5 0 2.2.1.2 0 .5 0 .7.1h.2c1.1.1 2.4.2 3.3 1 .2.2.4.4.7.5.5.4 1.1.8 1.5 1.4.1.1.2.3.3.4.4.8.5 1.5.4 2.2-.1.6-.5 1.2-1.1 1.8-.5.5-1 .8-1.7 1.1-.3.1-.4.4-.5.7-.1.4-.1.9-.1 1.2v.1c0 1.2-.2 2.2-.6 3.1-.1.1-.1.3-.2.5-.5 1.2-1.3 3.5-3.1 4.4-.5.2-1 .4-1.6.4-.2 0-.5.1-1 .1-1 .2-2.1.4-3.2.4zm4.2-19.1c-.1 0-.2 0-.3 0-.6 0-1.2.2-1.8.6-.2.1-.3.2-.5.4-.3.2-.6.5-1 .7-.1.1-.3.1-.4.2-.3.1-.6.2-.8.3-.6.3-1 1-1.3 1.5-.2.3-.3.6-.5.9-.3.5-.5 1.1-.9 1.6-1 1.4-1.3 4.6-1.4 6v.3c-.3 2.9.5 4.8 2.3 5.6 1.7.7 4 .4 5.3.1.4-.1.8-.1 1-.1.5 0 1-.1 1.4-.4 1.6-.9 2.4-3 2.8-4.1.1-.2.1-.4.2-.5.4-.8.5-1.8.5-2.9v-.1c0-.4 0-.9.1-1.4s.4-.9.8-1c.6-.3 1.1-.6 1.5-1 .6-.6.9-1.1 1-1.6.1-.5 0-1.1-.4-1.9 0-.1-.1-.2-.2-.3-.4-.5-.9-.9-1.4-1.3-.2-.2-.5-.4-.7-.5-.8-.6-1.9-.8-3-.8h-.2c-.2 0-.5 0-.7-.1-.3-.1-.9-.2-1.4-.2z"/><path d="m107.7 130.3c-.3 0-.6 0-.9 0-.6-.1-1.1-.1-1.1-.2-.1 0-.2-.1-.2-.2 0 0 0-.5 0-1.4 0-2-.2-19.4 0-26.9 0-.1.1-.2.3-.2.1 0 .2.1.2.3-.3 7.5 0 24.9 0 26.9v1.1c.2 0 .5.1.8.1.7.1 1.3 0 1.9 0 .2 0 .4-.1.6-.1.1 0 .3 0 .3.2s0 .3-.2.3-.5.1-.7.1-.6 0-1 0z"/><path d="m85.8 133.6c-.6 0-.9-1.2-1.4-3.9-.1-.3-.1-.6-.2-.9-.2-1.2-.5-1.9-.6-2.5-.1-.3-.1-.5-.1-.6s.1-.3.2-.3.3.1.3.2.1.3.1.6c.1.5.4 1.3.6 2.5.1.3.1.6.2.9.2 1.2.7 3.3 1 3.5.1 0 .2.1.2.2s-.1.3-.3.3z"/><path d="m106.7 137.9c-.2 0-.3-.1-.3-.3 0-.1.1-.3.3-.2.3-.2.7-2.4 1-3.5.1-.3.1-.6.2-.9.2-1.1.4-1.9.6-2.4.1-.3.1-.5.1-.6 0-.1.1-.2.2-.2.1 0 .2.1.2.2v.1c0 .1-.1.3-.2.6-.1.5-.3 1.3-.6 2.4-.1.3-.1.6-.2.9-.4 2.7-.7 3.9-1.3 3.9z"/><path d="m105.3 82.5s-.1 0-.2 0c-.1-.1-.1-.2 0-.4 1.3-1.6 1.1-2.9 1-3.1 0-.1.1-.3.2-.3s.3.1.3.2c.1.3.3 1.8-1.1 3.5 0 .1-.1.1-.2.1z"/><path d="m202.8 167.1c-.1 0-.2 0-.2-.1-.1-.1 0-.3.1-.3l8.6-5c.1-.1.3 0 .3.1s0 .3-.1.3l-8.6 5c0-.1 0 0-.1 0z"/><path d="m214.4 160.4c-.1 0-.2 0-.2-.1-.1-.1 0-.3.1-.3l16.7-9.6c.1-.1.3 0 .3.1s0 .3-.1.3l-16.7 9.6z"/><path d="m234.1 149.1c-.1 0-.2 0-.2-.1-.1-.1 0-.3.1-.3l19.6-11.3v-79.1l-50.6 29c-.1.1-.3 0-.3-.1s0-.3.1-.3l51-29.2h.2s.1.1.1.2v79.7c0 .1 0 .2-.1.2z"/><path d="m253.9 58h-.1l-94.7-53.6-50 28.6c-.1.1-.3 0-.3-.1s0-.3.1-.3l50.1-28.7h.2l94.8 53.6c.1.1.2.2.1.3s-.2.2-.2.2z"/><path d="m129.7 94.4c-.2 0-.3-.2-.3-.4s.1-.4.3-.4.3.2.3.4-.1.4-.3.4zm0-.5c-.1 0-.2.1-.2.1s.1.1.2.1.2-.1.2-.1-.1-.1-.2-.1z"/><path d="m82.7 67.4c-.2 0-.3-.2-.3-.4s.1-.4.3-.4.3.2.3.4-.1.4-.3.4zm0-.5c-.1 0-.2.1-.2.1 0 .1.3.2.3 0 .1 0 0-.1-.1-.1z"/><path d="m103.7 84c-.3 0-.6-.1-.6-.1-.1 0-.2-.2-.2-.3s.2-.2.3-.2c.2.1.8.1 1.1-.1.1-.1.3-.1.4 0s.1.3 0 .4c-.4.3-.7.3-1 .3z"/><path d="m104.5 87.6c-.3 0-.5-.3-.5-.6s.2-.6.5-.6.5.3.5.6-.2.6-.5.6zm0-.6v.2s0-.1 0-.2z"/><path d="m82.1 118-.2-.2-.1-.2h.1c.2-.1.9-.4.9-1.1 0-.1.1-.2.3-.2.1 0 .2.1.2.3 0 .8-.9 1.2-1.2 1.4z"/><path d="m222.4 63.2c-5-1.8-12.6-5.9-15-8.4-3.3-3.3-10.4-7.2-19.4-11.8-2.6-1.4-5.6-3.5-8.6-5.5-3-2.1-5.9-4.1-8.1-5.2-3.7-1.8-7.2-3.6-9.3-4.8-1-.6-1.9-1-2-1.1-.1 0-.2 0-.3 0-1.6.1-3 .9-4.7 1.9-.9.5-1.9 1.1-3 1.6s-2.4 1-3.5 1.4c-1.7.6-3.4 1.2-4.6 2-1.1.7-2 1.4-2.8 1.9-1 .7-1.7 1.2-2.5 1.6-.1.1-.3 0-.3-.1-.1-.1 0-.3.1-.3.8-.4 1.5-.9 2.4-1.6.8-.6 1.7-1.2 2.8-1.9 1.3-.8 2.9-1.4 4.7-2.1 1.2-.4 2.4-.9 3.5-1.4s2-1.1 3-1.6c1.7-1 3.2-1.9 4.9-2h.4c.1 0 .4.1 2.2 1.1 2.1 1.1 5.6 3 9.2 4.8 2.2 1.1 5.1 3.1 8.2 5.2 2.9 2.1 6 4.2 8.5 5.5 9 4.7 16.2 8.6 19.5 12 2.2 2.2 9.4 6.3 14.8 8.3.1.1.2.2.1.3 0 .2-.1.2-.2.2z"/></g></svg>