<?xml version="1.0" encoding="UTF-8"?> <!-- Generator: Adobe Illustrator 23.0.1, SVG Export Plug-In . SVG Version: 6.00 Build 0) --> <svg xmlns="http://www.w3.org/2000/svg" xmlns:xlink="http://www.w3.org/1999/xlink" version="1.1" id="Layer_1" x="0px" y="0px" viewBox="0 0 180 128" style="enable-background:new 0 0 180 128;" xml:space="preserve"> <style type="text/css"> .st0{fill:#FFFFFF;} .st1{fill:#EAE9E8;} .st2{fill:none;} .st3{fill:#424242;} .st4{fill:#3D3D3D;} </style> <path class="st0" d="M32.6,24.2c-0.9,0.7-1.8,1.4-2.8,2.1c-1.2,0.8-2.3,1.3-3.4,1.5c0.1-0.1,0.2-0.3,0.2-0.5c0.5-0.9,0.9-2,1.4-3.3 h0.1C28.1,24.1,29.8,24,32.6,24.2z"></path> <path class="st0" d="M83.8,87.4c-0.1,0.2-0.3,0.4-0.4,0.6c-1.6,2.6-3.2,4.9-4.8,6.9l0,0c-0.1,0.1-0.2,0.3-0.4,0.4l0,0 c-2.9,3.4-6,5.5-9.1,5.5c-0.9,0-1.8-0.2-2.8-0.6c-2.5-1-4.1-2.6-4.9-4.7s-0.7-4.4,0-7.1c1.4,0.7,3,1.5,4.6,2.2l0,0 c-0.2,1.2-0.2,2.3,0.1,3.1c0.2,0.5,0.6,1.3,2.1,1.9c1.6,0.6,3.3-0.4,4.8-1.8c1.8-1.7,3.2-4,4-5.2c1.2-1.7,2.3-3.3,3.5-5 c2.2-3.1,4.6-6.1,7.5-8.6c3.4-3,7.2-5.5,11.2-7.6c9.1-4.9,19.2-8,29.4-9.7c17.8-2.9,36.6-1.6,53.5,5.1c1.3,0.5,1.9,2,1.4,3.2 c-0.5,1.3-2,1.9-3.2,1.4C145,53.5,96.6,65.8,83.8,87.4C83.8,87.3,83.8,87.4,83.8,87.4z"></path> <path class="st0" d="M86.9,99.1c-1,2,0,5.3-2,8.5c-1.3,2.1-6.2,3-6.7-0.6l0,0c0-0.2,0-0.4,0-0.6l0,0c0-0.8,0.1-2.3,0.1-3.9 c0-1.5,0-3.1,0-4.5c0-1,0-1.9,0-2.6l0,0c0.1-0.1,0.2-0.3,0.4-0.4l0,0c2.1-1.1,4.3-4.3,4.8-6.9c0.1-0.2,0.3-0.4,0.4-0.6 c1.4,0.1,3.3,0.5,4.5,1.6l0,0c0.5,0.2,1,0.5,1.4,0.9C91.8,92,87.9,97.1,86.9,99.1z"></path> <path class="st0" d="M79.8,31.9c1.9,1.2,4.1,3.7,3.9,8.8c-0.4,12.7-6.6,25-11.6,35c-0.4,0.8-0.8,1.6-1.2,2.4c-1.5-1-3-1.9-4.2-2.8 c0.3-0.6,0.6-1.2,0.9-1.9c4.8-9.5,10.7-21.4,11-32.9c0.1-3.4-1.2-4.2-1.6-4.5c-1.6-1-4.4-0.9-7.4-0.3c-0.2-0.5-0.5-1-0.7-1.5 c-0.6-1.1-1.3-2.1-2.1-3l0,0C71.3,30.2,76.3,29.7,79.8,31.9z"></path> <path class="st1" d="M80.3,48.3c-1.8,9.8-6.6,17-12,30.3c-1-0.6-0.7-2.6-1.6-3.2c0.3-0.6,0.6-1.2,0.9-1.9c4.8-9.5,10.7-21.4,11-32.9 c0.1-3.4-1.2-4.2-1.6-4.5c-1.6-1-4.4-0.9-7.4-0.3c-0.2-0.5-0.5-1-0.7-1.5c-0.2-0.3-0.4-0.6-0.6-1c0,0,2.3-0.5,3.7-0.7 C77.5,32.1,83.1,33.4,80.3,48.3z"></path> <path class="st1" d="M83.8,87.3c0,0,0,0.1-0.1,0.1c-0.1,0.2-0.3,0.4-0.4,0.6c-1.6,2.6-3.2,4.9-4.8,6.9c-0.1,0.1-0.2,0.3-0.4,0.4 c-2.9,3.4-6,5.5-9.1,5.5c-0.9,0-1.8-0.2-2.8-0.6c-2.5-1-4.1-2.6-4.9-4.7c-0.6-1.6-0.6-4,0-7.1c0.1,0.5,1,0.1,1.2,0.6 c0.8,2.1-1.6,8.2,5.9,9.3c6.9,1,10.9-7.6,14-12.3c2-3,7.2-9.6,10.3-11.3c7.8-4.3,15.5-5.8,4.5-0.2C92.2,77,85.8,83.9,83.8,87.3z"></path> <path class="st0" d="M83.4,88.1c-0.6,2.6-2.7,5.7-4.8,6.9C80.2,93,81.8,90.7,83.4,88.1z"></path> <path class="st0" d="M78.2,106.4c0,0.2,0,0.4,0,0.6C78.2,106.8,78.1,106.6,78.2,106.4z"></path> <path class="st0" d="M69.7,35.8c1.9,4.4,1.7,9.2-0.1,13.4l0,0l-2.4,1.4l0,0c0-0.5-0.1-1.1-0.2-1.7c0.4-0.4,0.5-0.8,0.4-1.1 c0,0-2.6-13-14.7-20.3l3.1-1.7c4.2,0.4,8.3,2.3,11.2,5.6c0.8,0.9,1.5,1.9,2.1,3C69.2,34.8,69.5,35.3,69.7,35.8z"></path> <path class="st0" d="M67.1,50.6l2.4-1.4c-0.6,1.5-1.5,2.9-2.6,4.1C67.2,52.6,67.2,51.7,67.1,50.6L67.1,50.6z"></path> <path class="st0" d="M67.3,47.8c0.2,0.3,0,0.7-0.4,1.1c-0.5,0.5-1.2,1-2,1.5l-0.1-0.1c-5.3-21.2-23.7-25.3-32.3-26 c1.2-1,2.2-1.9,3.2-2.8c2.2,0.6,5.1,1.5,9,2.6c2,0.6,3.8,1.3,5.5,2.1c0.8,0.4,1.6,0.8,2.3,1.3C64.7,34.7,67.3,47.8,67.3,47.8z"></path> <path class="st0" d="M61.2,57.4c-1.1,0-1-0.4-0.4-2.4c0.1-0.3,0.2-0.7,0.3-1.1c0.2-1,0.4-2.2,0.4-2.2l0,0c0.9-0.1,2.2-0.6,3.4-1.3 c0.8-0.5,1.5-1,2-1.5c0.1,0.6,0.2,1.2,0.2,1.7c0.1,1.1,0,2-0.1,2.8c-0.6,2.7-2.5,3.7-3.5,5c-1,1.2-2.8,1.8-3.9,1.9 c-0.6,0.1-1.1,0-1.2-0.3c-0.2-0.7,1.8-1.3,2.1-1.6c0.1-0.1,0.2-0.2,0.3-0.3C60.9,57.8,61.2,57.4,61.2,57.4z"></path> <path class="st1" d="M59.5,60.2c0.5,0,1-0.1,1.5-0.3c1.5-1.5,2.7-3,3.3-5.3c0.3-1.4,0.5-2.8,0.5-4.1c-1.1,0.6-2.4,1.1-3.2,1.2l0,0 c0,0-0.2,1.2-0.4,2.2c-0.1,0.4-0.2,0.8-0.3,1.1c-0.6,1.9-0.7,2.4,0.4,2.4c0,0-0.3,0.3-0.5,0.6c-0.1,0.1-0.2,0.2-0.3,0.3 c-0.3,0.3-2.3,0.9-2.1,1.6C58.4,60.2,58.9,60.3,59.5,60.2z"></path> <path class="st0" d="M35.7,33.5l-2.1,1.1l-3.2,1.8l-7.3,4l0.7,1.4c-3.8,0.6-5.2-2-5.6-4.7c-1.8,1.8-4.4,3.8-7.5,5 c-6.6,2.4-9.6-13-9.6-13c-0.1-0.4,0-0.7,0.1-1c0.4-1.1,1.7-1.8,2.9-2v0.1L7.5,33l0.1,0.1c0.6-0.5,1.2-1.1,1.8-1.6 c3.1-2.7,6.7-5.6,8.8-6.6l0,0c0.4,0,0.7,0,1.1-0.1c0,0,0.1,0.2,0.2,0.4c0.3,0.7,0.9,2.1,1.5,3.2c0.3,1.4,2.7,4.3,5.5-0.5 c1-0.2,2.2-0.6,3.4-1.5c1-0.7,2-1.5,2.8-2.1c8.6,0.7,27,4.8,32.3,26l0.1,0.1c-1.1,0.7-2.5,1.2-3.4,1.3c-0.5,0.1-0.9,0-1-0.3 c0,0-3.2-7.4-6.8-11.2c-2-2.1-8.6-4.2-14-5.6C38.2,34.2,36.9,33.8,35.7,33.5z"></path> <path class="st0" d="M39.7,34.5c5.4,1.5,12,3.5,14,5.6c3.6,3.8,6.8,11.2,6.8,11.2c0.1,0.3,0.5,0.4,1,0.3l0,0c0,0-0.2,1.2-0.4,2.2 l0,0L48.2,61l0,0L33.6,34.5l2.1-1.1C36.9,33.8,38.2,34.2,39.7,34.5z"></path> <path class="st0" d="M60.8,55.1c-0.6,1.9-0.7,2.4,0.4,2.4c0,0-0.3,0.3-0.5,0.6l-6.5,3.6l-4.4,2.4l-0.2-0.3l-1.4-2.6l0,0L61.1,54l0,0 C61,54.4,60.9,54.8,60.8,55.1z"></path> <path class="st2" d="M35.5,33.6c4.8,4.1,14.9,6.4,17.7,8.8c3.3,2.8,3.1,9.6,5.9,11.4c0,0.1,0,0.3,0,0.4c0,0.8-0.3,1.9-0.3,2.2 c0,0.3,0.1,0.8,0.1,1.1c0,1-2.3,2-3.5,3.3c-0.2,0.2-0.4,0.4-0.5,0.6"></path> <path class="st1" d="M60.8,55.1c-0.6,1.9-0.7,2.4,0.4,2.4c0,0-0.3,0.3-0.5,0.6L55.5,61c1.2-1.3,3.5-2.3,3.5-3.3 c0-0.3-0.1-0.8-0.1-1.1c0-0.3,0.3-1.4,0.3-2.2c0-0.1,0-0.3,0-0.4c-2.8-1.8-2.6-8.6-5.9-11.4c-2.8-2.3-13-4.7-17.7-8.8l0.1-0.1 c1.2,0.3,2.6,0.6,4,1c5.4,1.5,12,3.5,14,5.6c3.6,3.8,6.8,11.2,6.8,11.2c0.1,0.3,0.5,0.4,1,0.3l0,0c0,0-0.2,1.2-0.4,2.2 C61,54.4,60.9,54.8,60.8,55.1z"></path> <path class="st1" d="M64.1,34.1c-2.2-2.2-4.8-3-7.3-3.6c8.5,7.4,10.5,17.2,10.5,17.2c0.2,0.3,0,0.7-0.4,1.1c0.1,0.6,0.2,1.2,0.2,1.7 c0.1,1.1,0,2-0.1,2.8c1.1-1.2,2-2.6,2.6-4.1l0,0C70.2,47.9,69.9,39.9,64.1,34.1z"></path> <path class="st0" d="M55.7,25.7l-3.1,1.7c-0.7-0.5-1.5-0.9-2.3-1.3C52.1,25.7,53.9,25.5,55.7,25.7z"></path> <path class="st0" d="M48.9,96.5c0,0,2.3-0.2,4.2,1.1l2,1.3c0,0,1,1.4-0.6,4.2s-2.3,4.2-2.7,6.9s-0.7,5.9-4.6,6.2s-2.6-5.5-2.6-5.5 l0.3-9.4L48.9,96.5"></path> <path class="st1" d="M45.5,115.8c0.2-0.2,0.5-0.5,0.9-0.6c2.8-1.2,2.1-4.7,2.4-7.3c0.1-1.1,0.2-2.3,0.5-3.4c0.4-1.3,2.4-4,1.4-5.5 c-0.5,2-3.5,5-4.6,4l-1-0.9l-0.3,0.3c0,0.5,0,1.4,0,2.5c0,0.7,0,1.5-0.1,2.2c-0.1,2.5-0.2,5.3-0.2,6.4v0.2c0,0.1,0,0.2,0,0.4 C44.5,114.9,44.9,115.5,45.5,115.8z"></path> <path class="st1" d="M49.2,96.5l1.2,1.2c1.5,1.2-3,6.5-4.4,5.3l-1-0.9l-1-1c1.9-0.9,3.8-2.9,4.9-4.9L49.2,96.5z"></path> <path class="st1" d="M49.2,96.5l1.2,1.2c1.5,1.2-3,6.5-4.4,5.3l-1-0.9l-1-1c1.9-0.9,3.8-2.9,4.9-4.9L49.2,96.5z"></path> <path class="st1" d="M82,107.5c2.5-1-0.3-9.3-0.2-11.5s1.5-5.2,1.4-7.6c-0.6,2.5-2.7,5.5-4.8,6.6l0,0c-0.1,0.1-0.2,0.3-0.4,0.4l0,0 c0,0.6,0,1.5,0,2.6c0,1.4,0,3,0,4.5c0,1.6,0,3.1-0.1,3.9l0,0c0,0.2,0,0.4,0,0.6l0,0c0.2,1.3,1,2,2,2.3 C80.5,108.5,81.1,107.8,82,107.5z"></path> <polygon class="st0" points="49.6,63.7 49.8,64 46.6,65.8 30.4,36.4 33.6,34.7 48.2,61.1 "></polygon> <polygon class="st3" points="46.9,17.8 40.5,20 40.3,19.9 46.4,17.8 43.9,6.1 44.4,6.2 "></polygon> <polygon class="st0" points="43.9,6.1 46.4,17.8 40.3,19.9 39.9,17.7 38.5,10.3 38.1,8.4 "></polygon> <path class="st1" d="M40.7,11.9c1.4-1.3,3.4-2.7,3.5-4.8L44,6l-2.4,0.9c-0.3,1-0.6,2-1.3,2.9c-0.5,0.6-1.1,1.1-1.6,1.7l0.4,2 C39.6,13,40.1,12.5,40.7,11.9z"></path> <path class="st1" d="M43.7,17c0.7-1,1.3-2.1,1.9-3.2l-0.5-2.2c-0.6,0.7-1.3,1.3-1.9,1.9c-1.3,1.2-2.4,2.4-3.4,3.8l0.1,0.5l0.4,2.2 l1.1-0.4C41.9,18.5,43,17.9,43.7,17z"></path> <path class="st0" d="M44.4,113.7c0,0.1,0,0.2,0,0.4C44.4,114,44.4,113.8,44.4,113.7z"></path> <path class="st3" d="M38.8,56.5c0.5,1,0.2,2.2-0.8,2.7l0,0l0,0c-2.3,1.1-4-2.4-1.8-3.6h0.1C37.2,55.3,38.3,55.6,38.8,56.5z"></path> <path class="st3" d="M33.5,46.6c0.5,1,0.2,2.2-0.8,2.7c-2.3,1.1-4.1-2.5-1.7-3.6C31.9,45.4,33,45.8,33.5,46.6z"></path> <path d="M33.1,0.9c1.8,1.8,1.4,5.1-0.9,7.3c-1,1-2.2,1.6-3.3,1.9c0-0.1,0.1-0.3,0.1-0.6c-0.8-3.2-3.6-4.5-4.8-4.3 c-0.1,0-0.2,0-0.2,0.1c0.2-1.2,0.9-2.4,1.9-3.5C28.1-0.5,31.4-0.9,33.1,0.9z"></path> <path class="st0" d="M35.7,21.5c-0.9,0.9-2,1.8-3.2,2.8c-2.7-0.2-4.5-0.1-4.5-0.1h-0.1c0.4-1,0.7-2.2,1.1-3.6v-0.1 C30.7,20.2,32.5,20.6,35.7,21.5z"></path> <path class="st0" d="M22,15.2c0.2-0.9,1-1.5,1.9-1.5c1,0,1.9,0.9,1.9,1.9c0,1.1-0.9,1.9-1.9,1.9c0,0,1.1,3.4,2.8,3.8 c1.3,0.4,1.7,0.5,2-1c0.1,0,0.3,0,0.4,0v0.1C28.7,21.8,28.4,23,28,24c-0.5,1.4-0.9,2.4-1.4,3.3c-0.1,0.2-0.2,0.3-0.3,0.5 c-3.5,0.5-6.1-1.9-6.9-2.7c-0.1-0.3-0.2-0.4-0.2-0.4c-0.3,0.1-0.7,0.1-1.1,0.1c-0.6,0-1.3-0.1-2.1-0.3c-5.4-1.9-3.2-9.9-2.2-13.1 c0,0,0.4,1.2,3.3,0.8c2.8-0.4,4.2-1,4.7-0.3s-0.7,3,0,3.3H22z"></path> <path class="st1" d="M23.1,24.4c-0.5-0.2-1.3-1.1-1.8-1.1c-0.7-0.1-1.9,0.7-2.6,0.7c-1.6,0.1-3.2-0.3-4.6-1.2 c-0.2-0.2-0.5-0.4-0.7-0.6c0.5,1,1.4,1.9,2.7,2.3c0.8,0.3,1.4,0.4,2.1,0.3c0.4,0,0.7,0,1.1-0.1c0,0,0.1,0.2,0.2,0.4 c0.7,0.8,3.3,3.3,6.9,2.7c0.1-0.1,0.2-0.3,0.3-0.5c0.4-0.7,0.8-1.6,1.1-2.7C26.4,25.2,24.7,25.2,23.1,24.4z"></path> <path d="M28.9,17.8c0,0.4-0.1,0.8-0.1,1.1c-0.1,0.6-0.1,1.1-0.2,1.5c-0.3,1.5-0.7,1.3-2,1c-1.6-0.4-2.8-3.8-2.8-3.8 c1,0,1.9-0.9,1.9-1.9c0-1.1-0.9-1.9-1.9-1.9c-0.9,0-1.7,0.7-1.9,1.5h-0.2c-0.7-0.4,0.5-2.7,0-3.3c-0.5-0.7-1.8-0.1-4.7,0.3 c-2.9,0.4-3.3-0.8-3.3-0.8c0.3-0.8,0.5-1.3,0.5-1.3c1.8-3.8,6.2-4.6,9.1-4c1,0.2,1.8,0.5,2.3,0.9c1.1,0.9,1.8,2.1,2.3,3.5 C29,13,29.1,15.8,28.9,17.8z"></path> <path class="st0" d="M29,9.6c0,0.2,0,0.4-0.1,0.6c-0.2,0.7-0.8,0.4-0.8,0.4c-0.5-1.3-1.2-2.6-2.3-3.5c-0.5-0.4-1.3-0.7-2.3-0.9 c0,0-0.5-0.6,0.4-0.9l0,0c0.1,0,0.2,0,0.2-0.1C25.4,5.1,28.2,6.4,29,9.6z"></path> <path class="st0" d="M26.6,27.4c-0.1,0.2-0.2,0.3-0.2,0.5h-0.1C26.4,27.7,26.5,27.5,26.6,27.4z"></path> <path class="st0" d="M26.3,27.9C26.3,27.9,26.4,27.8,26.3,27.9c-2.7,4.7-5.1,1.9-5.4,0.5C21.6,29.7,24.8,29.8,26.3,27.9z"></path> <path class="st1" d="M19.5,25.1c0.7,0.8,3.3,3.3,6.9,2.7c-1.6,1.9-4.7,1.9-5.4,0.5C20.4,27.2,19.8,25.8,19.5,25.1z"></path> <path class="st0" d="M6.3,26.8l3.1,4.7c-0.6,0.5-1.2,1.1-1.8,1.6L7.5,33l-3.4-6.8v-0.1c0.6-0.1,1.2,0,1.7,0.3 C6,26.5,6.2,26.6,6.3,26.8z"></path> <path class="st0" d="M5.6,23.1c0.9-0.8,2.1-1.7,2.4-1.2c0.4,0.7-2.3,4.4-2.3,4.4C5.2,26,4.6,26,4,26c-1.3,0.1-2.6,0.9-2.9,2 c-1.8-3.9,0-9.7,0.6-9.7s0.6,2.3,0.6,2.3l0,0c0.3-1.5,0.9-3.3,1.3-3.3c0.6,0,0.4,3.6,0.4,3.6c0.4-1.2,1.1-3,1.5-3c0.6,0,0.2,5,0.2,5 L5.6,23.1z"></path> <path class="st1" d="M5.6,23.1v-0.2c0,0,0-0.4,0.1-0.9c0,0.5-3.2,1.7-3.6,2.3c-0.4,0.5-0.4,1.1-0.6,1.6C1.4,26.1,0.8,27,0.8,27 c0.1,0.3,0.2,0.6,0.3,1c0.4-1.1,1.7-1.8,2.9-2c0.6-0.1,1.2,0,1.7,0.3c0,0,2.7-3.8,2.3-4.4C7.8,21.4,6.5,22.4,5.6,23.1z"></path> <path d="M68.5,125c-3.7-0.1-7.4-0.1-11-0.1c0,0-16.1,0.2-13.8,0.9c2.5,0.7,9.5,0.8,13.2,1c7.5,0.4,15.3,0.9,23,0.9 c2.7,0,6.7-0.4,7-1.2c0.4-1.1-5.3-1.2-8.7-1.3C74.9,125.1,71.7,125,68.5,125z"></path> <path d="M66.7,75.4c1.2,0.9,2.7,1.8,4.2,2.8c3.4,2.1,7.2,4.2,9.4,5.4l0.1,0.1c-1.2,1.6-2.3,3.3-3.5,5c-0.8,1.1-2.3,3.5-4,5.2 l-0.4-0.1c-1.9-0.8-4.3-1.9-6.7-3c-1.6-0.8-3.2-1.5-4.6-2.2C60,88,59,87.5,58.2,87c-3.4-2-8.3-12.4-10.1-16.4 c2.8-2.3,5.5-4.6,7.1-6.7l-1.1-2.1l6.5-3.6c-0.1,0.1-0.2,0.2-0.3,0.3c-0.3,0.3-2.3,0.9-2.1,1.6c0.1,0.2,0.6,0.3,1.2,0.3l0,0 c0,0,2.5,9.2,3.9,12.2C63.8,73.1,65,74.2,66.7,75.4z"></path> <path class="st2" d="M23,29.1c1.1,0,2-0.1,2.8-0.3c4-1,4.7-4.2,8.1-4.8c2.1-0.4,6.4,0,9-0.5"></path> <path class="st2" d="M36.5,33.8c1.8-0.8,3.5-2,5.6-2h0.1c6.1,0.2,9.8,3.4,19.1,3.6c0.3,0,0.6,0,0.9,0"></path> <path class="st2" d="M2.2,26c0,0.2,0,0.5,0.1,0.7c0.7,3.9,5.1,13.2,9.3,13.2c3,0,7-4.4,9.5-4.4c1.6,0,2.1,1.2,7.2,1.2 c0.6,0,1.2,0,1.8-0.1"></path> <path class="st1" d="M30,36.6c-1.9,1.1-3.9,2.1-5.8,3.2c-0.1,0-1.1,0.6-1.1,0.6l0.7,1.4c-3.8,0.6-5.2-2-5.6-4.7 c-1.8,1.8-4.4,3.8-7.5,5c-6.6,2.4-9.6-13-9.6-13c-0.1-0.4,0-0.7,0.1-1c0.2-0.5,0.6-1,1.1-1.4C3,30.6,5.3,40,10.8,38 c2-0.7,5.3-5.1,7.5-6.4c0.4-0.2,1.2,2.4,1.4,2.6c0.9,1.8,2.4,3.1,4.4,3.3c0.8,0.1,1.7,0,2.5-0.2C27.6,37,28.9,36.3,30,36.6z"></path> <path class="st1" d="M27.6,7.5c-0.3,0.2-0.6,0.4-0.9,0.6c0.6,0.7,1,1.6,1.4,2.5c0,0,0.6,0.2,0.8-0.4c0-0.1,0.1-0.3,0.1-0.6 c-0.2-0.9-0.6-1.7-1.1-2.3C27.8,7.4,27.7,7.4,27.6,7.5z"></path> <path class="st1" d="M42.9,23.5c-2.7,0.6-8.4-0.8-10.1,0.6c-2.6,2.2-4.1,3.9-7,4.7c0.2-0.3,0.4-0.6,0.6-1c0.1-0.1,0.2-0.3,0.2-0.5 c0.5-0.9,0.9-2,1.4-3.3c0.4-1,0.7-2.2,1.1-3.6v-0.1c1.6-0.1,3.4,0.2,6.7,1.1C37.6,22,39.9,22.6,42.9,23.5z"></path> <path class="st1" d="M64.9,50.4c-1.1,0.7-2.5,1.2-3.4,1.3c-0.5,0.1-0.9,0-1-0.3c0,0-3.2-7.4-6.8-11.2c-2-2.1-8.6-4.2-14-5.6 c-1.1-0.3-6.9-1.6-7.9-1.9c1.8-0.8,9.2-3,19.8,0.9C60.4,36.7,65.7,49.9,64.9,50.4z"></path> <path d="M29.2,91.6c-3.8-4.1-6.9-8.9-6.5-13.4c0.4-4.3,7.5-13.1,11.5-17.7l5.2,9.4l7.3-4l3.2-1.8l4.4-2.4l1.1,2.1 c-1.7,2.1-4.3,4.5-7.1,6.7c-3.5,2.8-7.2,5.4-10.2,7.4l10.9,13c1.4,1.2,1.1,3.3,0,5.3s-3,4-4.9,4.9c-1.4,0.7-2.8,0.8-3.8-0.1 C40.2,101,34.2,97,29.2,91.6z"></path> <path class="st1" d="M38,59.3L38,59.3L38,59.3c1-0.6,1.4-1.8,0.8-2.8c-0.5-0.9-1.6-1.2-2.5-0.9h-0.1C34,56.8,35.7,60.4,38,59.3z M30.4,36.4l16.2,29.4l-7.3,4l-5.2-9.4L23.8,41.8l-0.7-1.4L30.4,36.4z M32.7,49.4c1-0.5,1.3-1.8,0.8-2.7c-0.5-0.9-1.6-1.2-2.5-0.9 C28.6,46.9,30.4,50.5,32.7,49.4z"></path> <circle class="st0" cx="111.8" cy="87.4" r="1"></circle> <circle class="st0" cx="94.2" cy="51.3" r="1"></circle> <circle class="st0" cx="26.8" cy="109.3" r="1"></circle> <circle class="st0" cx="5.2" cy="6.7" r="1"></circle> <circle class="st0" cx="20.9" cy="56" r="1"></circle> <circle class="st0" cx="57.9" cy="18.4" r="1"></circle> <g> <path class="st4" d="M46.6,66L46.6,66c-0.1,0-0.2-0.1-0.2-0.1L30.2,36.5c0-0.1,0-0.1,0-0.2s0.1-0.1,0.1-0.1l5.2-2.9 c0.1-0.1,0.3,0,0.3,0.1s0,0.3-0.1,0.3l-5,2.8l16,28.9l13.8-7.6c0.1-0.1,0.3,0,0.3,0.1s0,0.3-0.1,0.3L46.6,66 C46.7,66,46.7,66,46.6,66z"></path> </g> <g> <path class="st4" d="M67,53.6c-0.1,0-0.1,0-0.2-0.1s-0.1-0.2,0-0.4c1-1.2,1.9-2.6,2.6-4.1c0.1-0.1,0.2-0.2,0.3-0.1 c0.1,0,0.2,0.2,0.1,0.3c-0.7,1.5-1.6,3-2.6,4.2C67.1,53.6,67.1,53.6,67,53.6z"></path> </g> <g> <path class="st4" d="M69.6,49.5h-0.1c-0.1-0.1-0.2-0.2-0.1-0.3c1.9-4.2,1.9-9,0.1-13.2c-0.2-0.5-0.4-1-0.7-1.5 c-0.6-1-1.3-2-2.1-2.9c-2.8-3.2-6.7-5.2-11-5.5c-1.8-0.2-3.6,0-5.3,0.4c-0.1,0-0.3,0-0.3-0.2s0-0.3,0.2-0.3 c1.8-0.5,3.7-0.6,5.5-0.4c4.4,0.4,8.4,2.4,11.3,5.7c0.8,0.9,1.5,2,2.1,3c0.3,0.6,0.5,1.1,0.8,1.5c1.9,4.3,1.8,9.3-0.1,13.6 C69.8,49.4,69.7,49.5,69.6,49.5z"></path> </g> <g> <path class="st4" d="M35.4,37.2c-0.1,0-0.2,0-0.2-0.1c-0.1-0.1,0-0.3,0.1-0.3l4.3-2.4c0.1-0.1,0.3,0,0.3,0.1s0,0.3-0.1,0.3 L35.4,37.2C35.4,37.2,35.4,37.2,35.4,37.2z"></path> </g> <g> <path class="st4" d="M52.6,27.7c-0.1,0-0.2,0-0.2-0.1c-0.1-0.1,0-0.3,0.1-0.3l3.1-1.7l0.1,0.2l0.1,0.2l-3.1,1.7 C52.7,27.6,52.6,27.7,52.6,27.7z"></path> </g> <g> <path class="st4" d="M48.2,61.4c-0.1,0-0.2,0-0.2-0.1c-0.1-0.1,0-0.3,0.1-0.3L61,53.8c0.1-0.1,0.3,0,0.3,0.1c0.1,0.1,0,0.3-0.1,0.3 L48.2,61.4C48.3,61.4,48.3,61.4,48.2,61.4z"></path> </g> <g> <path class="st4" d="M67.1,50.8c-0.1,0-0.2,0-0.2-0.1c-0.1-0.1,0-0.3,0.1-0.3l2.4-1.4c0.2-0.1,0.4,0,0.4,0.2c0,0.1-0.1,0.2-0.2,0.2 L67.1,50.8C67.2,50.8,67.2,50.8,67.1,50.8z"></path> </g> <g> <path class="st4" d="M49.6,64c-0.1,0-0.2,0-0.2-0.1L48,61.3L33.4,34.8c-0.1-0.1,0-0.3,0.1-0.3s0.3,0,0.3,0.1l16,29 c0.1,0.1,0,0.3-0.1,0.3C49.7,64,49.7,64,49.6,64z"></path> </g> <g> <path class="st4" d="M39.3,70.1L39.3,70.1c-0.1,0-0.2-0.1-0.2-0.1L22.9,40.6c-0.1-0.1,0-0.3,0.1-0.3l7.3-4c0.1-0.1,0.3,0,0.3,0.1 s0,0.3-0.1,0.3l-7.1,3.9l0.6,1.1l15.4,27.8l7.1-3.9c0.1-0.1,0.3,0,0.3,0.1s0,0.3-0.1,0.3l-7.3,4C39.4,70.1,39.4,70.1,39.3,70.1z"></path> </g> <g> <path class="st4" d="M31.8,49.8c-0.9,0-1.6-0.6-2-1.3c-0.5-1-0.3-2.4,1-3l0,0c1-0.4,2.2,0,2.8,1c0.6,1.1,0.2,2.5-0.8,3.1 C32.5,49.8,32.1,49.8,31.8,49.8z M31.1,46c-0.6,0.3-0.9,0.8-1,1.3c0,0.7,0.3,1.4,0.8,1.7c0.5,0.3,1.1,0.4,1.6,0.1 c0.8-0.5,1.1-1.5,0.6-2.4C32.8,46,31.9,45.7,31.1,46z"></path> </g> <g> <path class="st4" d="M38,59.5c-0.1,0-0.2,0-0.2-0.1c-0.1-0.1,0-0.3,0.1-0.3c0.1-0.1,0.3,0,0.4,0.1s0,0.3-0.1,0.3l0,0 C38,59.5,38,59.5,38,59.5z"></path> </g> <g> <path class="st4" d="M37.1,59.7c-0.9,0-1.6-0.6-2-1.3c-0.5-1-0.3-2.3,0.9-3l0.2,0.2l-0.1-0.2c1.1-0.4,2.3,0,2.9,1 c0.3,0.5,0.4,1.1,0.2,1.7c-0.2,0.6-0.5,1-1,1.3c0,0,0,0-0.1,0C37.8,59.7,37.4,59.7,37.1,59.7z M38,59.3L38,59.3L38,59.3z M37,55.7 c-0.2,0-0.4,0-0.6,0.1h-0.1c-1,0.5-1.1,1.5-0.7,2.3c0.4,0.7,1.2,1.3,2.2,0.9l0,0l0,0c0.4-0.2,0.7-0.6,0.8-1.1 c0.1-0.5,0.1-0.9-0.2-1.3C38.3,56.1,37.7,55.7,37,55.7z"></path> </g> <g> <path class="st4" d="M61.3,52c-0.6,0-0.8-0.2-0.9-0.4c0-0.1-3.2-7.5-6.8-11.1c-1.6-1.6-6.4-3.6-13.9-5.6c-1.4-0.4-2.7-0.7-4-1 c-2.3-0.5-3.9-0.9-3.9-0.9c-0.1,0-0.2-0.2-0.2-0.3c0-0.1,0.2-0.2,0.3-0.2c0,0,1.6,0.3,3.9,0.9c1.3,0.3,2.7,0.6,4,1 c5.3,1.4,12.1,3.6,14.2,5.7c3.6,3.8,6.9,11.2,6.9,11.3c0.1,0.1,0.3,0.2,0.7,0.1c0.8-0.1,2.1-0.6,3.2-1.3c0.8-0.5,1.5-1,2-1.5 c0.3-0.4,0.5-0.7,0.4-0.8c0,0,0,0,0-0.1s-2.8-13-14.6-20.2c-0.8-0.5-1.5-0.9-2.3-1.3c-1.7-0.9-3.6-1.6-5.5-2.1 c-1.5-0.4-2.8-0.8-4-1.1c-2-0.6-3.6-1-5-1.4c-3.4-0.9-5.1-1.2-6.6-1.1c-0.1,0-0.3,0-0.4,0l-0.1-0.5c0.2,0,0.3,0,0.5,0 c1.5-0.1,3.3,0.2,6.7,1.1c1.4,0.4,3,0.8,5,1.4c1.2,0.4,2.5,0.7,4,1.1c1.9,0.5,3.8,1.3,5.6,2.1c0.8,0.4,1.6,0.8,2.4,1.3 c11.7,7.1,14.6,19.7,14.8,20.5c0.1,0.3,0.1,0.7-0.4,1.4c-0.5,0.5-1.2,1.1-2.1,1.6c-1.3,0.7-2.6,1.2-3.5,1.3 C61.5,52,61.4,52,61.3,52z"></path> </g> <g> <path class="st4" d="M6.3,34.6c-0.1,0-0.1,0-0.2-0.1s-0.1-0.3,0-0.4c0.4-0.4,0.8-0.7,1.2-1.1l0.2-0.2c0.6-0.5,1.2-1.1,1.8-1.6 c2.8-2.5,6.6-5.6,8.8-6.7c0.1-0.1,0.3,0,0.3,0.1c0.1,0.1,0,0.3-0.1,0.3c-2.1,1.1-5.9,4.1-8.7,6.6C9,32,8.4,32.6,7.8,33.1l-0.2,0.1 c-0.4,0.4-0.8,0.8-1.2,1.1C6.4,34.6,6.4,34.6,6.3,34.6z"></path> </g> <g> <path class="st4" d="M9.3,42.6c-0.7,0-1.4-0.2-2-0.5c-4.4-2.5-6.4-12.5-6.5-12.9s-0.1-0.8,0.1-1.1c0.4-1.3,1.9-2,3.1-2.1 c0.7-0.1,1.4,0,1.9,0.3c0.2,0.1,0.5,0.3,0.6,0.5l3.1,4.7c0.1,0.1,0,0.3-0.1,0.4s-0.3,0-0.4-0.1L6,27.1c-0.1-0.1-0.3-0.3-0.5-0.4 c-0.4-0.2-1-0.3-1.6-0.2c-1.1,0.1-2.4,0.8-2.7,1.8c-0.1,0.3-0.1,0.6,0,0.9c0,0.1,2,10.2,6.2,12.6c1,0.5,2,0.6,3.1,0.2 c2.6-1,5.1-2.6,7.4-4.9c0.1-0.1,0.3-0.1,0.4,0s0.1,0.3,0,0.4c-2.4,2.3-4.9,4-7.6,5C10.3,42.5,9.8,42.6,9.3,42.6z"></path> </g> <g> <path class="st4" d="M22.8,42.1c-2.6,0-4.3-1.7-4.8-5c-0.4-2.7,0-5.5,0.1-5.6c0-0.1,0.2-0.2,0.3-0.2c0.1,0,0.2,0.1,0.2,0.3 c0,0-0.5,2.8-0.1,5.5c0.6,3.4,2.4,4.9,5.4,4.5c0.1,0,0.3,0.1,0.3,0.2s-0.1,0.3-0.2,0.3C23.5,42.1,23.2,42.1,22.8,42.1z"></path> </g> <g> <path class="st4" d="M61,57.7c-0.3,0-0.6,0-0.8-0.3c-0.3-0.4-0.1-1,0.3-2.4c0.1-0.3,0.2-0.7,0.3-1.1c0.2-1,0.4-2.2,0.4-2.2 c0-0.1,0.2-0.2,0.3-0.2c0.1,0,0.2,0.1,0.2,0.3c0,0-0.2,1.2-0.4,2.2c-0.1,0.4-0.2,0.8-0.3,1.1c-0.2,0.7-0.6,1.7-0.4,2 c0,0,0.1,0.1,0.5,0.1c0.3-0.1,1.2-1.5,2-3c0.1-0.1,0.2-0.2,0.3-0.1c0.1,0.1,0.2,0.2,0.1,0.3C63,55.4,61.7,57.7,61,57.7 C61.1,57.7,61.1,57.7,61,57.7z"></path> </g> <g> <path class="st4" d="M59.2,60.5c-0.5,0-1-0.1-1.1-0.5c-0.2-0.7,0.7-1.1,1.5-1.5c0.2-0.1,0.5-0.3,0.6-0.3l0.1-0.1 c0.1-0.1,0.1-0.1,0.2-0.2c0.3-0.3,0.5-0.6,0.5-0.6l0.4,0.3c0,0-0.3,0.3-0.5,0.6c-0.1,0.1-0.1,0.1-0.2,0.2l-0.1,0.1 c-0.1,0.1-0.4,0.2-0.8,0.4c-0.4,0.2-1.3,0.6-1.3,0.9c0,0.1,0.3,0.2,1,0.1c1.2-0.1,2.8-0.7,3.8-1.8c0.3-0.3,0.6-0.6,1-1 c1-0.9,2.1-2,2.5-3.9c0.2-0.8,0.2-1.7,0.1-2.7c0-0.5-0.1-1-0.2-1.7c0-0.1,0.1-0.3,0.2-0.3s0.3,0.1,0.3,0.2c0.1,0.7,0.2,1.3,0.2,1.8 c0.1,1.1,0,2-0.2,2.8c-0.5,2.1-1.6,3.2-2.7,4.2c-0.3,0.3-0.7,0.6-0.9,0.9c-1,1.2-2.8,1.8-4.1,1.9C59.4,60.5,59.3,60.5,59.2,60.5z"></path> </g> <g> <path class="st4" d="M5.8,26.6H5.7c-0.1-0.1-0.1-0.2-0.1-0.4C7,24.3,8,22.4,7.9,22c0,0-0.3-0.1-2,1.3c-0.2,0.2-0.4,0.3-0.5,0.5 C5.2,24,5,24.1,5,24.2c-0.2,0.1-0.5,0.2-0.8,0.3c-0.6,0.2-1.3,0.5-1.5,0.9c0,0.1-0.2,0.2-0.3,0.1c-0.1,0-0.2-0.2-0.1-0.3 c0.3-0.7,1.1-1,1.8-1.2c0.3-0.1,0.5-0.2,0.7-0.3c0.1-0.1,0.2-0.2,0.4-0.3c0.2-0.1,0.4-0.3,0.6-0.5c1.6-1.3,2.1-1.5,2.4-1.4 c0.1,0,0.3,0.1,0.4,0.2c0.5,0.7-1.5,3.5-2.3,4.7C5.9,26.5,5.8,26.6,5.8,26.6z"></path> </g> <g> <path class="st4" d="M5.6,23.2L5.6,23.2c-0.2,0-0.3-0.1-0.2-0.3c0.2-1.9,0.2-4.1,0-4.7c-0.1,0.2-0.5,0.7-1.2,2.8 c-0.2,0.7-0.4,1.2-0.4,1.2c0,0.1-0.2,0.2-0.3,0.2c-0.1,0-0.2-0.2-0.2-0.3c0,0,0.2-0.5,0.4-1.2c1-2.9,1.4-3.2,1.7-3.2 c0.1,0,0.2,0,0.3,0.1C6.2,18.3,6,21.6,5.9,23C5.9,23.1,5.8,23.2,5.6,23.2z"></path> </g> <g> <path class="st4" d="M2,22.4c-0.1,0-0.2-0.1-0.2-0.2c0-0.3,0.1-1.1,0.2-1.6c0.3-1.3,0.9-3.5,1.6-3.5c0.1,0,0.2,0,0.3,0.1 c0.5,0.5,0.4,3,0.3,3.7c0,0.1-0.1,0.2-0.3,0.2c-0.1,0-0.2-0.1-0.2-0.3c0.1-1.4,0-3-0.2-3.3c-0.2,0.2-0.7,1.5-1.1,3.1 c-0.2,0.9-0.2,1.3-0.2,1.5C2.3,22.3,2.2,22.4,2,22.4L2,22.4z"></path> </g> <g> <path class="st4" d="M1.1,28.3c-0.1,0-0.2-0.1-0.2-0.2c-1.6-3.5-0.3-8.6,0.4-9.7c0.1-0.1,0.2-0.3,0.4-0.3c0.7,0,0.8,1.6,0.8,2.5 c0,0.1-0.1,0.2-0.2,0.2l0,0c-0.1,0-0.2-0.1-0.2-0.2c0-0.9-0.2-1.8-0.3-2c-0.5,0.6-2,5.8-0.4,9.3V28C1.4,28.2,1.2,28.3,1.1,28.3z"></path> </g> <g> <path class="st4" d="M42,101.9c-0.7,0-1.4-0.2-1.9-0.7c0,0-6.1-4.1-11-9.5c-4.7-5.1-6.9-9.7-6.6-13.6c0.4-4.4,7.4-13.1,11.6-17.9 c0.1-0.1,0.2-0.1,0.4,0s0.1,0.2,0,0.4C31.2,64.4,23.4,73.7,23,78.2c-0.3,3.8,1.9,8.2,6.5,13.2c4.9,5.3,10.9,9.4,11,9.4 c1.1,1,2.6,0.6,3.6,0.1c1.8-0.9,3.7-2.8,4.8-4.8c0.6-1,1.7-3.6,0.1-5L38,78c-0.1-0.1-0.1-0.3,0-0.4s0.3-0.1,0.4,0l10.9,13 c1.3,1.1,1.3,3.2,0,5.6c-1.1,2.1-3.1,4-5,5C43.4,101.7,42.6,101.9,42,101.9z"></path> </g> <g> <path class="st4" d="M33,81.4c-0.1,0-0.2,0-0.2-0.1c-0.1-0.1,0-0.3,0.1-0.3c0,0,2.1-1.3,5-3.2c2.7-1.8,6.6-4.5,10.1-7.4 c3.2-2.6,5.6-4.8,7.1-6.7c0.1-0.1,0.2-0.1,0.4,0c0.1,0.1,0.1,0.2,0,0.4c-1.5,1.9-4,4.2-7.2,6.8c-3.6,2.9-7.5,5.6-10.2,7.4 C35.2,80.3,33.1,81.5,33,81.4C33.1,81.4,33,81.4,33,81.4z"></path> </g> <g> <path class="st4" d="M72.6,93.9h-0.1c-1.9-0.9-4.3-1.9-6.7-3c-1.7-0.8-3.3-1.5-4.6-2.2c-1.3-0.7-2.3-1.2-3-1.6 C55,85.2,50.4,75.9,48,70.6c-0.1-0.1,0-0.3,0.1-0.3c0.1-0.1,0.3,0,0.3,0.1c1.9,4.3,6.8,14.4,10,16.3c0.7,0.4,1.6,0.9,3,1.6 s3,1.4,4.6,2.2c2.4,1.1,4.8,2.2,6.7,3c0.1,0.1,0.2,0.2,0.1,0.3C72.8,93.9,72.7,93.9,72.6,93.9z"></path> </g> <g> <path class="st4" d="M80.3,83.8h-0.1c-1.6-0.9-5.7-3.1-9.4-5.4c-1.8-1.1-3.1-2-4.2-2.8c-1.9-1.4-3-2.4-3.3-3 c-1.4-3-3.8-11.9-4-12.2c0-0.1,0-0.3,0.2-0.3c0.1,0,0.3,0,0.3,0.2c0,0.1,2.5,9.2,3.9,12.1c0.2,0.4,0.9,1.2,3.2,2.9 c1.1,0.8,2.4,1.6,4.2,2.8c3.7,2.3,7.8,4.6,9.4,5.4c0.1,0.1,0.2,0.2,0.1,0.3C80.5,83.8,80.4,83.8,80.3,83.8z"></path> </g> <g> <path class="st4" d="M81.1,109.6c-0.3,0-0.6,0-0.9-0.1c-1.3-0.3-2.1-1.2-2.3-2.5c0-0.1,0.1-0.3,0.2-0.3s0.3,0.1,0.3,0.2 c0.2,1.5,1.2,2,1.9,2.1c1.5,0.3,3.6-0.4,4.3-1.6c1.2-1.9,1.3-3.7,1.4-5.4c0.1-1.2,0.2-2.2,0.6-3.1c0.2-0.4,0.5-0.9,0.9-1.5 c1.4-2.3,3.5-5.8,2-7.3c-0.3-0.3-0.8-0.6-1.4-0.9H88c-0.1-0.1-0.2-0.2-0.1-0.3s0.2-0.2,0.3-0.1c0.7,0.3,1.2,0.6,1.5,1 c1.8,1.8-0.4,5.5-1.9,7.9c-0.4,0.6-0.7,1.1-0.9,1.5c-0.4,0.8-0.5,1.7-0.5,2.9c-0.1,1.7-0.3,3.7-1.5,5.6 C84.4,108.9,82.7,109.6,81.1,109.6z"></path> </g> <g> <path class="st4" d="M78.2,107.2c-0.1,0-0.2-0.1-0.2-0.2c0-0.2,0-0.4,0-0.6c0-0.1,0.1-0.2,0.2-0.2s0.2,0.1,0.2,0.2 c0,0.2,0,0.4,0,0.5C78.5,107.1,78.4,107.2,78.2,107.2L78.2,107.2z"></path> </g> <g> <path class="st4" d="M78.5,95.2c-0.1,0-0.2,0-0.2-0.1c-0.1-0.1,0-0.3,0.1-0.3c2-1.1,4.1-4.1,4.7-6.7c0-0.1,0.2-0.2,0.3-0.2 c0.1,0,0.2,0.2,0.2,0.3c-0.6,2.8-2.8,5.9-5,7.1C78.6,95.2,78.6,95.2,78.5,95.2z"></path> </g> <g> <path class="st4" d="M80.2,108.7c-0.2,0-0.4,0-0.5,0c-0.9-0.2-1.6-0.8-1.8-1.7c0-0.2-0.1-0.4,0-0.7c0-0.8,0.1-2.2,0.1-3.9 c0-1.5,0-3.1,0-4.5c0-1,0-1.9,0-2.6c0-0.1,0.1-0.2,0.2-0.2l0,0c0.1,0,0.2,0.1,0.2,0.2c0,0.6,0,1.5,0,2.6c0,1.4,0,3,0,4.5 c0,1.7,0,3.1-0.1,3.9c0,0.2,0,0.4,0,0.5c0,0,0,0,0,0.1c0.1,0.6,0.6,1.1,1.4,1.2c1,0.2,2.5-0.3,3.4-1.7c1.2-1.9,1.3-3.7,1.4-5.4 c0.1-1.2,0.2-2.2,0.6-3.1c0.2-0.4,0.5-0.9,0.9-1.5c1.4-2.3,3.5-5.7,2-7.2c-1.2-1.1-3-1.5-4.4-1.5c-0.1,0-0.2-0.1-0.2-0.3 c0-0.1,0.1-0.2,0.2-0.2c1.5,0.1,3.4,0.5,4.7,1.7l0,0c1.7,1.8-0.5,5.4-1.9,7.9c-0.4,0.6-0.7,1.1-0.9,1.5c-0.4,0.8-0.5,1.7-0.5,2.9 c-0.1,1.7-0.3,3.7-1.5,5.6C82.7,108.1,81.3,108.7,80.2,108.7z"></path> </g> <g> <path class="st4" d="M47,116.5c-0.3,0-0.5,0-0.8-0.1c-1.2-0.3-1.9-1.1-2.1-2.3c0-0.1,0-0.2,0-0.4c0-0.1,0.1-0.3,0.2-0.3 s0.3,0.1,0.3,0.2s0,0.2,0,0.3c0.2,1.3,1,1.8,1.7,1.9c1.4,0.3,3.2-0.4,3.9-1.5c1-1.6,1.2-3.3,1.3-4.8c0.1-1.1,0.1-2,0.5-2.8 c0.2-0.4,0.5-0.8,0.8-1.4c1.2-2.1,3.1-5.2,1.8-6.5c-0.3-0.3-0.8-0.6-1.2-0.8c-0.1,0-0.2-0.2-0.1-0.3c0-0.1,0.2-0.2,0.3-0.1 c0.5,0.2,1,0.5,1.4,0.9c1.7,1.6-0.4,4.9-1.7,7.1c-0.3,0.5-0.6,1-0.8,1.3c-0.3,0.7-0.4,1.5-0.5,2.6c-0.1,1.5-0.2,3.3-1.4,5.1 C50,115.8,48.5,116.5,47,116.5z"></path> </g> <g> <path class="st4" d="M46.2,115.7c-0.2,0-0.3,0-0.5,0c-0.9-0.2-1.5-0.7-1.6-1.5c0-0.1,0-0.3,0-0.4v-0.2c0.1-1.1,0.2-3.8,0.2-6.5 c0-0.6,0-1.3,0.1-1.9v-0.7c0-0.9,0-1.7,0-2.1c0-0.1,0.1-0.2,0.2-0.2l0,0c0.1,0,0.2,0.1,0.2,0.2c0,0.5,0,1.2,0,2.1v0.7 c0,0.6,0,1.2-0.1,1.9c-0.1,2.7-0.2,5.4-0.2,6.4v0.2c0,0.1,0,0.2,0,0.3c0.1,0.6,0.6,1,1.2,1.1c0.9,0.2,2.2-0.2,3-1.5 c1-1.6,1.2-3.3,1.3-4.8c0.1-1.1,0.2-2,0.5-2.8c0.2-0.4,0.5-0.8,0.8-1.4c1.2-2.1,3.1-5.2,1.8-6.5l0,0c-1-1-2.8-1.3-4.1-1.4 c-0.1,0-0.3-0.1-0.3-0.3s0.1-0.2,0.2-0.2l0,0c1.4,0.1,3.2,0.4,4.4,1.5l0,0l0,0c1.6,1.6-0.4,4.9-1.7,7.1c-0.3,0.5-0.6,1-0.8,1.3 c-0.3,0.7-0.4,1.5-0.5,2.6c-0.1,1.5-0.3,3.3-1.4,5.1C48.5,115.1,47.2,115.7,46.2,115.7z"></path> </g> <g> <path class="st4" d="M46.5,103.4c-0.3,0-0.6-0.1-0.7-0.2l-2-1.9c-0.1-0.1-0.1-0.2,0-0.4s0.2-0.1,0.4,0l2,1.9c0.2,0.1,0.5,0.2,0.8,0 c1.3-0.5,3.2-2.7,3.5-4.1c0.1-0.4,0-0.6-0.2-0.8l-1.5-1.5c-0.1-0.1-0.1-0.2,0-0.4c0.1-0.1,0.2-0.1,0.4,0l1.5,1.5 c0.2,0.2,0.5,0.6,0.3,1.3c-0.3,1.6-2.3,4-3.8,4.5C46.9,103.4,46.7,103.4,46.5,103.4z"></path> </g> <g> <path class="st4" d="M21.9,15.5h-0.1c-0.5-0.3-0.4-1.1-0.2-1.9c0.1-0.6,0.3-1.3,0.1-1.5c-0.2-0.3-1-0.2-2.3,0.1 c-0.6,0.1-1.3,0.2-2.1,0.4c-3,0.5-3.5-0.9-3.5-0.9c0-0.1,0-0.3,0.2-0.3c0.1-0.1,0.3,0,0.3,0.1c0,0,0.5,1,3,0.6 c0.8-0.1,1.5-0.2,2.1-0.4c1.5-0.3,2.4-0.5,2.8,0.1c0.3,0.4,0.1,1.1,0,1.9c-0.1,0.5-0.3,1.3-0.1,1.4c0.1,0.1,0.2,0.2,0.1,0.3 C22,15.4,22,15.5,21.9,15.5z"></path> </g> <g> <path class="st4" d="M23.9,17.8c-0.1,0-0.2-0.1-0.2-0.2s0.1-0.2,0.2-0.2c0.9,0,1.7-0.8,1.7-1.7S24.9,14,23.9,14 c-0.8,0-1.5,0.6-1.6,1.3c0,0.1,0,0.2,0,0.3s-0.1,0.2-0.2,0.2s-0.2-0.1-0.2-0.2c0-0.2,0-0.3,0-0.4c0.2-1,1.1-1.7,2.1-1.7 c1.2,0,2.2,1,2.2,2.2C26.1,16.8,25.1,17.8,23.9,17.8z"></path> </g> <g> <path class="st4" d="M18,25.1c-0.6,0-1.3-0.1-2-0.4c-5.6-2-3.5-10-2.3-13.4c0.3-0.8,0.5-1.3,0.5-1.3c1.8-3.7,6.1-4.8,9.4-4.2 c1,0.2,1.9,0.5,2.4,1c1,0.8,1.8,2.1,2.4,3.6c0.9,2.5,1,5.4,0.8,7.4c0,0.4-0.1,0.8-0.1,1.1C29,19.5,29,20,28.9,20.4 c-0.1,0.6-0.2,1.1-0.6,1.3c-0.4,0.2-0.8,0.1-1.5-0.1h-0.2c-1.8-0.5-2.9-3.9-2.9-4s0-0.3,0.2-0.3c0.1,0,0.3,0,0.3,0.2 c0.3,0.9,1.3,3.3,2.6,3.7H27c0.6,0.2,1,0.3,1.1,0.1c0.1-0.1,0.3-0.4,0.4-1c0.1-0.4,0.1-0.8,0.2-1.4c0-0.3,0.1-0.7,0.1-1.1 c0.1-1.9,0.1-4.8-0.8-7.2c-0.5-1.4-1.3-2.6-2.2-3.4c-0.5-0.4-1.2-0.7-2.2-0.9c-3.1-0.6-7.1,0.4-8.8,3.9l0,0c0,0-0.2,0.5-0.5,1.2 c-1.1,3.2-3.1,11,2,12.8c0.7,0.2,1.4,0.4,2,0.3c0.4,0,0.7,0,1-0.1c0.7-0.2,1.3-0.5,1.9-0.9c0.1-0.1,0.3,0,0.4,0.1s0,0.3-0.1,0.4 c-0.7,0.5-1.4,0.8-2.1,1c-0.4,0.1-0.8,0.1-1.1,0.1C18.1,25.1,18.1,25.1,18,25.1z"></path> </g> <g> <path class="st4" d="M23.1,29.6c-0.2,0-0.3,0-0.5,0c-0.9-0.1-1.6-0.5-1.9-1.1c-0.5-1.1-1.1-2.5-1.5-3.2C19.1,25,19,24.9,19,24.9 c-0.1-0.1,0-0.3,0.1-0.3s0.3,0,0.3,0.1c0,0,0.1,0.2,0.2,0.4c0.3,0.7,0.9,2.1,1.5,3.2c0.2,0.4,0.8,0.8,1.5,0.9 c1.1,0.1,2.6-0.2,3.5-1.4c0.1-0.1,0.2-0.3,0.3-0.5c0.1-0.1,0.2-0.2,0.3-0.1s0.2,0.2,0.1,0.3c-0.1,0.2-0.2,0.4-0.4,0.5 C25.6,29.2,24.2,29.6,23.1,29.6z"></path> </g> <g> <path class="st4" d="M15.4,18.5c0,0-0.9,0-1.1-0.7c-0.2-0.6,0.4-1.2,0.5-1.3s0.3-0.1,0.4,0s0.1,0.2,0,0.4c-0.1,0.1-0.4,0.5-0.3,0.8 C15,18,15.5,18,15.5,18c0.1,0,0.2,0.1,0.2,0.2S15.6,18.5,15.4,18.5z"></path> </g> <g> <path class="st4" d="M17.8,17c0,0-0.1,0-0.1-0.1c-0.5-0.4-1-0.2-1-0.2c-0.1,0-0.3,0-0.3-0.2c0-0.1,0-0.3,0.1-0.3 c0,0,0.7-0.2,1.4,0.3c0.1,0.1,0.1,0.2,0,0.4C18,17,17.9,17,17.8,17z"></path> </g> <g> <path class="st4" d="M14.2,16.4c0,0-0.1,0-0.1-0.1c-0.5-0.4-1-0.2-1-0.2c-0.1,0-0.3,0-0.3-0.1s0-0.3,0.1-0.3c0,0,0.7-0.2,1.4,0.3 c0.1,0.1,0.1,0.2,0,0.4C14.3,16.4,14.2,16.4,14.2,16.4z"></path> </g> <g> <path class="st4" d="M28.4,10.8c-0.2,0-0.3-0.1-0.3-0.1c-0.1-0.1-0.2-0.2-0.1-0.3s0.2-0.2,0.3-0.1l0,0c0,0,0.1,0.1,0.3,0 c0.1,0,0.1-0.1,0.2-0.3c0-0.1,0.1-0.3,0.1-0.5c-0.7-2.9-3.4-4.2-4.5-4.1c-0.1,0-0.2,0-0.2,0c-0.1,0-0.3,0-0.3-0.2s0-0.3,0.2-0.3 c0.1,0,0.2-0.1,0.3-0.1c1.3-0.2,4.3,1.2,5.1,4.5c0,0.3,0,0.5-0.1,0.7c-0.1,0.4-0.3,0.5-0.5,0.6C28.6,10.8,28.5,10.8,28.4,10.8z"></path> </g> <g> <path class="st4" d="M23.5,6.4c-0.1,0-0.1,0-0.2-0.1c0,0-0.3-0.4-0.1-0.7c0.1-0.2,0.3-0.4,0.7-0.5c0.1,0,0.3,0,0.3,0.2 s0,0.3-0.2,0.3c-0.2,0.1-0.3,0.1-0.3,0.2c0,0.1,0,0.2,0.1,0.3s0,0.3-0.1,0.4C23.6,6.4,23.6,6.4,23.5,6.4z"></path> </g> <g> <path class="st4" d="M28.9,10.4c-0.1,0-0.2-0.1-0.2-0.2c0-0.1,0.1-0.3,0.2-0.3C30,9.7,31.2,9,32.1,8.1C33.3,6.9,34,5.3,34,3.8 c0-1.1-0.4-2-1-2.7c-1.7-1.7-4.8-1.3-7,0.9c-1,0.9-1.6,2.1-1.8,3.4c0,0.1-0.1,0.2-0.2,0.2s-0.2-0.1-0.2-0.3l0,0 c0.2-1.4,1-2.6,2-3.7c2.4-2.4,5.8-2.8,7.7-0.9c0.8,0.8,1.2,1.8,1.2,3c0,1.6-0.8,3.3-2.1,4.6C31.4,9.4,30.2,10.1,28.9,10.4 C29,10.4,28.9,10.4,28.9,10.4z"></path> </g> <g> <path class="st4" d="M15.7,20.3c-1.1,0-1.6-0.4-1.6-0.4c-0.1-0.1-0.1-0.2,0-0.4s0.2-0.1,0.4,0c0,0,0.5,0.3,1.5,0.3 c0.1,0,0.2,0.1,0.3,0.2c0,0.1-0.1,0.2-0.2,0.3C15.7,20.3,15.7,20.3,15.7,20.3z"></path> </g> <g> <path class="st4" d="M70.9,78.4h-0.1c-0.1-0.1-0.2-0.2-0.1-0.3c0.2-0.5,0.5-1,0.8-1.5l0.4-0.9c5-9.9,11.1-22.3,11.5-34.9 c0.2-5-2-7.4-3.8-8.6c-2.8-1.8-7.1-2-12.7-0.6c-0.1,0-0.3,0-0.3-0.2s0-0.3,0.2-0.3c5.8-1.5,10.2-1.3,13.1,0.6c1.9,1.2,4.2,3.8,4,9 c-0.4,12.7-6.6,25.1-11.6,35.1l-0.4,0.9c-0.2,0.5-0.5,1-0.8,1.5C71.1,78.3,71,78.4,70.9,78.4z"></path> </g> <g> <path class="st4" d="M69.1,101.1c-1,0-1.9-0.2-2.9-0.6c-2.5-1-4.2-2.7-5.1-4.9c-0.8-2-0.8-4.3-0.1-7.2c0-0.1,0.2-0.2,0.3-0.2 c0.1,0,0.2,0.2,0.2,0.3c-0.7,2.8-0.7,5.1,0,6.9c0.8,2.1,2.4,3.6,4.8,4.6c1,0.4,1.8,0.6,2.7,0.6c2.9,0,5.8-1.8,8.9-5.4l0,0 c0.1-0.1,0.2-0.3,0.3-0.4c1.6-1.9,3.1-4.1,4.8-6.9l0.4-0.6c0-0.1,0.1-0.1,0.1-0.1c6.2-10.4,21.1-19.2,40-23.3 c19.6-4.4,40.3-3.1,56.7,3.4c0.6,0.2,1.2,0.2,1.7,0s1-0.7,1.2-1.2s0.2-1.2,0-1.7s-0.7-1-1.2-1.2c-16.1-6.4-34.6-8.2-53.3-5.1 c-10.9,1.8-20.7,5-29.3,9.6c-4.2,2.3-8,4.8-11.2,7.6c-3,2.6-5.5,5.8-7.5,8.6c-0.7,1-1.4,2-2.1,3c-0.5,0.7-0.9,1.3-1.4,2 c-0.1,0.2-0.3,0.4-0.4,0.6c-0.9,1.2-2.2,3.1-3.6,4.6c-1.9,1.8-3.6,2.5-5.1,1.9c-1.6-0.6-2.1-1.5-2.3-2c-0.3-0.8-0.4-1.9-0.1-3.2 c0-0.1,0.2-0.2,0.3-0.2c0.1,0,0.2,0.1,0.2,0.3c-0.2,1.3-0.2,2.2,0.1,3c0.2,0.5,0.6,1.2,2,1.7c1.3,0.5,2.8-0.1,4.5-1.8 c1.5-1.4,2.7-3.3,3.6-4.5c0.2-0.2,0.3-0.4,0.4-0.6c0.5-0.7,0.9-1.3,1.4-2c0.7-1,1.4-2,2.1-3c2-2.8,4.5-6,7.5-8.7 c3.2-2.8,7-5.3,11.3-7.6c8.6-4.6,18.5-7.9,29.5-9.7c18.8-3.1,37.4-1.3,53.6,5.1c0.7,0.3,1.2,0.8,1.5,1.5s0.3,1.4,0,2.1 s-0.8,1.2-1.5,1.5s-1.4,0.3-2.1,0c-36-14.4-83.7-1-96,19.7l-0.5,0.8c-1.7,2.8-3.3,5.1-4.9,6.9c-0.1,0.1-0.2,0.3-0.4,0.4l0,0 C75.1,99.3,72.1,101.1,69.1,101.1z"></path> </g> <g> <path class="st4" d="M66.7,75.6c-0.1,0-0.2-0.1-0.2-0.2l0,0v-0.1l0.9-1.9c4.7-9.5,10.6-21.3,11-32.8c0.1-3.2-1.1-4-1.5-4.2 c-1.4-0.9-3.9-1-7.2-0.3c-0.1,0-0.3-0.1-0.3-0.2s0.1-0.3,0.2-0.3c3.5-0.7,6-0.6,7.6,0.4c0.5,0.3,1.8,1.1,1.7,4.7 c-0.4,11.6-6.3,23.5-11.1,33l-0.9,1.8C66.9,75.6,66.8,75.6,66.7,75.6z"></path> </g> <g> <path class="st4" d="M23.3,30.7c-0.1,0-0.2,0-0.4,0c-1.3-0.2-2.1-1.5-2.2-2.3c0-0.1,0.1-0.3,0.2-0.3s0.3,0.1,0.3,0.2 c0.1,0.7,0.9,1.8,1.8,1.9c1,0.2,2.1-0.7,3.2-2.5c0.1-0.1,0.2-0.3,0.2-0.5c0.5-0.9,0.9-2,1.4-3.3c0.4-1,0.7-2.2,1-3.6 c0-0.1,0.2-0.2,0.3-0.2c0.1,0,0.2,0.2,0.2,0.3c-0.4,1.4-0.7,2.6-1.1,3.7c-0.4,1.3-0.9,2.4-1.4,3.3c-0.1,0.2-0.2,0.3-0.3,0.5 C25.3,30.2,24.1,30.7,23.3,30.7z"></path> </g> <g> <path class="st4" d="M23.1,16.7L23.1,16.7c-0.2,0-0.3-0.2-0.2-0.3c0.2-0.8,1.2-1.4,1.3-1.4s0.3,0,0.3,0.1s0,0.3-0.1,0.3 c-0.3,0.1-1,0.6-1.1,1.1C23.3,16.7,23.2,16.7,23.1,16.7z"></path> </g> <g> <path class="st4" d="M80.3,98.2c-0.5,0-1.1,0-1.9,0h-0.2c-0.1,0-0.2-0.1-0.2-0.3c0-0.1,0.1-0.2,0.2-0.2l0,0h0.2 c2.2,0.1,2.7,0,2.8,0c0.1,0,0.3,0,0.3,0.2s0,0.3-0.1,0.3C81.2,98.2,80.9,98.2,80.3,98.2z"></path> </g> <g> <path class="st4" d="M80.2,100.5c-0.9,0-2,0-2,0c-0.1,0-0.2-0.1-0.2-0.3c0-0.1,0.1-0.2,0.3-0.2c0.7,0,2.7,0.1,2.9,0 c0.1,0,0.3,0,0.3,0.2s0,0.3-0.2,0.3C81.2,100.5,80.8,100.5,80.2,100.5z"></path> </g> <g> <path class="st4" d="M80.2,102.7c-0.9,0-2,0-2,0c-0.1,0-0.2-0.1-0.2-0.3c0-0.1,0.1-0.2,0.3-0.2c0.9,0,2.7,0.1,2.9,0 c0.1,0,0.3,0,0.3,0.2s0,0.3-0.2,0.3C81.2,102.7,80.8,102.7,80.2,102.7z"></path> </g> <g> <path class="st4" d="M46.2,105.1c-0.4,0-0.9,0-1.5,0c-0.1,0-0.2-0.1-0.2-0.3c0-0.1,0.1-0.2,0.2-0.2l0,0c0.5,0,2.1,0,2.4,0 c0.1,0,0.3,0,0.3,0.2s0,0.3-0.2,0.3C47.1,105.1,46.7,105.1,46.2,105.1z"></path> </g> <g> <path class="st4" d="M46.1,107.4c-0.5,0-1.2,0-1.5,0c-0.1,0-0.2-0.1-0.2-0.3s0.1-0.2,0.3-0.2c1.2,0,2.3,0,2.4,0s0.3,0,0.3,0.2 s0,0.3-0.2,0.3C47,107.4,46.6,107.4,46.1,107.4z"></path> </g> <g> <path class="st4" d="M46.1,109.6c-0.4,0-1,0-1.6,0c-0.1,0-0.2-0.1-0.2-0.3s0.1-0.2,0.3-0.2c1.5,0.1,2.4,0,2.5,0s0.3,0,0.3,0.2 c0,0.1,0,0.3-0.1,0.3C47.1,109.6,46.7,109.6,46.1,109.6z"></path> </g> <g> <path class="st4" d="M69.9,64h-6.5c-0.1,0-0.2-0.1-0.2-0.2s0.1-0.2,0.2-0.2h6.5c0.1,0,0.2,0.1,0.2,0.2S70.1,64,69.9,64z"></path> </g> <g> <path class="st4" d="M67.6,62.2h-2.2c-0.1,0-0.2-0.1-0.2-0.2s0.1-0.2,0.2-0.2h2.2c0.1,0,0.2,0.1,0.2,0.2S67.8,62.2,67.6,62.2z"></path> </g> <g> <path class="st4" d="M33.7,91.8h-9.9c-0.1,0-0.2-0.1-0.2-0.2s0.1-0.2,0.2-0.2h9.9c0.1,0,0.2,0.1,0.2,0.2S33.9,91.8,33.7,91.8z"></path> </g> <g> <path class="st4" d="M25.8,93.9h-1.9c-0.1,0-0.2-0.1-0.2-0.2s0.1-0.2,0.2-0.2h1.9c0.1,0,0.2,0.1,0.2,0.2S25.9,93.9,25.8,93.9z"></path> </g> <g> <path class="st4" d="M64.8,50.5c-0.1,0-0.2-0.1-0.2-0.2c-5.3-21.3-24.2-25.2-32-25.8c-2.7-0.2-4.4-0.1-4.5-0.1s-0.3-0.1-0.3-0.2 s0.1-0.3,0.2-0.3c0,0,1.8-0.1,4.5,0.1c8,0.7,27.1,4.6,32.5,26.2C65.1,50.3,65,50.5,64.8,50.5C64.9,50.5,64.9,50.5,64.8,50.5z"></path> </g> <g> <path class="st4" d="M7.5,33.2c-0.1,0-0.2,0-0.2-0.1l-3.4-6.8C3.8,26.2,3.9,26,4,26s0.3,0,0.3,0.1l3.4,6.8 C7.8,33,7.7,33.2,7.5,33.2C7.6,33.2,7.5,33.2,7.5,33.2z"></path> </g> <g> <path class="st4" d="M25.3,28.2c-3.1,0-5.3-2.1-6-2.9c-0.1-0.1-0.2-0.2-0.2-0.2c-0.1-0.1-0.1-0.3,0-0.4s0.3-0.1,0.4,0 c0,0,0.1,0.1,0.2,0.2c0.7,0.8,3.2,3.2,6.6,2.6c0.1,0,0.1,0,0.1,0c1-0.2,2.1-0.7,3.2-1.4c0.9-0.6,1.8-1.3,2.8-2.1 c1.1-0.9,2.1-1.8,3.1-2.8c0.6-0.6,1.2-1.1,1.7-1.6c1-1,1.8-1.7,2.5-2.2c0.1-0.1,0.3,0,0.4,0.1s0,0.3-0.1,0.4 c-0.6,0.5-1.4,1.2-2.4,2.2c-0.5,0.5-1.1,1-1.7,1.6c-1,1-2.1,1.9-3.2,2.8c-1,0.8-1.9,1.5-2.8,2.1c-1.1,0.8-2.3,1.3-3.5,1.5 c-0.1,0-0.1,0-0.1,0C26,28.2,25.6,28.2,25.3,28.2z"></path> </g> <g> <path class="st4" d="M28.9,18.1c-0.1,0-0.2-0.1-0.2-0.2s0-0.1,0.1-0.2l0,0c1.6-1.1,2.8-2.2,3.9-3.4c1.6-1.6,3.2-3.1,5.7-4.2 c0.1-0.1,0.3,0,0.3,0.1s0,0.3-0.1,0.3c-2.4,1-3.9,2.5-5.5,4.1c-1.1,1.1-2.3,2.3-3.9,3.4C29,18.1,29,18.1,28.9,18.1z"></path> </g> <g> <path class="st4" d="M40.3,20.1h-0.1c-0.1,0-0.1-0.1-0.1-0.2L37.9,8.4c0-0.1,0-0.2,0.1-0.3l5.8-2.3c0.1,0,0.1,0,0.2,0 s0.1,0.1,0.1,0.2l2.5,11.7c0,0.1,0,0.2-0.2,0.3L40.3,20.1C40.4,20.1,40.3,20.1,40.3,20.1z M38.4,8.5l2.1,11l5.6-2L43.7,6.3 L38.4,8.5z"></path> </g> <g> <path class="st4" d="M46.9,17.9h-0.5c-0.1,0-0.2-0.1-0.2-0.2s0.1-0.2,0.2-0.2h0.3L44.3,6.2l-0.4-0.1c-0.1,0-0.1-0.1-0.1-0.2 c0-0.1,0.1-0.1,0.2-0.1l0.5,0.1c0.1,0,0.1,0.1,0.1,0.1l2.5,11.6v0.1C47,17.9,46.9,17.9,46.9,17.9z"></path> </g> <g> <path class="st4" d="M40.5,20.1L40.5,20.1h-0.3c-0.1,0-0.1-0.1-0.1-0.2s0.1-0.1,0.2-0.1h0.2l6.3-2.2c0.1,0,0.2,0,0.2,0.1 s0,0.2-0.1,0.2L40.5,20.1C40.6,20.1,40.6,20.1,40.5,20.1z"></path> </g> </svg> 