<?xml version="1.0" encoding="UTF-8"?> <!-- Generator: Adobe Illustrator 23.0.1, SVG Export Plug-In . SVG Version: 6.00 Build 0) --> <svg xmlns="http://www.w3.org/2000/svg" xmlns:xlink="http://www.w3.org/1999/xlink" version="1.1" id="Layer_1" x="0px" y="0px" viewBox="0 0 198 138" style="enable-background:new 0 0 198 138;" xml:space="preserve"> <style type="text/css"> .st0{fill:#FFFFFF;} .st1{fill:#EAE9E8;} .st2{fill:none;} .st3{fill:#3D3D3D;} </style> <path class="st0" d="M180.9,127c0.2,0.5,0.3,1,0.3,1.6c-0.5,4.4-17.2,0.3-20.6-0.9c-1-0.3-1.4-1.6-1.4-3.1c0.2,0.7,0.7,1.1,1.4,1.4 C163.7,127,181.2,131,180.9,127z"></path> <path class="st0" d="M180.9,127c0.3,4-17.2,0-20.3-1.1c-0.7-0.2-1.2-0.7-1.4-1.4c-0.1-2.5,0.6-5.5,0.6-5.5c0,2.1,10.7,2.1,10.7,0 C172.1,122,179.4,123.7,180.9,127z"></path> <path class="st0" d="M98.6,75.7c0.8-1.2,1.7-2.3,2.8-3.3l0,0c2-1.7,4.1-2.5,6.4-2.5c1.9,0,3.5,0.9,4.6,2.4s1.4,3.5,0.9,5.3 c-1.1,3.6-5.6,5.1-9.1,5.2c-0.1,0-0.3,0-0.5,0c-1.1,0-2.1-0.1-3.1-0.4c-1.6-0.4-3.1-1.1-4.5-2.1c-0.5-0.4-1-0.8-1.5-1.3 c-3.2-3.1-5.1-7.7-5.1-12.4c0-10.7,9.9-21.2,20.2-21.9c-0.3,1-0.6,1.9-0.7,3l-0.2,1.6c0,0.2,0,0.4,0,0.5l0,0 c-6.8,1.3-14.2,8.6-14.2,16.7c0,3.3,1.4,6.7,3.6,8.8C98.3,75.5,98.4,75.6,98.6,75.7z M104.8,76.2C104.8,76.2,104.7,76.2,104.8,76.2 c-0.5,0.5-1,1-1.5,1.6l0,0c0.3,0,0.5,0,0.8,0c2.2-0.1,4.3-1,4.5-1.7c0.1-0.3,0-0.6-0.2-0.8c-0.1-0.1-0.3-0.3-0.6-0.3 C106.8,74.9,105.8,75.3,104.8,76.2z"></path> <path class="st0" d="M162.6,15.4c0,0,1.2-9.6-1.7-12.1c-2.9-2.4-2.4-2.5-7.1-2.6S148,5.5,148,5.5s-1,7.1-1.3,8.2 c-1,3.6-2.6,5.1-2.6,5.1l0.1,2.7c0,0,2,2.7,4.9,3.1s4.8,0.2,4.8,0.2l0.4-0.6c0,0,2.6,2.6,4.8,2.3c2.1-0.4,2.2-0.9,2.5-2.3 s0.9-2.2,1.4-3.4C163.5,19.5,163.7,16.8,162.6,15.4z"></path> <path class="st0" d="M148.5,32.9l-0.1,5.4l1.6,0.2l-1,7.4l10.2,1.3v-4.4c0,0,4.3,3.4,15.7,3c0,0,8.4,0,11-4c0,0,2.1-6.4-1.9-7.4 c0,0-5.7,1.5-15.8-1l-7.2-8c0,0-2,2.5-5.4-0.3C155.7,25.2,153.5,30.4,148.5,32.9"></path> <path class="st0" d="M154,24.8h0.1c-1.6,4.4-5.7,6-5.7,6c-3-2.1-3.9-6.5-4.2-9.3l0,0C144.3,21.5,147.1,25.6,154,24.8z"></path> <path class="st0" d="M148.5,49.9l10.1,1.3c-0.3,2.4-0.7,4.9-1.1,7.1l-9.9-1.3L148.5,49.9z"></path> <path class="st0" d="M190.1,32.8c0,0,6-4.3,6.8-3.8c0.5,0.4,0,1.2-0.8,2.1c0.4-0.1,0.7-0.2,0.8-0.1c0.5,0.4,0,1.2-0.9,2.2l0.1,0.1 c0.4-0.1,0.7-0.2,0.8-0.1c1.3,1-4.5,5.5-4.5,5.5s-1.7,2.9-6.5,3.4c1.4-2.3,0.7-6.2-0.5-7.4c0.2-0.3,4.2-4.9,5.2-4.5 C191,30.5,190.6,31.7,190.1,32.8z"></path> <path class="st0" d="M185.3,34.8c1.3,1.2,2,5.1,0.5,7.4c-0.3,0.5-0.7,1-1.3,1.3c0,0-0.3,0.2-0.8,0.4v-0.1c3.5-2,2-9.2,0-9.2 c0.2,0,0.3-0.1,0.5-0.1C184.5,34.3,184.9,34.4,185.3,34.8L185.3,34.8z"></path> <path class="st0" d="M152.2,90.1c-0.8,1.3-1.9,2.3-3.7,2.7c-9.7,2.3-22.6-0.6-29.7,0c-0.1,0-0.3,0-0.5,0c-0.4-0.2-0.8-0.4-1.1-0.6 l-0.3-0.2c-0.5-0.3-1-0.6-1.5-0.8c-1.6-2.3-2.4-6.4-1-7.7l0,0c0.2-0.2,0.4-0.3,0.6-0.4c0,0,10.2-1.9,21.9-2.2c-1.5-2-2.8-4.2-4-6.2 c-1.8-3.1-3.3-6-4.2-8.1l6.6,0.9l3.2,0.4l7.6,1c0.2-1.4,0.3-2.5,0.3-2.5c5.4,0.2,9.9-0.4,10.1-2.1c0,0,12.3,22,14,32.5 c1.8,10.6,0,22.4,0,22.4c0,2.1-10.7,2.1-10.7,0l-1.4-18.3C156.7,97.9,154.1,93.4,152.2,90.1z"></path> <path class="st0" d="M152.2,90.1c-0.8,1.3-1.9,2.3-3.7,2.7c-9.7,2.3-22.6-0.6-29.7,0c-0.1,0-0.3,0-0.5,0c-0.4-0.2-0.8-0.4-1.1-0.6 l-0.3-0.2c-0.5-0.3-1-0.6-1.5-0.8c-1.6-2.3-2.4-6.4-1-7.7l0,0c0.2-0.2,0.4-0.3,0.6-0.4c0,0,10.2-1.9,21.9-2.2c-1.5-2-2.8-4.2-4-6.2 c-1.8-3.1-3.3-6-4.2-8.1l6.6,0.9l3.2,0.4l7.6,1c0.2-1.4,0.3-2.5,0.3-2.5c5.4,0.2,9.9-0.4,10.1-2.1c0,0,12.3,22,14,32.5 c1.8,10.6,0,22.4,0,22.4c0,2.1-10.7,2.1-10.7,0l-1.4-18.3C156.7,97.9,154.1,93.4,152.2,90.1z"></path> <path class="st0" d="M164,44.7c0.1,0,0.1,0,0.2,0.1C164.1,44.8,164.1,44.8,164,44.7C164,44.8,164,44.8,164,44.7z"></path> <path class="st0" d="M147.1,61l9.8,1.3c-0.2,1.2-0.4,1.9-0.4,1.9c-0.2,1.7-4.7,2.3-10.1,2.1l0,0L147.1,61z"></path> <path class="st0" d="M148.5,32.9c-0.1,0-0.1,0-0.1,0c-4.9-3.5-5.9-11.3-6.1-14.8c1.1,0.3,1.8,0.5,1.8,0.5s0,1.1,0.1,2.7 c0.3,2.8,1.2,7.2,4.2,9.3c0,0,4.1-1.6,5.7-6c0.1-0.2,0.2-0.4,0.2-0.7c0.5,0.3,1,0.6,1.4,1C153.7,30.4,149.2,32.6,148.5,32.9z"></path> <path class="st0" d="M148.5,32.9c0,1.3-0.1,3.1-0.1,5.4l-5.9-0.8l-3.2-0.4l-10-1.3c0.1-0.5,0.2-1,0.2-1.4l-1.7,1.2l-3.5,2.5l-1,0.7 l2.9,12.7c-0.9,1.7-7.2,3.2-8.1,2.4H118c-0.8-2-2.6-6.8-3.8-11.6c-0.3-1.1-0.5-2.1-0.7-3.2c-0.3-1.9,0.6-4.1,2.3-6.4l0,0 c4.6-6.3,14.6-12.9,18.1-14.5c2.7-1.2,6.4-0.6,8.5-0.1C142.6,21.5,143.6,29.4,148.5,32.9C148.4,33,148.4,33,148.5,32.9z"></path> <path class="st0" d="M147.1,61l-0.7,5.3C146.6,64.6,146.8,62.8,147.1,61L147.1,61z"></path> <polygon class="st0" points="142.4,37.5 138.5,67.9 135.2,67.5 135.2,67.4 135.6,64.4 138.8,40 139.2,37.1 "></polygon> <polygon class="st0" points="139.2,37.1 138.8,40 124.2,38.1 127.7,35.6 129.1,35.8 "></polygon> <path class="st0" d="M126.1,51.5l-2.9-12.7l1-0.7l14.6,1.9l-3.2,24.4l0,0l-4.1-0.5c-0.1-1.4-4.9-6.1-4.6-6.7s3.2,1.3,3.5,0 c0.3-1.2-4.2-4.4-4.2-4.4c0.1-0.2,0.1-0.5,0-0.7L126.1,51.5z"></path> <path class="st0" d="M128.6,63.5c0-0.1,0-0.2-0.1-0.3c1.3,1,2.4,1.3,2.9,0.9c0.1-0.1,0.1-0.2,0.1-0.3l4.1,0.5l0,0l-0.4,3v0.1 l-6.6-0.9l-7.3-0.9c-3.4-0.4-6.3-2-8.5-4.3l13.1,1.7C127.4,64.2,128.6,63.9,128.6,63.5z"></path> <path class="st0" d="M94.2,88c-2-0.6-4.2-1.3-6.4-1.8c-8.1-2.1-17-3.8-27.1-5.1c-5-0.7-10.2-1.2-15.5-1.5c-4.9-0.3-9.8-0.5-14.6-0.5 c-8.7,0-24,2.8-29.3,7.2c-1.1,0.9-2.6,0.8-3.5-0.3c-0.9-1-0.8-2.6,0.3-3.5c7-6,24.6-8.4,32.5-8.4c4.9,0,9.9,0.2,14.9,0.5 c5.4,0.4,10.7,0.9,15.8,1.5c10.4,1.4,19.5,3.1,27.8,5.3c2.1,0.5,4.1,1.1,6.1,1.7c1.6,0.5,3.2,1,4.8,1.5c2.9,1,5.6,2.1,8.2,3.2 c0.6,0.3,1.3,0.5,1.9,0.8c1.8,0.8,3.6,1.7,5.3,2.6c0.5,0.3,1,0.6,1.5,0.8l0.3,0.2c0.4,0.2,0.7,0.4,1.1,0.6c4.1,2.3,8.3,4.7,11.8,8.2 c4.4,4.4,8.1,11.4,4.2,16.4c-0.9,1.2-2.3,2.1-4,2.7c-2,0.7-4.1,1-6.2,1c-6,0-12.2-2.4-16.6-5.4c-7.3-5-12.4-13.6-13.2-22.5 c0,0,0,0,0-0.1l0,0C94,91.4,94,89.7,94.2,88z M117.3,98c-0.9-0.5-1.7-1-2.5-1.4l-0.3-0.2c-1.1-0.6-2.3-1.2-3.5-1.9l0,0 c-0.7-0.3-1.4-0.7-2.1-1c-3.1-1.4-6.3-2.8-9.8-4c0,1,0,2,0.1,3.1l0,0c0.7,7.5,5,14.7,11.1,18.9c4.8,3.3,12.5,5.9,18.3,3.8 c0.8-0.3,1.4-0.7,1.8-1.1c1.9-2.4-1.2-7.2-3.8-9.8C124,102,120.7,99.9,117.3,98z"></path> <path class="st0" d="M124.6,62c0.8,0.8-3.7,0.8-6.4-7.1c0.6,1,7.1-0.5,8-2.2c0,0,4.5,3.2,4.2,4.4c-0.3,1.3-3.2-0.6-3.5,0 s4.5,5.3,4.6,6.7c0,0.1,0,0.2-0.1,0.3c-0.6,0.4-1.7,0-2.9-0.9c0.1,0.1,0.1,0.2,0.1,0.3c0,0.4-1.3,0.7-2.7-0.4 C125.5,62.9,125.1,62.5,124.6,62z"></path> <path class="st0" d="M127.7,35.6l1.7-1.2c-0.1,0.4-0.2,0.9-0.2,1.4L127.7,35.6z"></path> <path class="st0" d="M126.2,52c0.1,0.2,0.1,0.5,0,0.7c-0.9,1.7-7.4,3.2-8,2.2c0,0-0.1-0.3-0.4-1h0.1c0.9,0.8,7.2-0.7,8.1-2.4 L126.2,52z"></path> <path class="st0" d="M125.9,63.1l-13.1-1.7c-2.9-2.9-4.4-7.1-4-11.4c0-0.2,0-0.4,0-0.5l0.2-1.6c0.1-1,0.4-2,0.7-3 c0.8-2.2,2-4.1,3.6-5.6c0.2,1,0.4,2.1,0.7,3.2c1.2,4.8,3,9.6,3.8,11.6c0.2,0.6,0.4,1,0.4,1c2.7,8,7.2,7.9,6.4,7.1 C125.1,62.5,125.5,62.9,125.9,63.1z"></path> <path class="st0" d="M100.7,82.5c-0.2,0.5-0.4,1.1-0.6,1.6c0,0.2-0.1,0.3-0.1,0.5c-1.5-0.5-3.1-1-4.8-1.5l0,0c0-0.1,0.1-0.3,0.1-0.4 c0.2-0.6,0.5-1.4,0.8-2.2C97.5,81.4,99,82.1,100.7,82.5z"></path> <path class="st0" d="M156.8,62.3L147,61h-0.1l-3-0.4c-1.1-0.1-1.9-1.1-1.7-2.2c0.1-1.1,1.1-1.9,2.2-1.7l3.1,0.4l9.9,1.3l4.9,0.6 c-2.5-0.2-2.8,3.6-0.5,4l0,0L156.8,62.3z"></path> <path class="st0" d="M158,51.1l-9.8-1.3h-0.1l-3-0.4c-1.1-0.1-1.9-1.1-1.7-2.2c0.1-1.1,1.1-1.9,2.2-1.7l3.1,0.4l9.9,1.3l4.9,0.6 c-2.5-0.2-2.8,3.6-0.5,4l0,0L158,51.1z"></path> <path class="st1" d="M162,61l-19.7-2.6c0,0-0.2,2,1.7,2.2s18,2.3,18,2.3V61z"></path> <path class="st1" d="M163.4,49.8l-19.7-2.6c0,0-0.2,2,1.7,2.2s18,2.3,18,2.3V49.8z"></path> <path class="st1" d="M162.4,59c1.1,0.1,1.9,1.1,1.7,2.2c-0.1,1-1,1.8-2,1.8c-0.1,0-0.1,0-0.2,0C159.6,62.6,159.9,58.8,162.4,59z"></path> <path class="st1" d="M163.8,47.8c1.1,0.1,1.9,1.1,1.7,2.2c-0.1,1-1,1.8-2,1.8c-0.1,0-0.1,0-0.2,0C161,51.4,161.3,47.7,163.8,47.8z"></path> <path class="st1" d="M150,38.5l-1,7.4l0,0l-3.3-0.4c-1.1-0.2-2.1,0.6-2.2,1.7s0.6,2.1,1.7,2.2l3.3,0.4l-0.9,7.2l-3.1-0.4 c-1.1-0.1-2.1,0.6-2.2,1.7s0.6,2.1,1.7,2.2l3,0.4c-0.2,1.8-0.4,3.6-0.6,5.4l0,0c0,0-0.1,1.2-0.3,2.5l-7.6-1l4-30.4l5.9,0.8L150,38.5 z"></path> <path d="M170.5,136.2c-1.3,0-2.7-0.1-4-0.1c0,0-5.8,0.2-5,0.7c0.9,0.5,3.4,0.6,4.8,0.8c2.7,0.3,5.5,0.7,8.3,0.7c1,0,2.4-0.3,2.5-0.9 c0.1-0.8-1.9-0.9-3.1-1C172.9,136.3,171.7,136.3,170.5,136.2z"></path> <path d="M119.6,137.4c-0.4,0-0.8,0-1.2,0c0,0-1.8,0.1-1.5,0.3c0.3,0.2,1,0.3,1.5,0.3c0.8,0.1,1.7,0.3,2.5,0.3c0.3,0,0.7-0.1,0.8-0.4 c0-0.4-0.6-0.4-1-0.4C120.3,137.4,120,137.4,119.6,137.4z"></path> <path class="st1" d="M157.4,15c0,0,4.3-0.2,5,0.4c0.6,0.7,1.2,1.7,1.1,2.8s-0.4,2.4-1.5,4.2c0,0-0.3,0.6-0.4,1.4s-0.2,2.9-2.5,2.7 c-2.3-0.2-6.3-3.2-6.3-3.2s-1.8-0.6-1.9-2.1c0,0,3.7,2.6,5.8,1s4.9,0.5,5-2S163.8,15.8,157.4,15z"></path> <path class="st1" d="M148.7,24.4c0,0,2.1,3.1-1.7,5.1l1.4,1.3c0,0,3.9-1.4,5.6-5.6l-0.2-0.4C153.8,24.8,151,25.4,148.7,24.4"></path> <path class="st1" d="M148,12.4c0,0-0.2,1.4,0.5,3.3s1.1,2.9,1,4.1s-1.4,4-4.8,2.2c0,0,3,3.7,9.1,2.9l0.5-0.6c0,0-2.5-1.2-2.9-2 c-0.4-0.8-0.5-2.5-0.7-3.1s-1-3.4-0.7-4.9C150,14.2,148.3,14,148,12.4z"></path> <path class="st1" d="M160,31.9c0.9-0.1,1.7-0.5,1.9-1.5c0.3-1.6-0.7-3-1.1-4.4c-1.1,0.9-3.2,0.8-5-0.6l-0.1-0.1 c-0.4,1.1-1,2.1-1.6,2.9C155.2,30.2,158.1,30.5,160,31.9z"></path> <path class="st1" d="M158.6,51.2c-0.1,1.1-0.2,1.7-0.4,2.8l-7.3-0.8l-0.6,4.2l-2.7-0.4l0.9-7.2L158.6,51.2z"></path> <path class="st1" d="M173.9,125.3c2.5,0.6,4.6,1.5,6.4,2.9c0.5-0.3,0.7-0.6,0.7-1.1c-1.2-2.7-6.2-4.4-8.9-6.4 c-0.6-0.5-1.2-1-1.5-1.5c0,1.3-4.2,1.8-7.3,1.5c0,0.1,0,0.2,0.1,0.3C165.5,123.9,170.6,124.5,173.9,125.3z"></path> <path class="st1" d="M156.8,62.3c-0.1,0.6-0.2,1.1-0.3,1.5l-7-0.8l-0.5,3.4c-0.9,0-1.8,0-2.8,0l0,0l0.7-5.3L156.8,62.3z"></path> <path class="st1" d="M196.8,33.2c1.3,1-4.5,5.5-4.5,5.5s-1.1,1.8-3.9,2.8c1-1,1.8-2.6,1.8-4.8v-0.5c0-4.2,3.6-4.6,6.8-6.9 c0.1,0.4-0.4,1.1-1,1.8c0.4-0.1,0.7-0.2,0.8-0.1c0.5,0.4,0,1.2-0.9,2.2l0.1,0.1C196.4,33.2,196.7,33.1,196.8,33.2z"></path> <path class="st1" d="M159.3,35c0,0,0.5,0.3,2.8,4.1c2.3,3.9,21.6,4.7,21.6,4.7l-6.5,1.8c0,0-4.5,0.8-8.9-0.1s-4.1-0.8-4.1-0.8l-5-2 V35H159.3z"></path> <path class="st1" d="M154.3,24.2c-0.1,0.2-0.1,0.5-0.2,0.7c-1.2,3.4-3.9,5.1-5.1,5.7v2.2c1.4-0.7,5-3,6.8-7.5 C155.2,24.8,154.8,24.5,154.3,24.2z"></path> <path class="st1" d="M131.5,32.9c0,0,0,0.1,0,0.3c0,0.7-0.2,2.4,0,2.6l-2.4-0.1l0.2-1.9L131.5,32.9"></path> <path class="st1" d="M131.5,32.9l-3.8,2.7l-3.5,2.5l-1,0.7l2.9,12.7c-0.5,0.9-2.6,1.8-4.6,2.3c-0.7-1.5-2.4-10.3-1.7-14.4 C120.5,35.4,132,31.5,131.5,32.9z"></path> <path class="st2" d="M130,63.4c-0.2,0.2-0.4,0.3-0.5,0.5c-0.3,0.2-0.5,0.2-0.8,0.2s-0.6-0.1-0.8-0.2c-0.4-0.2-0.8-0.6-1.2-1l0,0"></path> <path class="st2" d="M128.2,56.1c0.2-0.2,0.4-0.5,0.7-0.6c0-0.1,0-0.3,0.1-0.5c0-0.3,0-0.6,0-1c0-3.2-1.5-7.2-1.5-10.1 c0-3.4,5.6-6.5,7.6-7.4c0.4-0.2,0.6-0.3,0.7-0.3"></path> <path class="st1" d="M128.5,63.2c0.3,0.3,0.7,0.5,1,0.6c-0.3,0.2-0.5,0.2-0.8,0.2s-0.6-0.1-0.8-0.2c0.5,0,0.7-0.2,0.8-0.4 C128.6,63.4,128.6,63.3,128.5,63.2z"></path> <path class="st1" d="M130.2,59.7c0.4,0.7,0.7,1.4,1,2.2c0.2,0.6,0.5,1.3,0.2,1.5c-0.8-1.7-4.7-5.8-4.4-6.3c0.2-0.3,1.1,0.1,2,0.3 C129.3,58.1,129.8,59,130.2,59.7z"></path> <path class="st1" d="M126.2,52.7c0.1-0.2,0.1-0.5,0-0.7l-0.1-0.5l-2.9-12.7l1-0.7l3.5-2.5l1.4,0.2l6.1,0.8c-2,0.9-7.6,3.9-7.6,7.4 c0,2.8,1.5,6.8,1.5,10.1c0,0.3,0,0.7,0,1C127.8,53.8,126.2,52.7,126.2,52.7z"></path> <path class="st1" d="M131.2,117.8c-3.8,2.6-9.6,1.8-13.7,0.6c-7.6-2.3-16.5-12.7-17.7-22c1.5,6.1,5.3,11.8,10.5,15.4 c4.8,3.3,12.5,5.9,18.3,3.8c0.8-0.3,1.4-0.7,1.8-1.1c1.9-2.4-1.2-7.2-3.8-9.8c-2.6-2.6-5.9-4.7-9.2-6.6c-0.9-0.5-1.7-1-2.5-1.4 l-0.3-0.2c-1.1-0.6-2.3-1.2-3.5-1.9l0,0c-0.7-0.3-1.4-0.7-2.1-1c-1.8-0.8-3.7-1.6-5.6-2.4h-0.1c-1.5-0.5-8.8-3.1-9-3.1 c-0.1,0-0.2,0-0.3,0c0,0,0,0-0.1-0.1c-0.6-0.6-1.5-0.8-2.2-1c-10.2-2.5-20.3-4.7-30.7-6c-5-0.7-10.2-1.2-15.5-1.5 c-14.3-0.9-29.2-1.2-42.2,5.8c-0.9,0.5-1.8,1-2.9,1.2c-1,0.2-2.2-0.1-2.8-1c-0.1-0.2-0.3-0.5-0.2-0.8s0.4-0.4,0.7-0.6 c11.5-5.2,25.8-11.6,66.2-4.4c9.9,1.8,44,5.8,65.8,23.2C134,106.3,136.3,114.2,131.2,117.8z"></path> <path class="st1" d="M127.3,60c-0.8,0-1.6,0.5-2.5,0.5c-1.5,0-3.2-0.5-4.4-1.4l-0.1-0.1c2.5,3.7,5.1,3.6,4.4,3 c0.4,0.5,0.8,0.8,1.2,1.1c1.5,1,2.7,0.8,2.7,0.4c0-0.1,0-0.2-0.1-0.3c1.3,1,2.4,1.3,2.9,0.9c0.1-0.1,0.1-0.2,0.1-0.3 c0-0.6-1.1-2-2.2-3.3C128.7,60.4,127.9,60,127.3,60z"></path> <path class="st0" d="M117.3,98.2c-0.2,2.2-0.2,4.5-1.1,5.9h-0.1c-2.3,1.4-4.1-3.9-5.2-9.2c1.2,0.6,2.4,1.2,3.5,1.8l0.3,0.2 C115.6,97.2,116.5,97.7,117.3,98.2z"></path> <path class="st0" d="M116.1,104L116.1,104c-0.4,0.7-0.9,1.1-1.7,1.2c-2.7,0.4-4.6-5.8-5.5-11.4c0.7,0.3,1.4,0.7,2.1,1l0,0 C112,100.1,113.7,105.3,116.1,104z"></path> <path class="st0" d="M114.3,83.6c-1.4,1.4-0.6,5.4,1,7.7c-1.7-0.9-3.5-1.8-5.3-2.6c-0.2-1.5-0.2-2.8-0.2-3.5 c0.1-0.8,0.6-1.3,1.2-1.6l0,0C112.6,83.5,114.1,83.6,114.3,83.6z"></path> <path class="st0" d="M111.1,83.7c-0.7,0.3-1.2,0.9-1.2,1.6s0,1.9,0.2,3.5c-0.6-0.3-1.2-0.6-1.9-0.8l0,0c0-0.9-0.1-1.6,0-2.1 C108.2,84.4,109.6,83.9,111.1,83.7z"></path> <path class="st1" d="M114.8,96.6c0,0.2,0,0.4-0.1,0.6c-0.2,1.5-0.8,3.2-1.6,4.6c0.9,1.8,1.9,2.8,3.1,2.1h0.1c0.9-1.3,1-3.6,1.2-5.9 C116.5,97.6,115.6,97.1,114.8,96.6L114.8,96.6z"></path> <path class="st1" d="M113.1,101.8c-0.4,0.5-0.8,1-1.3,1.4c0.8,1.3,1.7,2.1,2.7,1.9c0.8-0.1,1.4-0.5,1.8-1.1h-0.1 C115,104.5,113.9,103.6,113.1,101.8z"></path> <path class="st1" d="M108,70.1c1,0.5,2,1.3,2.7,2.2c5.1,6.3-3.5,9.9-8.8,8.3c-8.5-2.5-11.2-11.2-8.8-19.2 c2.2-7.2,8.8-12.9,16.1-14.8c0.1-0.6,0.3-1.2,0.5-1.8C99.3,45.5,89.5,56,89.5,66.7c0,4.7,1.9,9.3,5.1,12.4c0.5,0.5,1,0.9,1.5,1.3 c1.4,1,2.9,1.7,4.5,2.1c1,0.2,2,0.4,3.1,0.4c0.1,0,0.3,0,0.5,0c3.5-0.1,8-1.5,9.1-5.2c0.6-1.8,0.2-3.7-0.9-5.3 C111.4,71,109.8,70.2,108,70.1z"></path> <path class="st1" d="M109.9,85.2c0-0.3,0.1-0.5,0.2-0.7c0.1-0.3,0.1-0.5,0.2-0.8c-0.2,0-0.4,0.1-0.5,0.2c-0.5,1.4-0.7,2.8-0.7,4.3 c0.2,0.1,0.3,0.1,0.5,0.2c0.1-1,0.2-1.9,0.3-2.8C109.9,85.5,109.9,85.3,109.9,85.2z"></path> <circle class="st0" cx="172.6" cy="74.6" r="1"></circle> <circle class="st0" cx="176" cy="23.2" r="1"></circle> <circle class="st0" cx="125.9" cy="11.1" r="1"></circle> <circle class="st0" cx="76.4" cy="64.2" r="1"></circle> <circle class="st0" cx="148.5" cy="107.4" r="1"></circle> <circle class="st0" cx="104.6" cy="64.5" r="1"></circle> <g> <path class="st3" d="M163.4,52.1L163.4,52.1h-0.2h-0.1c-1.4-0.2-1.9-1.4-1.8-2.5c0.1-1,0.9-2.1,2.3-2h0.1v0.2v-0.2 c0.6,0.1,1.1,0.4,1.5,0.9s0.5,1.1,0.4,1.7C165.5,51.2,164.5,52.1,163.4,52.1z M163.5,48.1c-1,0-1.6,0.8-1.7,1.6 c-0.1,0.8,0.3,1.7,1.4,1.9h0.1h0.1c0.9,0,1.6-0.7,1.8-1.5c0.1-0.5-0.1-0.9-0.3-1.3c-0.3-0.4-0.7-0.6-1.2-0.7l0,0H163.5L163.5,48.1z "></path> </g> <g> <path class="st3" d="M162.2,63.2c-0.1,0-0.2,0-0.2,0c-1.4-0.2-1.9-1.4-1.8-2.5c0.1-1,0.9-2.1,2.3-2l0,0c1.2,0.2,2.1,1.3,1.9,2.5 C164.3,62.4,163.3,63.2,162.2,63.2z M162.3,59.2c-1,0-1.6,0.8-1.7,1.5c-0.1,0.8,0.3,1.8,1.4,1.9c1,0.1,1.8-0.6,1.9-1.5 c0.1-1-0.5-1.8-1.5-2C162.4,59.2,162.3,59.2,162.3,59.2z"></path> </g> <g> <path class="st3" d="M150.2,14.4c-0.1,0-0.1,0-0.2,0c-1.3-0.1-2.3-1.2-2.3-2.5c0-0.1,0-0.2,0-0.3c0.1-1.2,1.2-2.2,2.5-2.2 c0.1,0,0.2,0.1,0.2,0.2s-0.1,0.2-0.2,0.2c-1,0-1.9,0.8-2,1.8c0,0.1,0,0.1,0,0.2c0,1,0.8,1.9,1.9,2c0.1,0,0.1,0,0.1,0 c0.1,0,0.2,0.1,0.2,0.2S150.3,14.4,150.2,14.4z"></path> </g> <g> <path class="st3" d="M148.4,31h-0.1c-3-2.1-4-6.3-4.3-9.5c-0.1-1.6-0.1-2.7-0.1-2.8s0-0.1,0.1-0.2c1.9-2,2.5-4.7,2.9-7 c0.1-0.7,0.2-1.5,0.3-2.2c0.2-1.9,0.5-3.8,1.1-5.3c1.1-2.7,4.7-4.2,8.3-3.5c4,0.8,6.5,3.9,6.5,8.4V9c0,3.5,0,4.4-0.2,6.6 c0,0.1-0.1,0.2-0.3,0.2c-0.1,0-0.2-0.1-0.2-0.3c0.2-2.2,0.2-3.1,0.2-6.5V8.9c0-4.2-2.3-7.1-6-7.9c-3.4-0.7-6.8,0.7-7.8,3.2 c-0.6,1.4-0.8,3.3-1.1,5.2c-0.1,0.7-0.2,1.5-0.3,2.2c-0.4,2.4-1,5.1-3,7.2c0,0.3,0,1.3,0.1,2.6c0.3,3,1.2,7,4,9.1 c0.7-0.3,4-2,5.4-5.8c0.1-0.2,0.1-0.4,0.2-0.6c0-0.1,0.2-0.2,0.3-0.2c0.1,0,0.2,0.2,0.2,0.3c-0.1,0.2-0.1,0.5-0.2,0.7 c-1.6,4.4-5.7,6-5.8,6.1C148.5,31,148.4,31,148.4,31z"></path> </g> <g> <path class="st3" d="M148.4,33.2h-0.1c-5.3-3.7-6.1-12.4-6.2-14.9c0-0.1,0.1-0.2,0.2-0.3c0.1,0,0.3,0.1,0.3,0.2 c0.1,2.5,0.9,10.8,5.9,14.5c0.6-0.3,5.1-2.5,7.1-7.6c0-0.1,0.2-0.2,0.3-0.1s0.2,0.2,0.1,0.3c-2,5.3-6.5,7.5-7.4,7.9 C148.5,33.2,148.5,33.2,148.4,33.2L148.4,33.2z"></path> </g> <g> <path class="st3" d="M155.6,11.6c-0.1,0-0.2,0-0.2-0.1c-0.1-0.1,0-0.3,0.1-0.4c0.5-0.3,1.5-0.4,2.1,0c0.1,0.1,0.1,0.2,0,0.4 c-0.1,0.1-0.2,0.1-0.4,0.1c-0.4-0.3-1.2-0.2-1.5,0C155.7,11.5,155.6,11.6,155.6,11.6z"></path> </g> <g> <path class="st3" d="M160.5,11.6c-0.1,0-0.2,0-0.2-0.1c-0.1-0.1,0-0.3,0.1-0.4c0.5-0.3,1.5-0.4,2.1,0c0.1,0.1,0.1,0.2,0.1,0.4 c-0.1,0.1-0.2,0.1-0.4,0.1c-0.4-0.3-1.2-0.2-1.5,0C160.6,11.5,160.6,11.6,160.5,11.6z"></path> </g> <g> <path class="st3" d="M159.1,13.7c-0.2,0-0.4,0-0.6-0.1c-0.1,0-0.2-0.2-0.2-0.3s0.2-0.2,0.3-0.2c0,0,0.7,0.2,0.9-0.2 c0.2-0.3-0.2-1.2-0.5-1.7c-0.1-0.1,0-0.3,0.1-0.3c0.1-0.1,0.3,0,0.3,0.1c0.1,0.2,0.8,1.5,0.5,2.2C159.9,13.6,159.5,13.7,159.1,13.7 z"></path> </g> <g> <path class="st3" d="M159,26.8c-1.1,0-2.3-0.5-3.3-1.3h-0.1l0,0c-0.5-0.4-0.9-0.7-1.4-1c-0.3-0.2-0.6-0.4-0.9-0.5 c-1.4-0.8-2.6-1.5-2.5-3c0-0.8-0.2-1.6-0.5-2.4c-0.4-1.3-0.7-2.7-0.5-4.4c0-0.1,0.1-0.2,0.3-0.2c0.1,0,0.2,0.1,0.2,0.3 c-0.2,1.5,0.2,2.9,0.5,4.1c0.2,0.9,0.5,1.8,0.5,2.6c0,1.2,0.9,1.7,2.3,2.5c0.3,0.2,0.6,0.3,0.9,0.5c0.5,0.3,1,0.6,1.5,1 c0,0,0,0,0.1,0l0,0c1,0.9,2.3,1.3,3.5,1.1c0.7-0.1,1.2-0.4,1.5-0.9c0.2-0.3,0.3-0.7,0.3-1.2c0-1.3,0.4-1.9,0.9-2.5s0.9-1.3,1-3.1 c0.1-1.3-0.2-2.2-0.8-2.8c-0.5-0.5-1-0.5-1.1-0.5c0,0-2.8-0.1-3.8-0.1c-0.5,0-0.8,0.5-1,0.9c-0.2,0.3-0.4,0.6-0.7,0.6l0,0 c-0.5,0-1.1-1-1.4-1.6c-0.7-1-1.6-2-1.6-2c-0.1-0.1-0.1-0.3,0-0.4c0.1-0.1,0.3-0.1,0.4,0c0,0,1,1.1,1.7,2.1c0.4,0.7,0.8,1.3,1,1.3 c0,0,0.2-0.3,0.2-0.4c0.3-0.5,0.7-1.2,1.5-1.2c1,0,3.8,0.1,3.8,0.1s0.8,0,1.4,0.6c0.7,0.6,1,1.7,1,3.2c-0.1,1.9-0.6,2.7-1.1,3.3 c-0.4,0.6-0.8,1-0.8,2.2c0,0.6-0.1,1.1-0.4,1.5c-0.4,0.6-1.1,1-1.9,1.1C159.4,26.7,159.2,26.8,159,26.8z"></path> </g> <g> <path class="st3" d="M160.8,16.8h-2.2c-0.1,0-0.2-0.1-0.2-0.2s0.1-0.2,0.2-0.2h2.2c0.1,0,0.2,0.1,0.2,0.2S160.9,16.8,160.8,16.8z"></path> </g> <g> <path class="st3" d="M150.4,12.5h-0.1c-0.5-0.3-1.1-0.5-1.1-0.5c-0.1-0.1-0.2-0.2-0.1-0.3c0-0.1,0.2-0.2,0.3-0.1 c0,0,0.6,0.2,1.2,0.5c0.1,0.1,0.2,0.2,0.1,0.3C150.6,12.5,150.5,12.5,150.4,12.5z"></path> </g> <g> <path class="st3" d="M119.4,55.5c-0.7,0-1.2-0.1-1.4-0.4c0,0-0.2-0.4-0.4-1c-0.7-1.9-2.6-6.7-3.8-11.6c-0.3-1.3-0.5-2.3-0.7-3.2 c-0.3-1.8,0.5-4,2.3-6.6c0.1-0.1,0.2-0.1,0.4,0c0.1,0.1,0.1,0.2,0,0.4c-1.8,2.4-2.5,4.5-2.2,6.2c0.2,0.9,0.4,1.9,0.7,3.2 c1.2,4.8,3,9.7,3.8,11.5c0.2,0.6,0.4,1,0.4,1s0.4,0.2,1.2,0.2c2.2-0.1,5.8-1.3,6.4-2.4c0.1-0.2,0.1-0.3,0-0.5c0,0,0,0,0-0.1 l-0.1-0.5L123.1,39c0-0.1,0-0.3,0.2-0.3s0.3,0,0.3,0.2l3,13.2c0.1,0.3,0.1,0.6,0,0.9c-0.7,1.4-4.6,2.5-6.8,2.6 C119.5,55.5,119.5,55.5,119.4,55.5z"></path> </g> <g> <path class="st3" d="M115.7,33.1h-0.1c-0.1-0.1-0.1-0.2,0-0.4c4.7-6.4,14.9-13.1,18.2-14.6c2.8-1.2,6.6-0.6,8.7-0.1 c1.1,0.3,1.8,0.5,1.8,0.5c0.1,0.1,0.2,0.2,0.1,0.3c0,0.1-0.2,0.2-0.3,0.1c0,0-0.7-0.2-1.8-0.5c-2-0.5-5.7-1.1-8.4,0.1 c-3.3,1.4-13.4,8-18,14.4C115.8,33,115.7,33.1,115.7,33.1z"></path> </g> <g> <path class="st3" d="M119,54.4c-0.5,0-1-0.1-1.2-0.3c-0.1-0.1-0.1-0.2,0-0.4c0.1-0.1,0.2-0.1,0.4,0c0.2,0.2,1,0.2,2.4,0 c2.1-0.4,4.8-1.4,5.3-2.3c0-0.1,0.1-0.1,0.2-0.1s0.2,0.1,0.2,0.2v0.1c-0.6,1.1-3.4,2.2-5.7,2.6C120.1,54.3,119.5,54.4,119,54.4z"></path> </g> <g> <path class="st3" d="M122.3,39.7c-0.1,0-0.2,0-0.2-0.1c-0.1-0.1,0-0.3,0.1-0.4l9.2-6.5c0.1-0.1,0.3,0,0.4,0.1s0,0.3-0.1,0.4 l-9.2,6.5C122.4,39.7,122.4,39.7,122.3,39.7z"></path> </g> <g> <path class="st3" d="M129.1,36L129.1,36c-0.2,0-0.3-0.1-0.2-0.3L129,35c0-0.2,0.1-0.5,0.1-0.7c0-0.1,0.1-0.2,0.3-0.2 c0.1,0,0.2,0.1,0.2,0.3c0,0.2-0.1,0.4-0.1,0.7l-0.1,0.7C129.4,36,129.3,36,129.1,36z"></path> </g> <g> <path class="st3" d="M159.1,47.5L159.1,47.5c-0.2,0-0.3-0.1-0.2-0.3c0.1-1.3,0.2-2.4,0.1-3c0-0.4,0-0.9-0.1-1.4 c-0.1-4,0.1-9.8,0.1-9.9s0.1-0.2,0.3-0.2c0.1,0,0.2,0.1,0.2,0.3c0,0.1-0.2,5.9-0.1,9.9c0,0.5,0,1,0.1,1.4c0,0.7,0,1.7-0.1,3.1 C159.4,47.4,159.2,47.5,159.1,47.5z"></path> </g> <g> <path class="st3" d="M157.5,58.6L157.5,58.6c-0.2,0-0.3-0.1-0.2-0.3c0.5-2.8,0.8-5.1,1.1-7.1c0-0.1,0.1-0.2,0.3-0.2 c0.1,0,0.2,0.1,0.2,0.3c-0.3,2-0.6,4.3-1.1,7.1C157.7,58.5,157.6,58.6,157.5,58.6z"></path> </g> <g> <path class="st3" d="M170.7,35.4h-0.1c-0.8-0.5-1.6-1-2.4-1.7c-0.1-0.1-0.1-0.2,0-0.4c0.1-0.1,0.2-0.1,0.4,0 c0.7,0.6,1.5,1.2,2.3,1.6c0.1,0.1,0.2,0.2,0.1,0.3C170.9,35.3,170.8,35.4,170.7,35.4z"></path> </g> <g> <path class="st3" d="M168.3,33.7c-0.1,0-0.1,0-0.2-0.1c-1-0.8-1.9-1.7-2.6-2.7c-1.6-2-3.1-3.8-4.5-5.3c-0.1-0.1-0.1-0.3,0-0.4 s0.3-0.1,0.4,0c1.4,1.5,2.9,3.3,4.5,5.3c0.8,1,1.6,1.8,2.6,2.6c0.1,0.1,0.1,0.2,0,0.4C168.5,33.7,168.4,33.7,168.3,33.7z"></path> </g> <g> <path class="st3" d="M164.1,45c-0.1,0-0.2,0-0.2-0.1c-1.7-0.5-3.3-1.1-4.8-1.9c-0.1-0.1-0.2-0.2-0.1-0.3s0.2-0.2,0.3-0.1 c1.5,0.8,3,1.4,4.7,1.9c0.1,0,0.1,0,0.2,0.1L164.1,45z"></path> </g> <g> <path class="st3" d="M173.3,46.2c-2,0-4.2-0.2-6.5-0.5c-1-0.2-1.8-0.4-2.6-0.6c-0.1,0-0.2-0.2-0.2-0.3c0-0.1,0.2-0.2,0.3-0.2 c0.8,0.2,1.7,0.4,2.6,0.6c2.8,0.5,5.5,0.6,8.1,0.5c0.1,0,0.3,0.1,0.3,0.2s-0.1,0.2-0.2,0.3C174.4,46.1,173.8,46.2,173.3,46.2z"></path> </g> <g> <path class="st3" d="M175,46.1c-0.1,0-0.2-0.1-0.2-0.2s0.1-0.3,0.2-0.3c4.5-0.2,7.4-1.3,8.7-2c0.5-0.2,0.8-0.4,0.8-0.4 c0.5-0.3,0.9-0.7,1.2-1.2c1.4-2.2,0.7-5.9-0.5-7.1c-0.1-0.1-0.1-0.2,0-0.4s0.2-0.1,0.4,0c1.3,1.3,2.1,5.3,0.6,7.7 c-0.4,0.6-0.8,1-1.4,1.4c0,0-0.3,0.2-0.8,0.4C182.5,44.7,179.6,45.9,175,46.1L175,46.1z"></path> </g> <g> <path class="st3" d="M185.3,35c-0.1,0-0.1,0-0.2-0.1c-0.3-0.3-0.6-0.4-0.9-0.3c-0.2,0-0.4,0.1-0.5,0.1s-0.3-0.1-0.3-0.2 s0.1-0.3,0.2-0.3s0.3-0.1,0.5-0.1c0.3-0.1,0.8-0.2,1.4,0.4c0.1,0.1,0.1,0.2,0,0.4C185.4,35,185.4,35,185.3,35z"></path> </g> <g> <path class="st3" d="M179.4,35.2c-5,0-10.3-1.3-11.1-1.5l0,0c-0.1,0-0.2-0.1-0.2-0.2c0-0.2,0.2-0.3,0.4-0.2 c1.1,0.3,9.5,2.3,15.1,1.1c0.1,0,0.3,0.1,0.3,0.2s-0.1,0.3-0.2,0.3C182.4,35.1,180.9,35.2,179.4,35.2z"></path> </g> <g> <path class="st3" d="M184.5,43.7c-0.1,0-0.1,0-0.2-0.1s-0.1-0.3,0-0.4c0.8-0.8,1.1-5.2,0.2-7.5c-0.2-0.5-0.5-1-0.9-1 c-0.1,0-0.3-0.1-0.2-0.2c0-0.1,0.1-0.2,0.2-0.2l0,0c0.6,0,1,0.5,1.4,1.3c0.8,2.1,0.8,6.9-0.3,8C184.7,43.6,184.6,43.7,184.5,43.7z"></path> </g> <g> <path class="st3" d="M130.9,64.6c-0.7,0-1.5-0.4-2.5-1.2c-1-0.8-2.1-2-3.1-3.4c-0.1-0.1,0-0.3,0.1-0.4s0.3,0,0.4,0.1 c0.9,1.3,2,2.5,3,3.2c1.1,0.9,2.2,1.3,2.6,0.9l0,0c0,0,0,0,0-0.1c0-0.6-1.5-2.4-2.6-3.8c-1.6-2-2.1-2.6-1.9-3 c0.2-0.5,0.9-0.2,1.7,0c0.6,0.2,1.4,0.4,1.6,0.2c0,0,0.1-0.1,0.1-0.2c0.2-0.7-2.3-2.9-4.1-4.2c-0.1-0.1-0.1-0.2-0.1-0.4 c0.1-0.1,0.2-0.1,0.4-0.1c0.8,0.5,4.6,3.4,4.3,4.7c0,0.2-0.2,0.4-0.4,0.5c-0.5,0.3-1.3,0-2-0.2c-0.3-0.1-0.9-0.3-1.1-0.2 c0.1,0.4,1.1,1.5,1.8,2.5c1.6,1.9,2.7,3.3,2.7,4.1c0,0.3-0.1,0.5-0.2,0.5C131.4,64.5,131.1,64.6,130.9,64.6z"></path> </g> <g> <path class="st3" d="M127.8,64.1c-0.6,0-1.3-0.2-2.1-0.8c-0.4-0.3-0.9-0.7-1.3-1.1c-0.5-0.6-1-1.3-1.5-2.2c-0.1-0.1,0-0.3,0.1-0.3 c0.1-0.1,0.3,0,0.3,0.1c0.4,0.8,0.9,1.5,1.4,2.1c0.4,0.5,0.8,0.8,1.2,1.1c1.1,0.8,1.9,0.8,2.2,0.6c0.1,0,0.1-0.1,0.1-0.1l0,0 c0,0,0,0,0-0.1c-0.1-0.1-0.1-0.3,0-0.4s0.3-0.1,0.4,0s0.2,0.3,0.2,0.5s-0.2,0.4-0.4,0.5C128.3,64.1,128.1,64.1,127.8,64.1z"></path> </g> <g> <path class="st3" d="M124.4,62.6L124.4,62.6c-1.4,0-4.4-1.7-6.4-7.6c0-0.1,0-0.3,0.2-0.3c0.1,0,0.3,0,0.3,0.2 c1.9,5.5,4.5,6.8,5.3,7.1c0.3,0.1,0.6,0.1,0.7,0.2c0-0.1,0-0.2,0-0.2c0.1-0.1,0.2-0.1,0.3,0c0.2,0.2,0.2,0.4,0.1,0.5 C124.9,62.4,124.8,62.6,124.4,62.6z M124.5,62.2L124.5,62.2L124.5,62.2z"></path> </g> <path d="M152.2,90.1c-0.8,1.3-1.9,2.3-3.7,2.7c-9.7,2.3-22.6-0.6-29.7,0c-0.1,0-0.3,0-0.5,0c-0.4-0.2-0.8-0.4-1.1-0.6l-0.3-0.2 c-0.5-0.3-1-0.6-1.5-0.8c-1.6-2.3-2.4-6.4-1-7.7l0,0c0.2-0.2,0.4-0.3,0.6-0.4c0,0,10.2-1.9,21.9-2.2c-1.5-2-2.8-4.2-4-6.2 c-1.8-3.1-3.3-6-4.2-8.1l6.6,0.9l3.2,0.4l7.6,1c0.2-1.4,0.3-2.5,0.3-2.5c5.4,0.2,9.9-0.4,10.1-2.1c0,0,12.3,22,14,32.5 c1.8,10.6,0,22.4,0,22.4c0,2.1-10.7,2.1-10.7,0l-1.4-18.3C156.7,97.9,154.1,93.4,152.2,90.1z"></path> <g> <path class="st3" d="M140.2,85.4c-0.1,0-0.1,0-0.2-0.1c-1.1-1.2-2.2-2.6-3.4-4.2c-1.3-1.8-2.7-3.9-4-6.2c-1.9-3.2-3.4-6.2-4.2-8.1 c-0.1-0.1,0-0.3,0.1-0.3c0.1-0.1,0.3,0,0.3,0.1c0.9,1.9,2.4,4.9,4.2,8c1.3,2.3,2.7,4.4,4,6.2c1.2,1.6,2.3,3,3.4,4.2 c0.1,0.1,0.1,0.3,0,0.4C140.3,85.4,140.3,85.4,140.2,85.4z"></path> </g> <g> <path class="st3" d="M139.5,94c-3.6,0-7.2-0.3-10.6-0.6c-3.8-0.3-7.4-0.6-10-0.4c-0.2,0-0.3,0-0.4,0s-0.3-0.1-0.3-0.2 s0.1-0.3,0.2-0.3s0.3,0,0.4,0c2.8-0.2,6.4,0.1,10.2,0.4c6.4,0.5,13.6,1.1,19.6-0.3c1.6-0.4,2.7-1.2,3.5-2.6 c3.4-6.1-2.3-20-2.3-20.2c0-0.1,0-0.3,0.1-0.3s0.3,0,0.3,0.1c0.2,0.6,5.9,14.3,2.3,20.6c-0.8,1.5-2.1,2.5-3.8,2.9 C145.7,93.8,142.6,94,139.5,94z"></path> </g> <g> <path class="st3" d="M114.4,83.8c-0.1,0-0.1,0-0.2-0.1s-0.1-0.3,0-0.4c0.2-0.2,0.4-0.3,0.7-0.4c0.1,0,10.4-1.9,22-2.2l0,0 c0.1,0,0.2,0.1,0.2,0.2s-0.1,0.2-0.2,0.3c-11.6,0.4-21.8,2.2-21.9,2.2c-0.1,0.1-0.3,0.1-0.5,0.3C114.5,83.7,114.4,83.8,114.4,83.8z "></path> </g> <g> <path class="st3" d="M115.3,91.5c-0.1,0-0.2,0-0.2-0.1c-1.6-2.5-2.4-6.6-1-8c0.1-0.1,0.3-0.1,0.4,0s0.1,0.3,0,0.4 c-1.3,1.2-0.5,5.1,1,7.4C115.6,91.3,115.5,91.5,115.3,91.5C115.4,91.5,115.4,91.5,115.3,91.5z"></path> </g> <g> <path class="st3" d="M165.2,120.9c-2.6,0-5.6-0.5-5.6-1.8l-1.4-18.3c0-0.1,0.1-0.3,0.2-0.3s0.3,0.1,0.3,0.2l1.4,18.3 c0,0.7,2.3,1.3,5.1,1.3s5.1-0.6,5.1-1.3c0-0.1,1.8-11.9,0-22.3c-1.7-10.4-13.9-32.2-14-32.5c-0.1-0.1,0-0.3,0.1-0.3s0.3,0,0.3,0.1 c0.1,0.2,12.3,22.1,14.1,32.6c1.8,10.5,0,22.3,0,22.4C170.8,120.5,167.8,120.9,165.2,120.9z"></path> </g> <g> <path class="st3" d="M160.3,104.2c-0.1,0-0.2,0-0.2-0.1l-2.8-4.7c-1.7-2.8-3.8-6.4-5.4-9.1c-0.1-0.1,0-0.3,0.1-0.3s0.3,0,0.3,0.1 c1.6,2.7,3.7,6.3,5.4,9.1l2.8,4.7C160.6,104,160.5,104.2,160.3,104.2C160.4,104.2,160.3,104.2,160.3,104.2z"></path> </g> <g> <path class="st3" d="M108.2,88c-0.1,0-0.2-0.1-0.2-0.2c-0.1-0.9-0.1-1.6,0-2.2c0.1-0.9,0.7-2,3.2-2.3c1.6-0.2,3.3,0,3.3,0 c0.1,0,0.2,0.1,0.2,0.2s-0.1,0.2-0.3,0.2l0,0c0,0-1.6-0.2-3.2,0c-1.8,0.2-2.7,0.9-2.8,1.9c0,0.5,0,1.2,0,2.1 C108.4,87.9,108.3,88,108.2,88L108.2,88z"></path> </g> <g> <path class="st3" d="M114.1,105.3c-3.1,0-4.8-7.2-5.5-11.7c0-0.1,0.1-0.3,0.2-0.3s0.3,0.1,0.3,0.2c1.2,7.4,3.2,11.5,5.3,11.2 c0.7-0.1,1.2-0.4,1.6-1c0.8-1.2,0.9-3.2,1.1-5.1V98c0-0.1,0.1-0.2,0.3-0.2c0.1,0,0.2,0.1,0.2,0.2v0.6c-0.1,2-0.3,4.1-1.2,5.4 c-0.5,0.7-1.1,1.1-2,1.3C114.3,105.3,114.2,105.3,114.1,105.3z"></path> </g> <g> <path class="st3" d="M118.6,93.3c-0.1,0-0.1,0-0.2-0.1s-0.1-0.2,0-0.4l0.2-0.2c0.1-0.1,0.3-0.1,0.4,0s0.1,0.2,0,0.3l-0.2,0.2 C118.8,93.2,118.7,93.3,118.6,93.3z"></path> </g> <g> <path class="st3" d="M110,88.9c-0.1,0-0.2-0.1-0.2-0.2c-0.1-1.6-0.2-2.8-0.2-3.5c0.1-0.8,0.5-1.4,1.4-1.9c0.1-0.1,0.3,0,0.3,0.1 c0.1,0.1,0,0.3-0.1,0.3c-0.7,0.4-1.1,0.8-1.1,1.4c0,0.7,0,1.9,0.2,3.4C110.3,88.8,110.2,88.9,110,88.9L110,88.9z"></path> </g> <g> <path class="st3" d="M115.4,104.3c-0.2,0-0.4,0-0.7-0.1c-2-0.9-3.3-5.7-4-9.5c0-0.1,0.1-0.3,0.2-0.3s0.3,0.1,0.3,0.2 c1,5.2,2.4,8.5,3.8,9.2c0.4,0.2,0.7,0.1,1.1-0.1c0.1-0.1,0.3,0,0.3,0.1s0,0.3-0.1,0.3C116,104.2,115.7,104.3,115.4,104.3z"></path> </g> <g> <path class="st3" d="M176.4,130.9c-5.4,0-13.5-2.1-15.9-2.9c-1-0.3-1.5-1.5-1.6-3.4c-0.1-2.5,0.6-5.4,0.7-5.5 c0-0.1,0.2-0.2,0.3-0.2c0.1,0,0.2,0.2,0.2,0.3c0,0-0.7,3-0.6,5.4c0,1.2,0.3,2.6,1.2,3c3.6,1.2,16.4,4.2,19.6,2.1 c0.4-0.3,0.6-0.6,0.7-1c0-0.5,0-1-0.2-1.4c-0.8-1.7-3.1-3-5.5-4.2c-1.3-0.7-2.5-1.3-3.4-2c-0.8-0.6-1.3-1.1-1.5-1.6 c-0.1-0.1,0-0.3,0.1-0.3s0.3,0,0.3,0.1c0.2,0.5,0.7,0.9,1.4,1.5c0.9,0.7,2.1,1.3,3.3,2c2.4,1.3,4.8,2.6,5.7,4.5 c0.3,0.5,0.4,1.1,0.3,1.7s-0.4,1.1-0.9,1.4C179.6,130.6,178.2,130.9,176.4,130.9z"></path> </g> <g> <path class="st3" d="M176.8,129c-5.5,0-14.5-2.2-16.3-2.8c-0.8-0.3-1.4-0.8-1.6-1.6v-0.1c0-0.1,0-0.3,0.2-0.3c0.1,0,0.3,0,0.3,0.1 v0.1c0.2,0.8,0.8,1.1,1.2,1.3c3.3,1.1,17,4.1,19.6,2.1c0.3-0.2,0.4-0.5,0.4-0.8c0-0.1,0.1-0.2,0.2-0.3c0.1,0,0.2,0.1,0.3,0.2 c0,0.5-0.2,0.9-0.6,1.2C179.9,128.8,178.5,129,176.8,129z"></path> </g> <g> <path class="st3" d="M138.5,68.2L138.5,68.2L121.3,66c-3.3-0.4-6.3-1.9-8.7-4.4c-3-3.1-4.5-7.3-4.1-11.6c0-0.2,0-0.4,0-0.5l0.2-1.7 c0.1-1,0.4-2,0.7-3c0.8-2.2,2-4.1,3.7-5.7c0.1-0.1,0.3-0.1,0.4,0s0.1,0.3,0,0.4c-1.6,1.5-2.8,3.4-3.6,5.5c-0.4,1-0.6,2-0.7,2.9 l-0.2,1.6c0,0.2,0,0.4,0,0.5c-0.4,4.2,1,8.2,4,11.2c2.3,2.3,5.2,3.8,8.4,4.2l16.9,2.2l3.9-29.9l-14.5-1.9c-0.1,0-0.2-0.1-0.2-0.3 c0-0.1,0.1-0.2,0.3-0.2l14.7,1.9c0.1,0,0.1,0,0.2,0.1c0,0,0.1,0.1,0,0.2l-4,30.4C138.7,68.1,138.6,68.2,138.5,68.2z"></path> </g> <g> <path class="st3" d="M135.6,64.6L135.6,64.6l-4.1-0.5c-0.1,0-0.2-0.1-0.2-0.3c0-0.1,0.1-0.2,0.3-0.2l4.1,0.5c0.1,0,0.2,0.1,0.2,0.3 C135.9,64.6,135.8,64.6,135.6,64.6z"></path> </g> <g> <path class="st3" d="M128.9,63.8L128.9,63.8h-0.3c-0.1,0-0.2-0.1-0.2-0.3c0-0.1,0.1-0.2,0.3-0.2h0.3c0.1,0,0.2,0.1,0.2,0.3 C129.1,63.7,129,63.8,128.9,63.8z"></path> </g> <g> <path class="st3" d="M125.9,63.4L125.9,63.4l-13.1-1.7c-0.1,0-0.2-0.1-0.2-0.3c0-0.1,0.1-0.2,0.3-0.2l13.1,1.7 c0.1,0,0.2,0.1,0.2,0.3C126.1,63.3,126,63.4,125.9,63.4z"></path> </g> <g> <path class="st3" d="M138.8,40.3L138.8,40.3l-14.6-1.9c-0.1,0-0.2-0.1-0.2-0.3c0-0.1,0.1-0.2,0.3-0.2l14.6,1.9 c0.1,0,0.2,0.1,0.2,0.3C139,40.2,138.9,40.3,138.8,40.3z"></path> </g> <g> <path class="st3" d="M135.2,67.6L135.2,67.6c-0.2,0-0.3-0.1-0.2-0.3l0.4-3l3.5-27.3c0-0.1,0.1-0.2,0.3-0.2c0.1,0,0.2,0.1,0.2,0.3 L139,40l-3.5,27.4C135.5,67.5,135.4,67.6,135.2,67.6z"></path> </g> <g> <path class="st3" d="M149,46.2L149,46.2c-0.2,0-0.3-0.1-0.2-0.3l0.9-7.2l-7.3-1c-0.1,0-0.2-0.1-0.2-0.3s0.1-0.2,0.3-0.2l7.6,1 c0.1,0,0.1,0,0.2,0.1s0.1,0.1,0,0.2l-1,7.4C149.3,46.1,149.1,46.2,149,46.2z"></path> </g> <g> <path class="st3" d="M147.6,57.3L147.6,57.3c-0.2,0-0.3-0.1-0.2-0.3l0.9-7.2c0-0.1,0.1-0.2,0.2-0.2s0.2,0.1,0.2,0.3l0,0l-0.9,7.2 C147.8,57.2,147.7,57.3,147.6,57.3z"></path> </g> <g> <path class="st3" d="M146,69.2L146,69.2l-7.6-1c-0.1,0-0.2-0.1-0.2-0.3c0-0.1,0.1-0.2,0.3-0.2l7.6,1c0.1,0,0.2,0.1,0.2,0.3 C146.3,69.1,146.2,69.2,146,69.2z"></path> </g> <g> <path class="st3" d="M146.4,66.6L146.4,66.6c-0.2,0-0.3-0.1-0.2-0.3l0.7-5.3c0-0.1,0.1-0.2,0.3-0.2c0.1,0,0.2,0.1,0.2,0.3l-0.7,5.3 C146.6,66.5,146.5,66.6,146.4,66.6z"></path> </g> <g> <path class="st3" d="M188.5,35.6c-0.1,0-0.1,0-0.2-0.1s-0.1-0.2,0-0.4c0.4-0.4,1-1.5,1.5-2.5s0.7-1.8,0.6-2.1c0-0.1,0-0.1-0.1-0.1 c-0.5-0.2-3.5,2.7-4.9,4.4c-0.1,0.2-0.5,0-0.5-0.2c0-0.1,0-0.1,0.1-0.2c0.4-0.5,4.3-5,5.4-4.5c0.2,0.1,0.3,0.2,0.3,0.4 c0.2,0.5,0,1.3-0.6,2.5c-0.5,1.1-1.2,2.2-1.6,2.6C188.7,35.6,188.6,35.6,188.5,35.6z"></path> </g> <g> <path class="st3" d="M192.3,34.8c-0.1,0-0.1,0-0.2-0.1s-0.1-0.3,0-0.4c0,0,2.3-1.8,3.7-3.4c0.8-1,0.9-1.4,0.9-1.6 c0-0.1,0-0.1-0.1-0.2c-0.5-0.2-3.7,1.8-6.5,3.8c-0.1,0.1-0.3,0-0.4-0.1s-0.1-0.3,0.1-0.4c2.3-1.7,6.3-4.4,7.1-3.8 c0.2,0.1,0.3,0.3,0.3,0.5c0,0.5-0.3,1.1-1,2c-1.4,1.6-3.7,3.4-3.8,3.5C192.5,34.8,192.4,34.8,192.3,34.8z"></path> </g> <g> <path class="st3" d="M192.3,36.8c-0.1,0-0.1,0-0.2-0.1s-0.1-0.3,0-0.4c0,0,2.3-1.8,3.6-3.3l0,0c0.9-1,1-1.4,0.9-1.6 c0-0.1,0-0.1-0.1-0.2c0,0-0.1,0-0.5,0.1c-0.1,0-0.3,0-0.3-0.1s0-0.3,0.1-0.3c0.5-0.2,0.8-0.2,1,0c0.2,0.1,0.3,0.3,0.3,0.5 c0,0.5-0.3,1.1-1.1,2l0,0c-1.4,1.6-3.5,3.2-3.6,3.3C192.5,36.8,192.4,36.8,192.3,36.8z"></path> </g> <g> <path class="st3" d="M185.8,42.4c-0.1,0-0.2-0.1-0.2-0.2s0.1-0.3,0.2-0.3c4.6-0.5,6.3-3.3,6.3-3.3s0,0,0.1-0.1 c1.8-1.4,4.6-4,4.6-4.9c0-0.1,0-0.1-0.1-0.2l0,0c0,0-0.1,0-0.5,0.1c-0.1,0-0.3,0-0.3-0.1s0-0.3,0.1-0.3c0.5-0.2,0.8-0.2,1,0 c0.2,0.1,0.3,0.3,0.3,0.6c0,1.5-4.1,4.8-4.8,5.3C192.3,39.3,190.4,41.9,185.8,42.4C185.9,42.4,185.8,42.4,185.8,42.4z"></path> </g> <g> <path class="st3" d="M148.4,38.5L148.4,38.5c-0.1,0-0.2-0.1-0.2-0.3c0.1-2.4,0.1-4.3,0.1-5.4c0-0.1,0.1-0.3,0.2-0.3l0,0 c0.1,0,0.2,0.1,0.2,0.2l0,0c0,1.1,0,2.9-0.1,5.4C148.6,38.4,148.5,38.5,148.4,38.5z"></path> </g> <g> <path class="st3" d="M146.4,66.6c-0.1,0-0.2-0.1-0.2-0.3c0.2-2,0.5-3.8,0.6-5.4c0-0.1,0.1-0.2,0.3-0.2c0.1,0,0.2,0.1,0.2,0.3 c-0.2,1.6-0.4,3.4-0.6,5.4C146.6,66.5,146.5,66.6,146.4,66.6z"></path> </g> <g> <path class="st3" d="M146,69.2L146,69.2c-0.2,0-0.3-0.1-0.2-0.3l0.3-2.5c0-0.1,0.1-0.2,0.3-0.2c5.8,0.2,9.7-0.5,9.8-1.9 c0,0,0.1-0.8,0.4-2c0-0.1,0.1-0.2,0.2-0.2s0.2,0.1,0.2,0.3l0,0c-0.2,1.2-0.4,2-0.4,2c-0.2,2.4-7,2.5-10.1,2.4l-0.3,2.3 C146.3,69.1,146.2,69.2,146,69.2z"></path> </g> <g> <path class="st3" d="M124.1,121.5c-5.5,0-11.8-2-16.8-5.5c-7.4-5-12.5-13.7-13.3-22.7c0-0.1,0.1-0.3,0.2-0.3s0.3,0.1,0.3,0.2 c0.9,8.8,5.9,17.3,13.1,22.3c4.9,3.4,11.1,5.4,16.5,5.4c2.2,0,4.2-0.3,6.1-1c1.7-0.6,3-1.5,3.9-2.6c3.8-4.9,0.2-11.7-4.1-16 c-3.4-3.5-7.5-5.9-11.8-8.2l-0.4-0.2c-0.3-0.1-0.5-0.3-0.8-0.4l-0.3-0.2c-0.4-0.2-0.9-0.5-1.3-0.7l-0.2-0.1c-1.9-1-3.6-1.8-5.3-2.6 c-0.6-0.3-1.2-0.6-1.9-0.8c-2.7-1.2-5.5-2.2-8.2-3.2c-1.4-0.5-3-1-4.7-1.5c-2-0.6-4.1-1.2-6-1.7c-8.2-2.2-17.3-3.9-27.7-5.3 c-5-0.7-10.3-1.2-15.8-1.5c-4.9-0.3-9.9-0.5-14.9-0.5c-7.9,0-25.4,2.5-32.4,8.4C-2.6,83.6-2.8,85-2,86c0.8,0.9,2.2,1.1,3.2,0.3 C6.5,81.8,21.9,79,30.7,79c4.9,0,9.8,0.2,14.6,0.5c5.3,0.4,10.5,0.9,15.5,1.5C71,82.3,79.9,84,88,86.2c2.2,0.6,4.4,1.2,6.4,1.8 c1.6,0.5,3.3,1.1,4.9,1.6c0.1,0,0.2,0.2,0.1,0.3c0,0.1-0.2,0.2-0.3,0.1c-1.6-0.6-3.2-1.1-4.9-1.6c-2-0.6-4.1-1.2-6.4-1.8 c-8-2.1-16.9-3.8-27.1-5.1c-4.9-0.6-10.1-1.1-15.4-1.5c-4.7-0.3-9.6-0.5-14.6-0.5c-8.6,0-23.9,2.7-29.1,7.2c-1.1,1-2.9,0.8-3.9-0.3 c-1-1.2-0.8-2.9,0.3-3.9c7.1-6,24.8-8.5,32.7-8.5c4.9,0,10,0.2,14.9,0.5c5.4,0.4,10.8,0.9,15.8,1.5c10.5,1.4,19.6,3.1,27.8,5.3 c2,0.5,4,1.1,6.1,1.7c1.8,0.5,3.3,1,4.8,1.5c2.7,1,5.5,2,8.2,3.2c0.6,0.3,1.3,0.5,1.9,0.8c1.7,0.8,3.4,1.6,5.3,2.6l0.2,0.1 c0.5,0.2,0.9,0.5,1.3,0.7l0.3,0.2c0.2,0.1,0.5,0.3,0.8,0.4l0.4,0.2c4.3,2.4,8.4,4.8,11.9,8.3c4.5,4.5,8.2,11.6,4.2,16.7 c-1,1.2-2.4,2.2-4.1,2.8C128.4,121.1,126.3,121.5,124.1,121.5z"></path> </g> <g> <path class="st3" d="M124.1,116.5c-4.9,0-10.3-2.1-13.9-4.6c-6.2-4.3-10.5-11.6-11.2-19.1v-0.1l0.2-0.1h0.2h-0.2h0.2v0.1 c0.7,7.4,4.9,14.5,11,18.7c4.7,3.2,12.4,5.8,18.1,3.8c0.8-0.3,1.4-0.6,1.7-1c1.8-2.3-1.2-6.9-3.8-9.4c-2.7-2.7-6-4.7-9.2-6.5 c-0.9-0.5-1.7-1-2.5-1.4l-0.3-0.2c-1.1-0.6-2.2-1.2-3.5-1.9l0,0c-0.7-0.3-1.3-0.6-2-1c-3-1.4-6.3-2.8-9.7-4c-0.1,0-0.2-0.2-0.1-0.3 c0-0.1,0.2-0.2,0.3-0.1c3.4,1.2,6.7,2.5,9.8,4c0.7,0.3,1.4,0.7,2.1,1c0,0,0,0,0.1,0c1.3,0.6,2.5,1.2,3.5,1.8l0.3,0.2 c0.8,0.5,1.7,0.9,2.5,1.4c3.2,1.8,6.6,3.9,9.3,6.6c2.6,2.6,5.8,7.5,3.8,10.1c-0.4,0.5-1,0.9-1.9,1.2 C127.2,116.2,125.7,116.5,124.1,116.5z"></path> </g> <g> <path class="st3" d="M99.9,84.9L99.9,84.9c-0.2-0.1-0.3-0.2-0.2-0.3l0.1-0.5c0.2-0.6,0.4-1.1,0.6-1.6c0-0.1,0.2-0.2,0.3-0.1 c0.1,0,0.2,0.2,0.1,0.3c-0.2,0.5-0.4,1-0.6,1.6l-0.1,0.5C100.1,84.8,100,84.9,99.9,84.9z"></path> </g> <g> <path class="st3" d="M99.2,93c-0.1,0-0.2-0.1-0.2-0.2c-0.1-1.1-0.1-2.1-0.1-3.1c0-0.1,0.1-0.2,0.2-0.2l0,0c0.1,0,0.2,0.1,0.2,0.2 l0,0c0,1,0,2,0.1,3.1C99.5,92.9,99.4,93,99.2,93L99.2,93z"></path> </g> <g> <path class="st3" d="M94.2,93.5c-0.1,0-0.2,0-0.2-0.1s0-0.1,0-0.2c-0.2-1.7-0.2-3.5,0-5.2c0-0.1,0.1-0.2,0.3-0.2 c0.1,0,0.2,0.1,0.2,0.2c-0.2,1.7-0.2,3.5,0,5.2c0,0.1,0,0.3-0.1,0.3C94.3,93.5,94.2,93.5,94.2,93.5z"></path> </g> <g> <path class="st3" d="M95.2,83.3C95.2,83.3,95.1,83.3,95.2,83.3C95,83.2,94.9,83.1,95,83c0-0.1,0-0.1,0.1-0.2l0.1-0.2 c0.2-0.8,0.5-1.5,0.8-2.3c0-0.1,0.2-0.2,0.3-0.1c0.1,0,0.2,0.2,0.1,0.3c-0.3,0.7-0.6,1.5-0.8,2.2l-0.1,0.4 C95.4,83.2,95.3,83.3,95.2,83.3z"></path> </g> <g> <path class="st3" d="M98.5,76.1h-0.1c-0.1-0.1-0.1-0.2-0.1-0.4c0.9-1.3,1.8-2.4,2.9-3.3c0.1-0.1,0.3-0.1,0.4,0s0.1,0.3,0,0.4 c-1,0.9-1.9,1.9-2.8,3.2C98.6,76.1,98.6,76.1,98.5,76.1z"></path> </g> <g> <path class="st3" d="M103.2,78.1h-0.1c-0.1-0.1-0.1-0.2,0-0.4c0.5-0.6,0.9-1.1,1.4-1.5c0.1-0.1,0.3-0.1,0.4,0s0.1,0.3,0,0.4 c-0.5,0.4-0.9,0.9-1.4,1.5C103.4,78.1,103.3,78.1,103.2,78.1z"></path> </g> <g> <path class="st3" d="M103.6,78.1c-0.1,0-0.3,0-0.4,0c-1.8-0.1-3.4-0.8-4.9-2.1c-0.1-0.1-0.3-0.2-0.4-0.4c-2.2-2.2-3.6-5.6-3.6-9 c0-8.4,7.6-15.6,14.5-17c0.1,0,0.3,0.1,0.3,0.2s-0.1,0.3-0.2,0.3c-6.6,1.3-14,8.6-14,16.5c0,3.2,1.3,6.5,3.5,8.6 c0.1,0.1,0.2,0.2,0.4,0.4c1.4,1.2,2.9,1.8,4.6,1.9c0.2,0,0.5,0,0.8,0c2.2-0.1,4.1-1,4.3-1.5c0.1-0.2,0-0.4-0.1-0.6 c-0.1-0.1-0.2-0.2-0.4-0.2c-1,0-2,0.4-2.9,1.2l-0.2-0.1l0.2,0.2c-0.1,0.1-0.3,0.1-0.4,0s-0.1-0.2,0-0.4l0,0 c1.1-0.9,2.2-1.3,3.3-1.3c0.3,0,0.6,0.2,0.8,0.4c0.2,0.3,0.3,0.7,0.2,1c-0.3,0.9-2.5,1.8-4.7,1.9C103.9,78.1,103.8,78.1,103.6,78.1 z"></path> </g> <g> <path class="st3" d="M103.7,83.1c-1.1,0-2.1-0.1-3.1-0.4c-1.6-0.4-3.2-1.1-4.6-2.2c-0.5-0.4-1-0.8-1.5-1.3 c-3.2-3.1-5.2-7.9-5.2-12.6c0-10.7,9.9-21.4,20.5-22.1c0.1,0,0.3,0.1,0.3,0.2S110,45,109.9,45c-10.3,0.7-20,11.2-20,21.6 c0,4.6,1.9,9.2,5,12.2c0.5,0.5,1,0.9,1.5,1.2c1.4,1,2.9,1.7,4.5,2.1c1,0.3,2.1,0.4,3.2,0.4c0.1,0,0.2,0,0.2,0 c3.4-0.1,7.8-1.5,8.9-5c0.5-1.7,0.2-3.6-0.8-5c-1.1-1.5-2.6-2.3-4.5-2.3c-2.2,0-4.3,0.8-6.2,2.5l0,0c-0.1,0.1-0.3,0.1-0.4,0 s-0.1-0.3,0-0.4l0.2,0.2l-0.2-0.2c0,0,0,0,0.1,0c2-1.7,4.2-2.6,6.6-2.6c1.9,0,3.7,0.9,4.9,2.5c1.2,1.6,1.5,3.6,0.9,5.5 c-1.2,3.8-5.8,5.2-9.3,5.3c-0.1,0-0.1,0-0.2,0C103.9,83.1,103.8,83.1,103.7,83.1z"></path> </g> <g> <path class="st3" d="M170.2,122.6c-0.1,0-0.1,0-0.2-0.1s-0.1-0.3,0-0.4l1.8-1.7c0.1-0.1,0.3-0.1,0.4,0s0.1,0.3,0,0.4l-1.8,1.7 C170.3,122.6,170.3,122.6,170.2,122.6z"></path> </g> <g> <path class="st3" d="M171.7,123.5c-0.1,0-0.1,0-0.2-0.1s-0.1-0.3,0-0.4l1.6-1.5c0.1-0.1,0.3-0.1,0.4,0s0.1,0.3,0,0.4l-1.6,1.5 C171.8,123.4,171.8,123.5,171.7,123.5z"></path> </g> <g> <path class="st3" d="M173.2,124.3c-0.1,0-0.1,0-0.2-0.1s-0.1-0.3,0-0.4l1.6-1.5c0.1-0.1,0.3-0.1,0.4,0s0.1,0.3,0,0.4l-1.6,1.5 C173.4,124.3,173.3,124.3,173.2,124.3z"></path> </g> <g> <path class="st3" d="M162.2,63.2c-0.1,0-0.2,0-0.2,0c-1.4-0.2-1.9-1.4-1.8-2.5c0.1-1,0.9-2.1,2.3-2c0.1,0,0.2,0.1,0.2,0.3 c0,0.1-0.1,0.3-0.3,0.2c-1.1-0.1-1.7,0.7-1.8,1.5c-0.1,0.8,0.3,1.8,1.4,1.9c0.1,0,0.1,0,0.2,0s0.2,0.1,0.2,0.2 S162.3,63.2,162.2,63.2z"></path> </g> <g> <path class="st3" d="M163.4,52.1L163.4,52.1h-0.1h-0.1c-1.4-0.2-1.9-1.4-1.8-2.5c0.1-1,0.9-2.1,2.3-2c0.1,0,0.3,0.1,0.3,0.3 s-0.1,0.2-0.2,0.2l0,0c-1.1,0-1.7,0.8-1.8,1.6c-0.1,0.8,0.3,1.7,1.4,1.9h0.1h0.1c0.1,0,0.2,0.1,0.2,0.3 C163.6,52,163.5,52.1,163.4,52.1z"></path> </g> <g> <path class="st3" d="M137.2,76.6h-0.1c0,0-1.8-0.8-4.3-1.6c-2.5-0.8-6.2-1.8-9.4-1.8h-0.1c-0.1,0-0.2-0.1-0.2-0.2s0.1-0.2,0.2-0.2 h0.1c3.3,0,7,1,9.6,1.8c2.5,0.8,4.4,1.6,4.4,1.6c0.1,0,0.2,0.2,0.1,0.3C137.4,76.5,137.3,76.6,137.2,76.6z"></path> </g> <g> <path class="st3" d="M126.9,70.5L126.9,70.5c-3.8-0.7-6.3-0.5-6.4-0.5s-0.3-0.1-0.3-0.2s0.1-0.3,0.2-0.3c0,0,2.6-0.1,6.4,0.5 c0.1,0,0.2,0.1,0.2,0.3C127.1,70.4,127,70.5,126.9,70.5z"></path> </g> <g> <path class="st3" d="M152.3,25.2c-5.7,0-8.1-3.4-8.2-3.6c-0.1-0.1,0-0.3,0.1-0.4s0.3-0.1,0.4,0.1c0,0,2.9,4,9.5,3.3 c0.1,0,0.3,0.1,0.3,0.2s-0.1,0.3-0.2,0.3C153.4,25.1,152.9,25.2,152.3,25.2z"></path> </g> <g> <path class="st3" d="M162,63.2C161.9,63.2,161.9,63.2,162,63.2l-5.2-0.7l0,0L144,60.8c-1.2-0.2-2.1-1.3-1.9-2.5 c0.1-0.6,0.4-1.1,0.9-1.5s1.1-0.5,1.7-0.4l17.9,2.3c0.1,0,0.2,0.1,0.2,0.3c0,0.1-0.1,0.2-0.3,0.2c-1.1-0.1-1.7,0.7-1.8,1.5 c-0.1,0.8,0.3,1.8,1.4,1.9c0.1,0,0.2,0.1,0.2,0.3C162.2,63.1,162.1,63.2,162,63.2z M156.9,62l3.8,0.5c-0.4-0.5-0.6-1.2-0.5-1.8 c0.1-0.6,0.4-1.3,1-1.7l-16.6-2.2c-0.5-0.1-0.9,0.1-1.3,0.3c-0.4,0.3-0.6,0.7-0.7,1.2c-0.1,1,0.5,1.8,1.5,2L156.9,62z"></path> </g> <g> <path class="st3" d="M163.1,52L163.1,52l-14.6-1.9l0,0l-3.3-0.4c-0.6-0.1-1.1-0.4-1.5-0.9s-0.5-1.1-0.5-1.7 c0.1-0.6,0.4-1.1,0.9-1.5s1.1-0.5,1.6-0.4l17.8,2.3c0.1,0,0.2,0.1,0.2,0.3c0,0.1-0.1,0.2-0.3,0.2c-1.1-0.1-1.7,0.8-1.8,1.6 c-0.1,0.8,0.3,1.7,1.4,1.9c0.1,0,0.2,0.1,0.2,0.3C163.4,52,163.3,52,163.1,52z M148.5,49.6l13.3,1.7c-0.4-0.5-0.6-1.2-0.5-1.8 c0.1-0.6,0.4-1.3,1-1.7l-16.6-2.2c-0.5-0.1-0.9,0-1.3,0.3s-0.6,0.7-0.7,1.2s0.1,0.9,0.4,1.3s0.7,0.6,1.2,0.7L148.5,49.6z"></path> </g> </svg> 