<svg xmlns="http://www.w3.org/2000/svg" width="96" height="18" viewBox="0 0 96 18"><g><g><g><g><path fill="#3d3d3d" d="M0 8.937C0 4.028 3.907 0 8.806 0c4.9 0 8.806 4.028 8.806 8.937 0 4.91-3.907 8.937-8.806 8.937C3.907 17.937 0 13.91 0 8.937zm15.07 0c0-3.524-2.729-6.42-6.264-6.42s-6.263 2.896-6.263 6.42c0 3.525 2.728 6.42 6.263 6.42 3.535.063 6.264-2.832 6.264-6.42z"/></g><g><path fill="#3d3d3d" d="M30.631 4.087H25.36V.94h14.326v3.147h-5.272V17.68H30.57V4.087z"/></g><g><path fill="#3d3d3d" d="M40.74 9.315c0-4.972 3.845-8.685 9.054-8.685 5.21 0 9.055 3.65 9.055 8.685 0 4.972-3.845 8.686-9.055 8.686-5.271 0-9.054-3.714-9.054-8.686zm14.14 0c0-3.21-2.233-5.35-5.148-5.35-2.914 0-5.147 2.203-5.147 5.35 0 3.21 2.233 5.35 5.147 5.35 2.915 0 5.147-2.14 5.147-5.35z"/></g><g><path fill="#3d3d3d" d="M72.183 17.681l-3.163-4.657h-3.535v4.657H61.64V.94h7.132c4.403 0 7.194 2.329 7.194 6.105 0 2.517-1.24 4.343-3.411 5.287l3.72 5.35zM65.485 4.087V9.94h3.1c2.357 0 3.536-1.07 3.536-2.895-.062-1.888-1.24-2.958-3.535-2.958z"/></g><g><path fill="#3d3d3d" d="M77.95 9.315c0-4.972 3.845-8.685 9.054-8.685 5.21 0 9.055 3.65 9.055 8.685 0 4.972-3.845 8.686-9.055 8.686-5.271 0-9.054-3.714-9.054-8.686zm14.14 0c0-3.21-2.233-5.35-5.148-5.35-2.914 0-5.147 2.203-5.147 5.35 0 3.21 2.233 5.35 5.147 5.35 2.915 0 5.148-2.14 5.148-5.35z"/></g></g><g><g><path fill="#3d3d3d" d="M16.748 8.31H.81v2.517h15.938z"/></g></g><g><g><path fill="#3d3d3d" d="M10.078.706L1.966 8.94l.877.89 8.112-8.233z"/></g></g><g><g><path fill="#3d3d3d" d="M12.91 2.044L6.026 9.03l.877.89 6.884-6.987z"/></g></g><g><g><path fill="#3d3d3d" d="M14.411 4.896l-3.99 4.05.877.89 3.99-4.05z"/></g></g></g></g></svg>